<?xml version="1.0" standalone="no"?>
<!DOCTYPE svg PUBLIC "-//W3C//DTD SVG 1.1//EN" "http://www.w3.org/Graphics/SVG/1.1/DTD/svg11.dtd" >
<svg>
<metadata>
Created by FontForge 20090914 at Wed Oct  5 19:56:56 2016
 By www-data
Copyright (c) 2015, Cadson Demak (info@cadsondemak.com)
</metadata>
<defs>
<font id="Athiti-Medium" horiz-adv-x="0" >
  <font-face 
    font-family="Athiti Medium"
    font-weight="500"
    font-stretch="normal"
    units-per-em="1000"
    panose-1="0 0 6 0 0 0 0 0 0 0"
    ascent="750"
    descent="-250"
    x-height="470"
    cap-height="616"
    bbox="-551 -437 977 1075"
    underline-thickness="50"
    underline-position="-50"
    unicode-range="U+000D-U+FB02"
  />
<missing-glyph horiz-adv-x="600" 
d="M94 714h411v-714h-411v714zM454 51v612h-309v-612h309z" />
    <glyph glyph-name="fi" unicode="fi" horiz-adv-x="551" 
d="M94 398h-63.999l10 66h54v57c0 48.667 31 89 93 121c14.667 3.33301 32.167 6 52.5 8s38.166 3 53.499 3c26 0 48.667 -1.5 68 -4.5s39 -7.83301 59 -14.5l-21 -67c-30.667 8.66699 -67 13 -109 13c-34 0 -67 -3 -99 -9c-11.333 -20 -17 -41.667 -17 -65v-42h304v-464
h-80v398h-224v-398h-80v398z" />
    <glyph glyph-name="fl" unicode="fl" horiz-adv-x="610" 
d="M457 14.5c-14.667 11 -27.334 23.332 -38.001 36.999s-16 25.5 -16 35.5v317h-229v-404h-80v404h-64l10 66h54v52c0 26.667 8.83301 50.834 26.5 72.501s39.834 39.5 66.501 53.5c32.667 7.33301 72 11 118 11c65.333 0 124.666 -11 177.999 -33v-529
c0 -16 1.33301 -27.333 4 -34h13l57 29l35 -45c-10 -14 -24.167 -26.167 -42.5 -36.5s-37.166 -15.833 -56.499 -16.5c-9.33301 2.66699 -21.333 9.5 -36 20.5zM403 469.999l0.000976562 105c-20 4.66699 -37.333 7.66699 -52 9s-34.334 2 -59.001 2
c-38 0 -71.667 -2.66699 -101 -8c-11.333 -20 -17 -43.667 -17 -71v-37h229z" />
    <glyph glyph-name="ru_lakkhangyaothai" unicode="&#xe24;&#xe45;" horiz-adv-x="838" 
d="M404 428c-12.667 6.66699 -28.833 12.001 -48.5 16.001s-41.167 6 -64.5 6c-62.667 0 -117 -12.333 -163 -37v-3l58 -69c8 -10 12 -22.333 12 -37c0 -8.66699 -0.333008 -15.667 -1 -21l-32 -189c-2.66699 -22 7.66602 -33 30.999 -33h71v-56
c-12 -4 -26.5 -7.5 -43.5 -10.5s-33.833 -4.5 -50.5 -4.5c-26.667 0 -47.667 7.5 -63 22.5s-23 36.167 -23 63.5c0 6.66699 0.333008 12 1 16l33 218l-65 80v55c73.333 54 154 81 242 81c58 0 103.667 -12 137 -36c52.667 24 106.334 36 161.001 36c52 0 93 -11.333 123 -34
s45 -53.334 45 -92.001v-597h-84v638c-26 7.33301 -57 11 -93 11c-34.667 0 -71 -5 -109 -15c6.66699 -15.333 10 -31.333 10 -48v-586h-84v625z" />
    <glyph glyph-name="lu_lakkhangyaothai" unicode="&#xe26;&#xe45;" horiz-adv-x="838" 
d="M416 428c-29.333 16 -66.002 23.999 -110.002 23.999c-30.667 0 -57.667 -3.16699 -81 -9.5s-45 -16.166 -65 -29.499v-3l63 -69c8.66699 -9.33301 13 -21.333 13 -36c0 -2.66699 -0.666992 -10 -2 -22l-28 -214c-2.66699 -24 -11.5 -43.167 -26.5 -57.5
s-36.833 -21.5 -65.5 -21.5c-12 0 -24.167 1.33301 -36.5 4s-22.833 6.33398 -31.5 11.001v55h48c12.667 0 21.5 1.83301 26.5 5.5s8.16699 9.83398 9.5 18.501l28 226l-70 80v55c34.667 25.333 69.834 45.166 105.501 59.499s75.5 21.5 119.5 21.5
c54.667 0 98.334 -10.667 131.001 -32c51.333 21.333 102 32 152 32c52 0 93 -11.333 123 -34s45 -53.334 45 -92.001v-597h-84v638c-26 7.33301 -57 11 -93 11c-30 0 -62.667 -4 -98 -12c7.33301 -15.333 11 -32.333 11 -51v-586h-84v625z" />
    <glyph glyph-name=".notdef" horiz-adv-x="600" 
d="M94 714h411v-714h-411v714zM454 51v612h-309v-612h309z" />
    <glyph glyph-name=".null" horiz-adv-x="500" 
 />
    <glyph glyph-name=".null" horiz-adv-x="500" 
 />
    <glyph glyph-name="nonmarkingreturn" unicode="&#xd;" horiz-adv-x="260" 
 />
    <glyph glyph-name="space" unicode=" " horiz-adv-x="300" 
 />
    <glyph glyph-name="exclam" unicode="!" horiz-adv-x="242" 
d="M76 426v190h90v-190l-8 -259h-74zM76 93h90v-93h-90v93z" />
    <glyph glyph-name="quotedbl" unicode="&#x22;" horiz-adv-x="317" 
d="M61 544c-1.33301 27.333 -0.333008 51.333 3 72h64c3.33301 -20.667 4.33301 -44.667 3 -72l-8 -121h-54zM186 544c-1.33301 27.333 -0.333008 51.333 3 72h64c3.33301 -20.667 4.33301 -44.667 3 -72l-8 -121h-54z" />
    <glyph glyph-name="numbersign" unicode="#" horiz-adv-x="684" 
d="M144 0l24 174h-108v74h118l18 130h-112v74h122l24 174l78 -3l-23 -171h142l24 174l78 -3l-23 -171h108v-74h-118l-17 -130h112v-74h-122l-24 -178l-80 4l24 174h-141l-24 -178zM399 248l18 130h-142l-17 -130h141z" />
    <glyph glyph-name="dollar" unicode="$" horiz-adv-x="516" 
d="M222 -7c-62.667 4 -120 19.999 -172 47.999l29 74c54 -28 114.667 -42 182 -42c40.667 0 76.667 3.66699 108 11c8 21.333 12 46.333 12 75c0 30 -9 52.833 -27 68.5s-50.333 29.167 -97 40.5c-62 14.667 -109.833 34.667 -143.5 60s-50.5 64 -50.5 116
c0 45.333 12.5 84.5 37.5 117.5s65.5 53.5 121.5 61.5v93h77v-91c32 -1.33301 59 -5.5 81 -12.5s43.667 -16.5 65 -28.5v-26c0 -28.667 -5.66699 -58.667 -17 -90h-61l-13 75c-32.667 4.66699 -62.334 7 -89.001 7c-42.667 0 -72.834 -7.83301 -90.501 -23.5
s-26.5 -40.834 -26.5 -75.501c0 -19.333 3.83301 -35.166 11.5 -47.499s20.834 -22.666 39.501 -30.999s45.334 -16.5 80.001 -24.5c65.333 -14.667 112.833 -34.667 142.5 -60s44.5 -62.333 44.5 -111c0 -48 -13 -88.667 -39 -122s-68.667 -53.333 -128 -60v-105h-77v103z
" />
    <glyph glyph-name="percent" unicode="%" horiz-adv-x="754" 
d="M167 13l366 599l59 -21l-370 -604zM70 451c0 103.333 42.667 155 128 155c80 0 120 -47.667 120 -143c0 -103.333 -42.667 -155 -128 -155c-80 0 -120 47.667 -120 143zM247 371c5.33301 23.333 8 51 8 83c0 26.667 -1.5 46.667 -4.5 60s-9 22.833 -18 28.5
s-22.833 8.5 -41.5 8.5c-20.667 0 -37.334 -2.66699 -50.001 -8c-5.33301 -23.333 -8 -51 -8 -83c0 -26.667 1.5 -46.667 4.5 -60s9 -22.833 18 -28.5s22.833 -8.5 41.5 -8.5c20.667 0 37.334 2.66699 50.001 8zM436 135c0 103.333 42.667 155 128 155
c80 0 120 -47.667 120 -143c0 -103.333 -42.667 -155 -128 -155c-80 0 -120 47.667 -120 143zM613 55c5.33301 23.333 8 51 8 83c0 26.667 -1.5 46.667 -4.5 60s-9 22.833 -18 28.5s-22.833 8.5 -41.5 8.5c-20.667 0 -37.334 -2.66699 -50.001 -8
c-5.33301 -23.333 -8 -51 -8 -83c0 -26.667 1.5 -46.667 4.5 -60s9 -22.833 18 -28.5s22.833 -8.5 41.5 -8.5c20.667 0 37.334 2.66699 50.001 8z" />
    <glyph glyph-name="ampersand" unicode="&#x26;" horiz-adv-x="673" 
d="M128 29c-40 30 -60.0049 73.001 -60.0049 129.001c0 46.667 11 83.667 33 111s55 49.666 99 66.999v8c-18 18 -31.333 35.833 -40 53.5s-13 37.167 -13 58.5c0 46.667 15.333 83.334 46 110.001s74.334 40 131.001 40c42 0 76.333 -6.33301 103 -19
s47.334 -29 62.001 -49v-37c0 -22.667 -4.33301 -45 -13 -67h-61l-9 86c-21.333 9.33301 -48.666 14 -81.999 14s-57.166 -6 -71.499 -18s-21.5 -31.667 -21.5 -59c0 -23.333 3.33301 -41.5 10 -54.5s18.667 -28.167 36 -45.5l165 -156c8 26 16 64.667 24 116l76 -17
c-7.33301 -37.333 -13.5 -66.333 -18.5 -87s-10.833 -41.334 -17.5 -62.001l117 -118l-61 -42l-70 78h-8c-7.33301 -23.333 -15.666 -42.333 -24.999 -57c-39.333 -18.667 -96.333 -28 -171 -28c-66.667 0 -120 15 -160 45zM399.995 71.001c8.66699 13.333 14.667 31 18 53
l-169 161c-33.333 -10 -57.833 -24.5 -73.5 -43.5s-23.5 -46.833 -23.5 -83.5c0 -66.667 46 -100 138 -100c46 0 82.667 4.33301 110 13z" />
    <glyph glyph-name="quotesingle" unicode="'" horiz-adv-x="232" 
d="M81 544c-1.33301 27.333 -0.333008 51.333 3 72h64c3.33301 -20.667 4.33301 -44.667 3 -72l-8 -121h-54z" />
    <glyph glyph-name="parenleft" unicode="(" horiz-adv-x="309" 
d="M104 -60c-17.333 18.667 -27 37.332 -29 55.999v624c2 18.667 11.667 37.334 29 56.001s37 31 59 37c29.333 0 54 -2 74 -6v-72h-78v-654h78v-72c-20 -4 -44.667 -6 -74 -6c-22 6 -41.667 18.333 -59 37z" />
    <glyph glyph-name="parenright" unicode=")" horiz-adv-x="309" 
d="M72 -91v72.002h78v654h-78v72c20 4 44.667 6 74 6c22 -6 41.667 -18.333 59 -37s27 -37.334 29 -56.001v-624c-2 -18.667 -11.667 -37.334 -29 -56.001s-37 -31 -59 -37c-29.333 0 -54 2 -74 6z" />
    <glyph glyph-name="asterisk" unicode="*" horiz-adv-x="454" 
d="M96 352l84 106l-2 6l-118 30l22 67l113 -49l5 4l-7 129h68l-7 -129l5 -4l113 49l22 -67l-118 -30l-2 -6l84 -106l-57 -41l-70 113h-8l-70 -113z" />
    <glyph glyph-name="plus" unicode="+" horiz-adv-x="540" 
d="M234 272h-184v66h184v174h72v-174h184v-66h-184v-190h-72v190z" />
    <glyph glyph-name="comma" unicode="," horiz-adv-x="238" 
d="M81 -88c22.667 42 34 81 34 117h-53v56c16 6 32.667 9 50 9c22.667 0 39.334 -6 50.001 -18s16 -30 16 -54c0 -20 -4.33301 -40.833 -13 -62.5s-20.334 -41.167 -35.001 -58.5z" />
    <glyph glyph-name="hyphen" unicode="-" horiz-adv-x="430" 
d="M75 314h280v-70h-280v70z" />
    <glyph glyph-name="period" unicode="." horiz-adv-x="246" 
d="M75 100h96v-100h-96v100z" />
    <glyph glyph-name="slash" unicode="/" horiz-adv-x="447" 
d="M58 -77l261 740l70 -17l-261 -741z" />
    <glyph glyph-name="zero" unicode="0" horiz-adv-x="609" 
d="M114.5 63c-39.667 48 -59.5 122.332 -59.5 222.999c0 72.667 8 132.167 24 178.5s42.833 81.5 80.5 105.5s88.5 36 152.5 36c85.333 0 147 -23.833 185 -71.5s57 -122.167 57 -223.5c0 -74 -8 -134.167 -24 -180.5s-42.833 -81.166 -80.5 -104.499s-88.5 -35 -152.5 -35
c-82 0 -142.833 24 -182.5 72zM380 73.999c22.667 3.33301 40.333 7.66602 53 12.999c23.333 62 35 130.333 35 205c0 58.667 -5 104.834 -15 138.501s-27.167 58.334 -51.5 74.001s-58.833 23.5 -103.5 23.5c-23.333 0 -46.5 -1.66699 -69.5 -5
s-40.833 -7.66602 -53.5 -12.999c-22.667 -58 -34 -126.333 -34 -205c0 -58.667 5 -104.834 15 -138.501s27.333 -58.334 52 -74.001s59 -23.5 103 -23.5c23.333 0 46.333 1.66699 69 5z" />
    <glyph glyph-name="one" unicode="1" horiz-adv-x="363" 
d="M189 508l-9 6l-117 -42l-23 58l152 76c14.667 0 32.167 -6 52.5 -18s30.5 -23 30.5 -33v-555h-86v508z" />
    <glyph glyph-name="two" unicode="2" horiz-adv-x="549" 
d="M53 101l18.999 12.998c71.333 48.667 127.333 88.667 168 120s74.334 63.833 101.001 97.5s40 67.5 40 101.5c0 36.667 -8.66699 62 -26 76s-45.666 21 -84.999 21c-40 0 -77.333 -5.66699 -112 -17v-94h-68c-11.333 30.667 -17 61 -17 91v52
c62 29.333 129.333 44 202 44c67.333 0 116.166 -13.833 146.499 -41.5s45.5 -69.834 45.5 -126.501c0 -47.333 -13.667 -90.666 -41 -129.999s-61 -74.666 -101 -105.999s-96 -70.666 -168 -117.999v-9h248v64h70c10.667 -26.667 16 -55 16 -85v-54h-438v101z" />
    <glyph glyph-name="three" unicode="3" horiz-adv-x="513" 
d="M46 15l14.001 75.0029c50.667 -16 108.667 -24 174 -24c41.333 0 78.666 3.33301 111.999 10c14 22 21 49.333 21 82c0 35.333 -9.66699 61 -29 77s-54 24 -104 24h-94v74h94c41.333 0 72.666 8.33301 93.999 25s32 40.667 32 72c0 67.333 -38.333 101 -115 101
c-36.667 0 -74 -4 -112 -12v-84h-68c-11.333 31.333 -17 61.666 -17 90.999v41c66 26 133.667 39 203 39c64.667 0 112.667 -14.5 144 -43.5s47 -69.833 47 -122.5c0 -36 -7.5 -64.667 -22.5 -86s-38.167 -39 -69.5 -53v-6c36.667 -13.333 62.334 -30.333 77.001 -51
s22 -49.334 22 -86.001c0 -54.667 -16.833 -96.334 -50.5 -125.001s-88.834 -43 -165.501 -43c-65.333 0 -127.666 8.33301 -186.999 25z" />
    <glyph glyph-name="four" unicode="4" horiz-adv-x="557" 
d="M348 110h-290l-22 77l283 419h110v-421h86v-75h-86v-110h-81v110zM348 185v191l7 142h-8l-218 -325l2 -8h217z" />
    <glyph glyph-name="five" unicode="5" horiz-adv-x="515" 
d="M147 -3.5c-29.333 4.33301 -60.334 11.167 -93.001 20.5l11 77c64 -18 124.333 -27 181 -27c44 0 82.667 4.66699 116 14c6.66699 16.667 11.5 32.667 14.5 48s4.5 34 4.5 56c0 41.333 -9.16699 70.333 -27.5 87s-47.5 25 -87.5 25c-25.333 0 -47.166 -2 -65.499 -6
s-40.5 -11 -66.5 -21l-65 51l21 285h335v-76h-256l-13 -176c42.667 13.333 81.667 20 117 20c63.333 0 111.5 -14.5 144.5 -43.5s49.5 -75.167 49.5 -138.5c0 -66.667 -18 -117 -54 -151s-93.667 -51 -173 -51c-32.667 0 -63.667 2.16699 -93 6.5z" />
    <glyph glyph-name="six" unicode="6" horiz-adv-x="510" 
d="M107.5 61.5c-35.667 41 -53.499 97.835 -53.499 170.502c0 79.333 18.5 148.666 55.5 207.999s93.833 114.666 170.5 165.999l74 -39c-62 -39.333 -109.333 -78 -142 -116s-54.334 -80.333 -65.001 -127c46.667 28.667 95.667 43 147 43c61.333 0 107 -15.5 137 -46.5
s45 -76.167 45 -135.5c0 -52.667 -16.667 -96.667 -50 -132s-85 -53 -155 -53c-73.333 0 -127.833 20.5 -163.5 61.5zM372.001 88.002c12.667 29.333 19.002 61.666 19.002 96.999c0 26.667 -2.83301 47.5 -8.5 62.5s-16.5 26.167 -32.5 33.5s-39 11 -69 11
c-48.667 0 -96.334 -12.333 -143.001 -37v-23c0 -55.333 10.667 -95.166 32 -119.499s56.666 -36.5 105.999 -36.5c36 0 68 4 96 12z" />
    <glyph glyph-name="seven" unicode="7" horiz-adv-x="529" 
d="M171 10c22.667 104 52.5 196.832 89.5 278.499s81.5 159.834 133.5 234.501v7h-261v-83h-68c-11.333 28.667 -17 59 -17 91v68h436v-89c-58 -90.667 -105 -176.5 -141 -257.5s-63.667 -167.5 -83 -259.5z" />
    <glyph glyph-name="eight" unicode="8" horiz-adv-x="555" 
d="M115 37c-36.667 30.667 -55.002 73.667 -55.002 129c0 26.667 3.33301 48.334 10 65.001s15 30 25 40s24.667 22.667 44 38v8c-22 16 -38.167 32.333 -48.5 49s-15.5 38.667 -15.5 66c0 53.333 18.833 95.666 56.5 126.999s91.834 47 162.501 47
c64 0 111.667 -15.167 143 -45.5s47 -73.166 47 -128.499c0 -30.667 -5.66699 -56 -17 -76s-28.666 -37.333 -51.999 -52v-8c29.333 -18 50 -36.833 62 -56.5s18 -45.834 18 -78.501c0 -113.333 -74.333 -170 -223 -170c-68 0 -120.333 15.333 -157 46zM389.998 348
c8 22 12 45.666 12 70.999c0 32.667 -3.5 56.834 -10.5 72.501s-19.5 26.334 -37.5 32.001s-45.333 8.5 -82 8.5c-41.333 0 -75 -4.66699 -101 -14c-5.33301 -14.667 -9 -27.834 -11 -39.501s-3 -25.167 -3 -40.5c0 -40 10.5 -66.833 31.5 -80.5s56.167 -20.5 105.5 -20.5
c42 0 74 3.66699 96 11zM400.998 81.999c7.33301 20 11.001 41.334 11.001 64.001c0 34.667 -4 60.667 -12 78s-21.833 29.5 -41.5 36.5s-48.5 10.5 -86.5 10.5c-47.333 0 -85 -4.33301 -113 -13c-6 -16 -10.167 -30.5 -12.5 -43.5s-3.5 -28.5 -3.5 -46.5
c0 -28.667 5.16699 -50.334 15.5 -65.001s26.166 -24.667 47.499 -30s51 -8 89 -8c44 0 79.333 5.66699 106 17z" />
    <glyph glyph-name="nine" unicode="9" horiz-adv-x="514" 
d="M160 39c55.333 36 98.6689 70.166 130.002 102.499s53.666 66.5 66.999 102.5c-44 -26.667 -89 -40 -135 -40c-57.333 0 -103 16.833 -137 50.5s-51 79.5 -51 137.5c0 38.667 7.66699 74.167 23 106.5s39.166 58.333 71.499 78s72.5 29.5 120.5 29.5
c70.667 0 123.5 -22.167 158.5 -66.5s52.5 -104.5 52.5 -180.5c0 -56 -7.83301 -104.667 -23.5 -146s-39.667 -78.666 -72 -111.999s-75.833 -67 -130.5 -101zM374.003 314.999c1.33301 18.667 2 33.333 2 44c0 114 -46 171 -138 171c-40 0 -72.333 -4 -97 -12
c-7.33301 -22.667 -12.833 -43.667 -16.5 -63s-5.5 -40.333 -5.5 -63c0 -38 9.16699 -66.333 27.5 -85s47.833 -28 88.5 -28c54 0 100.333 12 139 36z" />
    <glyph glyph-name="colon" unicode=":" horiz-adv-x="246" 
d="M75 435h96v-100h-96v100zM75 100h96v-100h-96v100z" />
    <glyph glyph-name="semicolon" unicode=";" horiz-adv-x="266" 
d="M78 435h96v-100h-96v100zM94 -39c22.667 42 34 81 34 117h-53v56c16 6 32.667 9 50 9c22.667 0 39.334 -6 50.001 -18s16 -30 16 -54c0 -20 -4.33301 -40.833 -13 -62.5s-20.334 -41.167 -35.001 -58.5z" />
    <glyph glyph-name="less" unicode="&#x3c;" horiz-adv-x="560" 
d="M55 210v78l409 183l21 -71l-353 -148v-6l353 -148l-21 -71z" />
    <glyph glyph-name="equal" unicode="=" horiz-adv-x="560" 
d="M70 380h420v-70h-420v70zM70 181h420v-71h-420v71z" />
    <glyph glyph-name="greater" unicode="&#x3e;" horiz-adv-x="560" 
d="M75 98l353 148v6l-353 148l21 71l409 -183v-78l-409 -183z" />
    <glyph glyph-name="question" unicode="?" horiz-adv-x="523" 
d="M190 220c0 14.667 1.66699 26.501 5 35.501s9.33301 16.833 18 23.5l162 122v65c0 30.667 -9.33301 52.5 -28 65.5s-48 19.5 -88 19.5c-49.333 0 -89 -4.66699 -119 -14v-75h-66c-9.33301 26.667 -14 53.667 -14 81v37c17.333 12 45.333 22.833 84 32.5
s77.667 14.5 117 14.5c132 0 198 -54.667 198 -164c0 -32 -4.33301 -58.333 -13 -79s-25 -39.667 -49 -57l-108 -78c-6 -4.66699 -10 -9.83398 -12 -15.501s-3 -14.167 -3 -25.5v-54h-84v66zM189 90.001h86v-90h-86v90z" />
    <glyph glyph-name="at" unicode="@" horiz-adv-x="780" 
d="M153 27c-58.667 57.333 -87.998 138.667 -87.998 244c0 60.667 12.667 116.5 38 167.5s63.5 91.833 114.5 122.5s113.167 46 186.5 46c65.333 0 121.666 -12.5 168.999 -37.5s83.333 -59.167 108 -102.5s37 -92 37 -146c0 -58.667 -13 -108.5 -39 -149.5
s-66.667 -61.5 -122 -61.5c-21.333 0 -39.666 3.83301 -54.999 11.5s-29.666 19.834 -42.999 36.501h-6c-14 -15.333 -29 -26.833 -45 -34.5s-34.667 -11.5 -56 -11.5c-34.667 0 -61.834 11.5 -81.501 34.5s-29.5 53.167 -29.5 90.5c0 31.333 5.16699 61.833 15.5 91.5
s26.333 54.167 48 73.5s48.5 29 80.5 29c19.333 0 35 -3.5 47 -10.5s23 -16.833 33 -29.5h4l14 28l61 -9l-42 -224c17.333 -10.667 39.666 -16 66.999 -16c24 0 42.333 1.66699 55 5c16.667 36.667 25 84.334 25 143.001c0 69.333 -20.833 124.666 -62.5 165.999
s-102.5 62 -182.5 62c-58 0 -107.333 -12.167 -148 -36.5s-71.167 -57.333 -91.5 -99s-30.5 -88.167 -30.5 -139.5c0 -179.333 94 -269 282 -269c46 0 85.5 4.66699 118.5 14s64.833 22.666 95.5 39.999l25 -53c-26 -18.667 -61.5 -33.667 -106.5 -45
s-90.167 -17 -135.5 -17c-114.667 0 -201.334 28.667 -260.001 86zM402.002 176.501c9.33301 3 18.001 8.16602 26.001 15.499l25 148c-7.33301 10.667 -15 18.5 -23 23.5s-17.333 7.5 -28 7.5c-26 0 -46.667 -12.667 -62 -38s-23 -56.666 -23 -93.999
c0 -22 4 -38.667 12 -50s21 -17 39 -17c13.333 0 24.666 1.5 33.999 4.5z" />
    <glyph glyph-name="A" unicode="A" horiz-adv-x="607" 
d="M35 7c27.333 102.667 58.501 208.667 93.501 318s68.833 206.333 101.5 291h147c32.667 -84.667 66.5 -181.667 101.5 -291s66.167 -215.333 93.5 -318l-91 -7c-18.667 74 -36.334 140.667 -53.001 200h-250c-20 -69.333 -37.333 -136 -52 -200zM406.001 275
c-34.667 117.333 -62 204 -82 260h-41c-24 -68 -51.667 -154.667 -83 -260h206z" />
    <glyph glyph-name="B" unicode="B" horiz-adv-x="545" 
d="M75 602c55.333 16 110.666 24 165.999 24c77.333 0 134.833 -14 172.5 -42s56.5 -72.333 56.5 -133c0 -30 -6.5 -56 -19.5 -78s-33.167 -40.667 -60.5 -56v-6c73.333 -22.667 110 -68.334 110 -137.001c0 -39.333 -7.66699 -71.666 -23 -96.999
s-41.666 -44.5 -78.999 -57.5s-88.333 -19.5 -153 -19.5h-170v602zM340 345c30.667 27.333 46 62.333 46 105c0 37.333 -11.5 63.333 -34.5 78s-60.167 22 -111.5 22c-27.333 0 -54.333 -2.66699 -81 -8v-197h181zM233 76c48 0 85 3 111 9s44.5 15.833 55.5 29.5
s16.5 32.5 16.5 56.5c0 66 -41 99 -123 99h-134v-194h74z" />
    <glyph glyph-name="C" unicode="C" horiz-adv-x="567" 
d="M119 67c-43.333 50 -64.9971 124 -64.9971 222c0 102.667 21.667 184.5 65 245.5s107.666 91.5 192.999 91.5c36 0 72.667 -4 110 -12s64.333 -17.667 81 -29v-56c0 -25.333 -4.33301 -48.333 -13 -69h-59l-10 79c-30 6 -66.667 9 -110 9
c-38.667 0 -78.334 -4.33301 -119.001 -13c-16.667 -30.667 -29.667 -67 -39 -109s-14 -85.667 -14 -131c0 -80 14 -137.5 42 -172.5s75 -52.5 141 -52.5c31.333 0 62.166 3.83301 92.499 11.5s54.166 18.167 71.499 31.5l39 -64c-21.333 -18 -50.166 -32 -86.499 -42
s-75.833 -15 -118.5 -15c-90.667 0 -157.667 25 -201 75z" />
    <glyph glyph-name="D" unicode="D" horiz-adv-x="585" 
d="M75 606c54.667 13.333 113.668 20 177.001 20c103.333 0 177 -26.667 221 -80s66 -130.333 66 -231c0 -71.333 -8.5 -129.5 -25.5 -174.5s-48.833 -79.667 -95.5 -104s-113.334 -36.5 -200.001 -36.5h-143v606zM219.001 78c82 0 148.667 7.33203 200 21.999
c10.667 23.333 19.167 53.333 25.5 90s9.5 75.334 9.5 116.001c0 56.667 -6 102.5 -18 137.5s-32.833 61.333 -62.5 79s-71.5 26.5 -125.5 26.5c-28 0 -57.333 -2 -88 -6v-465h59z" />
    <glyph glyph-name="E" unicode="E" horiz-adv-x="539" 
d="M131 14.5c-37.333 15 -56 41.167 -56 78.5v523h393v-77h-309v-194h280v-75h-280v-191c40 -6.66699 83.667 -10 131 -10c63.333 0 120 6 170 18l19 -74c-47.333 -14 -111.333 -21 -192 -21c-66.667 0 -118.667 7.5 -156 22.5z" />
    <glyph glyph-name="F" unicode="F" horiz-adv-x="516" 
d="M75 616h401v-77h-316v-194h265v-75h-265v-270h-85v616z" />
    <glyph glyph-name="G" unicode="G" horiz-adv-x="598" 
d="M124 68c-46.667 50.667 -69.999 124.332 -69.999 220.999c0 106.667 23 189.5 69 248.5s115.333 88.5 208 88.5c40.667 0 79.5 -4 116.5 -12s64.167 -17.667 81.5 -29v-56c0 -25.333 -4.33301 -48.333 -13 -69h-59l-10 79
c-11.333 2.66699 -28.166 4.83398 -50.499 6.50098s-44.5 2.5 -66.5 2.5c-50 0 -93.667 -4 -131 -12c-18 -32 -32.5 -69.333 -43.5 -112s-16.5 -85.667 -16.5 -129c0 -78 16.167 -135 48.5 -171s82.166 -54 149.499 -54c47.333 0 87 4 119 12v175h-144v75h187l41 -34v-164
c0 -27.333 -9.33301 -51.833 -28 -73.5s-44.5 -38.5 -77.5 -50.5s-69.833 -18 -110.5 -18c-86.667 0 -153.334 25.333 -200.001 76z" />
    <glyph glyph-name="H" unicode="H" horiz-adv-x="600" 
d="M75 616h85v-278h280v278h85v-616h-85v260h-280v-260h-85v616z" />
    <glyph glyph-name="I" unicode="I" horiz-adv-x="241" 
d="M78 616h85v-616h-85v616z" />
    <glyph glyph-name="J" unicode="J" horiz-adv-x="423" 
d="M96 -1c-25.333 4.66699 -47.333 11 -66 19l19 73c40.667 -15.333 81.667 -23 123 -23c36.667 0 65.667 6 87 18c4.66699 14 7 32.333 7 55v475h84v-479c0 -46 -16.333 -81.667 -49 -107s-76 -38 -130 -38c-24.667 0 -49.667 2.33301 -75 7z" />
    <glyph glyph-name="K" unicode="K" horiz-adv-x="600" 
d="M457 2c-11.333 6.66699 -20.333 17.668 -27 33.001l-74 169c-12 27.333 -26.167 47.166 -42.5 59.499s-40.833 18.5 -73.5 18.5h-80v-282h-85v616h85v-257h75c32.667 0 57.667 6 75 18s30.666 29 39.999 51l83 194l82 -32l-83 -185
c-9.33301 -21.333 -20.166 -38.5 -32.499 -51.5s-29.833 -23.167 -52.5 -30.5v-6c23.333 -6.66699 41 -15.667 53 -27s23 -28.333 33 -51l84 -181l50 -9v-48c-18.667 -6 -40.667 -9 -66 -9c-18 0 -32.667 3.33301 -44 10z" />
    <glyph glyph-name="L" unicode="L" horiz-adv-x="457" 
d="M75 616h85v-538h273v-78h-358v616z" />
    <glyph glyph-name="M" unicode="M" horiz-adv-x="694" 
d="M92 616h95l156 -348h8l156 348h95l24 -616h-86l-12 318v149l-8 2l-139 -288h-68l-139 288l-8 -2v-149l-12 -318h-86z" />
    <glyph glyph-name="N" unicode="N" horiz-adv-x="625" 
d="M75 616h96l295 -487l8 2l-10 157v328h86v-616h-96l-295 487l-8 -2l10 -157v-328h-86v616z" />
    <glyph glyph-name="O" unicode="O" horiz-adv-x="621" 
d="M116 69c-42.667 51.333 -64 126.999 -64 226.999c0 112.667 20.5 195.834 61.5 249.501s109.167 80.5 204.5 80.5c85.333 0 148.5 -25.5 189.5 -76.5s61.5 -127.167 61.5 -228.5c0 -112.667 -20.5 -195.667 -61.5 -249s-109.167 -80 -204.5 -80
c-82 0 -144.333 25.667 -187 77zM384 74.999c22 3.33301 39.333 7.66504 52 12.998c32 70.667 48 142 48 214c0 86.667 -13.5 149.334 -40.5 188.001s-73.5 58 -139.5 58c-23.333 0 -46.666 -1.66699 -69.999 -5s-41.333 -7.66602 -54 -12.999
c-28.667 -62 -43 -133.667 -43 -215c0 -86 13.667 -148.333 41 -187s73.666 -58 138.999 -58c22.667 0 45 1.66699 67 5z" />
    <glyph glyph-name="P" unicode="P" horiz-adv-x="527" 
d="M75 600c60 17.333 117.667 26 173 26c79.333 0 140.333 -17.333 183 -52s64 -86.667 64 -156c0 -75.333 -21.167 -131 -63.5 -167s-108.833 -54 -199.5 -54h-72v-197h-85v600zM222 273c70 0 121.332 4.33301 153.999 13c22 30 33 73 33 129
c0 48 -14.167 82.333 -42.5 103s-68.166 31 -119.499 31c-36.667 0 -65.667 -2.66699 -87 -8v-268h62z" />
    <glyph glyph-name="Q" unicode="Q" horiz-adv-x="623" 
d="M291 -130c-33.333 4.66699 -56.666 10.332 -69.999 16.999v51l20 68c-62 11.333 -109 41.666 -141 90.999s-48 117.333 -48 204c0 112.667 20.5 195 61.5 247s109.167 78 204.5 78c85.333 0 148.5 -24.667 189.5 -74s61.5 -124.666 61.5 -225.999
c0 -110.667 -19.667 -192.167 -59 -244.5s-105 -79.166 -197 -80.499h-9v-66c19.333 -4 44.666 -6 75.999 -6c58 0 106.333 4.33301 145 13l15 -63c-36.667 -10.667 -89.667 -16 -159 -16c-26.667 0 -56.667 2.33301 -90 7zM384 83.998
c22 3.33301 39.332 7.66602 51.999 12.999c32 70.667 48 140.667 48 210c0 57.333 -5.83301 103.5 -17.5 138.5s-30.5 60.833 -56.5 77.5s-61.333 25 -106 25c-23.333 0 -46.666 -1.66699 -69.999 -5s-41.333 -7.66602 -54 -12.999c-13.333 -28.667 -23.833 -61 -31.5 -97
s-11.5 -73.667 -11.5 -113c0 -57.333 5.83301 -103.5 17.5 -138.5s30.5 -60.833 56.5 -77.5s61.333 -25 106 -25c22.667 0 45 1.66699 67 5z" />
    <glyph glyph-name="R" unicode="R" horiz-adv-x="586" 
d="M447 2c-11.333 6.66699 -20.3311 17.666 -26.998 32.999l-58 135c-8.66699 20 -16.5 35 -23.5 45s-16.833 17.833 -29.5 23.5s-30.334 8.5 -53.001 8.5h-96v-247h-85v600c60 17.333 117.667 26 173 26c77.333 0 135.166 -14.667 173.499 -44s57.5 -75.666 57.5 -138.999
c0 -78.667 -33 -134 -99 -166v-9c14 -6.66699 25.5 -15 34.5 -25s17.167 -22.667 24.5 -38l68 -147l50 -9v-48c-18.667 -6 -40.667 -9 -66 -9c-18 0 -32.667 3.33301 -44 10zM329.002 322.999c22 12.667 38.167 27.833 48.5 45.5s15.5 41.5 15.5 71.5
c0 40.667 -11.5 69 -34.5 85s-60.167 24 -111.5 24c-36.667 0 -65.667 -2.66699 -87 -8v-218h169z" />
    <glyph glyph-name="S" unicode="S" horiz-adv-x="518" 
d="M50 41l29.0029 73.999c54 -28 114.667 -42 182 -42c40.667 0 76.667 3.66699 108 11c8 21.333 12 46.333 12 75c0 30 -9 52.833 -27 68.5s-50.333 29.167 -97 40.5c-62 14.667 -109.833 34.667 -143.5 60s-50.5 64 -50.5 116s16.167 95.333 48.5 130
s85.166 52 158.499 52c40.667 0 74.167 -3.5 100.5 -10.5s51.166 -17.5 74.499 -31.5v-36c0 -28.667 -5.66699 -58.667 -17 -90h-61l-13 85c-32.667 4.66699 -62.334 7 -89.001 7c-42.667 0 -72.834 -7.83301 -90.501 -23.5s-26.5 -40.834 -26.5 -75.501
c0 -19.333 3.83301 -35.166 11.5 -47.499s20.834 -22.666 39.501 -30.999s45.334 -16.5 80.001 -24.5c65.333 -14.667 112.833 -34.667 142.5 -60s44.5 -62.333 44.5 -111c0 -54 -16.5 -98.333 -49.5 -133s-87.5 -52 -163.5 -52c-74.667 0 -142.334 16.333 -203.001 49z" />
    <glyph glyph-name="T" unicode="T" horiz-adv-x="553" 
d="M234 538h-198v78h481v-78h-198v-538h-85v538z" />
    <glyph glyph-name="U" unicode="U" horiz-adv-x="609" 
d="M129.5 37.5c-37.667 30.333 -56.499 75.833 -56.499 136.5v442h85v-427c0 -45.333 11 -76.5 33 -93.5s59 -25.5 111 -25.5c32 0 61.167 2 87.5 6s46.833 9.33301 61.5 16v524h85v-488c0 -49.333 -21.333 -84.333 -64 -105s-101.667 -31 -177 -31
c-72.667 0 -127.834 15.167 -165.501 45.5z" />
    <glyph glyph-name="V" unicode="V" horiz-adv-x="591" 
d="M127.5 291c-36.333 112 -67.498 220.667 -93.498 326l91 7c22 -94.667 48.667 -193.834 80 -297.501s59.666 -185.5 84.999 -245.5h11c25.333 60 53.666 141.833 84.999 245.5s58 202.834 80 297.501l91 -7c-26 -105.333 -57.167 -214 -93.5 -326
s-72.833 -209 -109.5 -291h-117c-36.667 82 -73.167 179 -109.5 291z" />
    <glyph glyph-name="W" unicode="W" horiz-adv-x="833" 
d="M36 609l91.9971 9.00098c16.667 -94.667 33.834 -180.834 51.501 -258.501l60.5 -253.5h8l68 204l65 198c-7.33301 29.333 -14.333 60.666 -21 93.999l85 9c16.667 -78 33.667 -148 51 -210l64 -221l22 -74h11l60.5 253.5c17.667 77.667 34.834 163.834 51.501 258.501
l92 -9c-22.667 -102 -46.5 -200.667 -71.5 -296s-53.833 -199.666 -86.5 -312.999h-104l-20 60c-40 119.333 -71.333 218.666 -94 297.999h-14l-18 -55l-15 -46c-42 -126 -71.333 -211.667 -88 -257h-93c-65.333 226.667 -117.666 429.667 -156.999 609z" />
    <glyph glyph-name="X" unicode="X" horiz-adv-x="618" 
d="M42 12c44 80 106.669 177.001 188.002 291.001c-76.667 114 -138 214 -184 300l93 18c41.333 -81.333 94.666 -173.333 159.999 -276h17c37.333 52.667 69.5 99.834 96.5 141.501s52.833 86.5 77.5 134.5l86 -17c-40 -74.667 -103.333 -172 -190 -292
c77.333 -118 136.666 -218 177.999 -300l-90 -20c-22 45.333 -45 88.666 -69 129.999l-89 148h-17l-15 -22l-89.5 -137c-23 -36.667 -45.167 -76.334 -66.5 -119.001z" />
    <glyph glyph-name="Y" unicode="Y" horiz-adv-x="615" 
d="M265 211h-21.002c-46 62 -85.167 122.667 -117.5 182s-65.166 128.333 -98.499 207l85 21c26 -64.667 54.667 -126.834 86 -186.501s62.333 -111.834 93 -156.501h31c30.667 44.667 61.667 96.834 93 156.501s60 121.834 86 186.501l85 -21
c-33.333 -78.667 -66.166 -147.667 -98.499 -207s-71.5 -120 -117.5 -182h-21v-211h-85v211z" />
    <glyph glyph-name="Z" unicode="Z" horiz-adv-x="563" 
d="M50 82l346 445v13h-245v-64h-74c-11.333 31.333 -17 61.666 -17 90.999v49h441v-82l-347 -443v-16h270v65h74c11.333 -31.333 17 -61.666 17 -90.999v-49h-465v82z" />
    <glyph glyph-name="bracketleft" unicode="[" horiz-adv-x="291" 
d="M75 707h144v-72h-62v-648h62v-72h-144v792z" />
    <glyph glyph-name="backslash" unicode="\" horiz-adv-x="429" 
d="M58 619l70 17l243 -638l-70 -18z" />
    <glyph glyph-name="bracketright" unicode="]" horiz-adv-x="291" 
d="M72 -13h62v648h-62v72h144v-792h-144v72z" />
    <glyph glyph-name="asciicircum" unicode="^" horiz-adv-x="575" 
d="M68 299l183 317h74l182 -317l-66 -29l-150 269h-6l-150 -269z" />
    <glyph glyph-name="underscore" unicode="_" horiz-adv-x="570" 
d="M60 0h450v-55h-450v55z" />
    <glyph glyph-name="grave" unicode="`" horiz-adv-x="323" 
d="M25 892l106 11l83 -145l-64 -10z" />
    <glyph glyph-name="a" unicode="a" horiz-adv-x="474" 
d="M75.5 24.5c-23.667 21.667 -35.5 51.168 -35.5 88.501c0 50.667 19.333 88.334 58 113.001s92 37 160 37c22 0 44 -1 66 -3v62c0 36 -7.33301 60.5 -22 73.5s-40.667 19.5 -78 19.5c-22.667 0 -44.667 -1.33301 -66 -4l-10 -75h-61
c-8.66699 23.333 -13 45.666 -13 66.999v25c20 12.667 47.167 24.167 81.5 34.5s65.833 15.5 94.5 15.5c50 0 88.5 -12.833 115.5 -38.5s40.5 -61.834 40.5 -108.501v-331h-73l-4 66h-8c-16.667 -23.333 -37.5 -41.5 -62.5 -54.5s-51.5 -19.5 -79.5 -19.5
c-45.333 0 -79.833 10.833 -103.5 32.5zM267 75.001c24 12.667 43.667 30.668 59 54.001v74c-23.333 5.33301 -54 8 -92 8c-42 0 -72.667 -2.66699 -92 -8c-6 -14.667 -10.167 -27.834 -12.5 -39.501s-3.5 -25.5 -3.5 -41.5c0 -24 5.5 -41 16.5 -51s26.833 -15 47.5 -15
c27.333 0 53 6.33301 77 19z" />
    <glyph glyph-name="b" unicode="b" horiz-adv-x="530" 
d="M74 18l-0.00195312 653.002h82v-203l-3 -65h6c20.667 21.333 43.834 39.166 69.501 53.499s51.834 21.5 78.501 21.5c61.333 0 105.5 -21.5 132.5 -64.5s40.5 -98.5 40.5 -166.5c0 -82.667 -20.167 -145.834 -60.5 -189.501s-98.833 -65.5 -175.5 -65.5
c-53.333 0 -110 8.66699 -170 26zM330.998 79.002c21.333 11.333 37.168 30.167 47.501 56.5s15.5 62.5 15.5 108.5c0 57.333 -8.5 99 -25.5 125s-45.833 39 -86.5 39c-23.333 0 -46 -5.83301 -68 -17.5s-41.333 -28.5 -58 -50.5v-268c10.667 -2.66699 24.667 -5 42 -7
s33.333 -3 48 -3c35.333 0 63.666 5.66699 84.999 17z" />
    <glyph glyph-name="c" unicode="c" horiz-adv-x="451" 
d="M95 52.5c-32 40.333 -47.9961 96.832 -47.9961 169.499c0 79.333 17.333 141.833 52 187.5s86 68.5 154 68.5c28.667 0 56.167 -3.83301 82.5 -11.5s47.833 -17.5 64.5 -29.5v-36c0 -29.333 -4.33301 -55.666 -13 -78.999h-59l-8 74c-21.333 6 -45.333 9 -72 9
c-18 0 -36 -1.16699 -54 -3.5s-32.333 -5.5 -43 -9.5c-6.66699 -17.333 -12.334 -42.5 -17.001 -75.5s-7 -64.5 -7 -94.5c0 -53.333 10.167 -92.833 30.5 -118.5s55.833 -38.5 106.5 -38.5c49.333 0 90.666 14.333 123.999 43l37 -57
c-22.667 -19.333 -46.834 -34 -72.501 -44s-55.834 -15 -90.501 -15c-79.333 0 -135 20.167 -167 60.5z" />
    <glyph glyph-name="d" unicode="d" horiz-adv-x="530" 
d="M92 54c-28 41.333 -42.001 101.668 -42.001 181.001c0 69.333 13.667 127.166 41 173.499s71.333 69.5 132 69.5c28 0 55 -5.83301 81 -17.5s48.333 -27.167 67 -46.5h6l-3 65v192h82v-671h-73l-4 64h-8c-17.333 -22 -37.166 -39.5 -59.499 -52.5
s-49.5 -19.5 -81.5 -19.5c-64 0 -110 20.667 -138 62zM327.499 84.502c20.333 15 35.833 33.166 46.5 54.499v212c-34 38 -76 57 -126 57c-40 0 -68.667 -14.667 -86 -44s-26 -73.333 -26 -132c0 -41.333 3.33301 -74.166 10 -98.499s18.5 -42.333 35.5 -54
s41.167 -17.5 72.5 -17.5c28.667 0 53.167 7.5 73.5 22.5z" />
    <glyph glyph-name="e" unicode="e" horiz-adv-x="488" 
d="M50 231c0 77.333 18.499 137.834 55.499 181.501s89.833 65.5 158.5 65.5c58.667 0 102.5 -16.833 131.5 -50.5s43.5 -79.834 43.5 -138.501c0 -13.333 -0.333008 -23.333 -1 -30l-60 -59l-249 4c1.33301 -46.667 13.333 -82.167 36 -106.5s56 -36.5 100 -36.5
c30 0 55.833 3.83301 77.5 11.5s43.834 19.167 66.501 34.5l26 -63c-26.667 -16.667 -53 -29.5 -79 -38.5s-58 -13.5 -96 -13.5c-140 0 -210 79.667 -210 239zM357.999 266.001c4 18 5.99902 34.333 5.99902 49c0 29.333 -8.66699 52.333 -26 69s-43.666 25 -78.999 25
c-48 0 -81.5 -11.5 -100.5 -34.5s-29.167 -60.5 -30.5 -112.5z" />
    <glyph glyph-name="f" unicode="f" horiz-adv-x="343" 
d="M94 404l-64.001 -0.000976562l10 66h54v82c0 24 8.66699 46.5 26 67.5s36.333 36.833 57 47.5c20.667 4.66699 42.667 7 66 7c34 0 66.333 -8 97 -24l-22 -68c-15.333 6.66699 -28.666 11.5 -39.999 14.5s-24 4.5 -38 4.5c-23.333 0 -43 -3 -59 -9
c-4.66699 -13.333 -7 -31.666 -7 -54.999v-67h116l-10 -66h-106v-404h-80v404z" />
    <glyph glyph-name="g" unicode="g" horiz-adv-x="514" 
d="M155 -185.5c-30.667 7.66699 -55.668 17.5 -75.001 29.5l23 63c19.333 -10 41.5 -18 66.5 -24s49.167 -9 72.5 -9c26.667 0 49.5 1.83301 68.5 5.5s37.167 9.5 54.5 17.5v115l3 66h-8c-19.333 -22 -41.166 -39.833 -65.499 -53.5s-50.166 -20.5 -77.499 -20.5
c-60 0 -102.833 20.833 -128.5 62.5s-38.5 93.5 -38.5 155.5c0 82 13 145.167 39 189.5s72.667 66.5 140 66.5c61.333 0 105.333 -27 132 -81h7l6 73h70v-518c0 -48.667 -17.5 -85.667 -52.5 -111s-82.167 -38 -141.5 -38c-32.667 0 -64.334 3.83301 -95.001 11.5z
M304.999 90.5c21.333 11.667 40.333 28.499 57 50.499v201c-34.667 45.333 -75.667 68 -123 68c-41.333 0 -69.166 -14.333 -83.499 -43s-21.5 -73.667 -21.5 -135c0 -55.333 8.33301 -95.666 25 -120.999s43 -38 79 -38c23.333 0 45.666 5.83301 66.999 17.5z" />
    <glyph glyph-name="h" unicode="h" horiz-adv-x="526" 
d="M74 671h81.999v-203l-3 -70h6c21.333 25.333 45 45 71 59s56.333 21 91 21c46.667 0 80.834 -10.167 102.501 -30.5s32.5 -54.833 32.5 -103.5v-344h-82v397c-20.667 6 -43 9 -67 9c-34.667 0 -64 -5.33301 -88 -16s-45 -26.667 -63 -48v-342h-82v671z" />
    <glyph glyph-name="i" unicode="i" horiz-adv-x="232" 
d="M73 654h86v-100h-86v100zM76 470h80v-470h-80v470z" />
    <glyph glyph-name="j" unicode="j" horiz-adv-x="274" 
d="M118 654h86v-100h-86v100zM-34 -182l19 70c16 -5.33301 29.667 -8.83301 41 -10.5s24.333 -2.5 39 -2.5c18 0 34.333 2.33301 49 7c4.66699 13.333 7 32.333 7 57v531h80v-535c0 -42 -12.333 -74.667 -37 -98s-58 -35 -100 -35c-35.333 0 -68 5.33301 -98 16z" />
    <glyph glyph-name="k" unicode="k" horiz-adv-x="507" 
d="M378.5 0.5c-9.66699 5.66699 -17.5 15.166 -23.5 28.499l-43 100c-12.667 28.667 -27.167 50 -43.5 64s-40.5 21 -72.5 21h-46v-214h-80v671h80v-394h41c31.333 0 55 6.66699 71 20s29.333 32 40 56l53 125l79 -29l-51 -119c-8.66699 -20.667 -19.5 -37.667 -32.5 -51
s-31.167 -23.666 -54.5 -30.999v-6c23.333 -6.66699 41.166 -15.667 53.499 -27s23.5 -28.333 33.5 -51l50 -114l39 -9v-41c-19.333 -5.33301 -37.666 -8 -54.999 -8c-16 0 -28.833 2.83301 -38.5 8.5z" />
    <glyph glyph-name="l" unicode="l" horiz-adv-x="283" 
d="M130 12.5c-14.667 11 -27.334 23.333 -38.001 37s-16 25.5 -16 35.5v586h80v-576c0 -16 1.33301 -27.333 4 -34h13l57 29l35 -45c-10 -14 -24.167 -26.167 -42.5 -36.5s-37.166 -15.833 -56.499 -16.5c-9.33301 2.66699 -21.333 9.5 -36 20.5z" />
    <glyph glyph-name="m" unicode="m" horiz-adv-x="812" 
d="M74 470h69.0059l8 -68h8c20.667 23.333 44.167 41.833 70.5 55.5s54.166 20.5 83.499 20.5c37.333 0 66.333 -5.33301 87 -16s34.667 -30.667 42 -60h8c20 23.333 43.667 41.833 71 55.5s55.666 20.5 84.999 20.5c31.333 0 56.666 -3.5 75.999 -10.5
s34.166 -20.333 44.499 -40s15.5 -47.5 15.5 -83.5v-344h-82v397c-20.667 6 -43.334 9 -68.001 9c-60 0 -107.667 -19.333 -143 -58v-348h-82v397c-20.667 6 -43.334 9 -68.001 9c-59.333 0 -107 -20 -143 -60v-346h-82v470z" />
    <glyph glyph-name="n" unicode="n" horiz-adv-x="526" 
d="M74 470h70.999l6 -72h8c21.333 25.333 45 45 71 59s56.333 21 91 21c46.667 0 80.834 -10.167 102.501 -30.5s32.5 -54.833 32.5 -103.5v-344h-82v397c-20.667 6 -43 9 -67 9c-34.667 0 -64 -5.33301 -88 -16s-45 -26.667 -63 -48v-342h-82v470z" />
    <glyph glyph-name="o" unicode="o" horiz-adv-x="517" 
d="M95.5 54c-30.333 41.333 -45.5 100.333 -45.5 177c0 166 73.333 249 220 249c131.333 0 197 -83 197 -249c0 -79.333 -17.333 -139 -52 -179s-90.667 -60 -168 -60c-70.667 0 -121.167 20.667 -151.5 62zM364 79c14.667 30.667 22 75.999 22 135.999
c0 47.333 -3.5 84.5 -10.5 111.5s-20.333 47.167 -40 60.5s-49.167 20 -88.5 20c-38 0 -69.333 -5.33301 -94 -16c-14.667 -31.333 -22 -80 -22 -146c0 -46.667 3.33301 -82.667 10 -108s20 -44.166 40 -56.499s49.667 -18.5 89 -18.5c36.667 0 68 5.66699 94 17z" />
    <glyph glyph-name="p" unicode="p" horiz-adv-x="530" 
d="M74 470l73 -0.00195312l4 -64h8c41.333 48 90 72 146 72c62 0 106.667 -20.667 134 -62s41 -101.666 41 -180.999c0 -69.333 -13.667 -127.166 -41 -173.499s-71.333 -69.5 -132 -69.5c-28 0 -55 5.83301 -81 17.5s-48.333 27.167 -67 46.5h-6l3 -65v-178h-82v657z
M368 105.998c17.333 29.333 26 73.334 26 132.001c0 41.333 -3.33301 74.166 -10 98.499s-18.5 42.333 -35.5 54s-41.167 17.5 -72.5 17.5c-28.667 0 -53.167 -7.5 -73.5 -22.5s-35.833 -33.167 -46.5 -54.5v-212c34 -38 76 -57 126 -57c40 0 68.667 14.667 86 44z" />
    <glyph glyph-name="q" unicode="q" horiz-adv-x="530" 
d="M369 3l3 60.998h-6c-20.667 -23.333 -42 -41.166 -64 -53.499s-48.333 -18.5 -79 -18.5c-61.333 0 -105.5 21.667 -132.5 65s-40.5 99 -40.5 167c0 82.667 20.167 145.834 60.5 189.501s98.833 65.5 175.5 65.5c50 0 105 -8.66699 165 -26v-640h-82v190zM369 130.998
l-0.000976562 267.998c-26.667 6.66699 -55 10 -85 10c-35.333 0 -63.666 -5.66699 -84.999 -17s-37.166 -30.166 -47.499 -56.499s-15.5 -62.5 -15.5 -108.5c0 -57.333 8.66699 -99.166 26 -125.499s46 -39.5 86 -39.5c45.333 0 85.666 23 120.999 69z" />
    <glyph glyph-name="r" unicode="r" horiz-adv-x="374" 
d="M74 468l69 0.000976562l6 -92h10c14 30 35.333 53.833 64 71.5s57 26.5 85 26.5c5.33301 0 12 -2.83301 20 -8.5s13.333 -10.834 16 -15.501l-9 -67h-46c-33.333 0 -62 -7.33301 -86 -22s-39.667 -36.667 -47 -66v-295h-82v468z" />
    <glyph glyph-name="s" unicode="s" horiz-adv-x="430" 
d="M44 31l24 64.999c43.333 -24.667 92 -37 146 -37c30.667 0 58.334 2.66699 83.001 8c6 16 9 33.667 9 53c0 17.333 -2 30.333 -6 39s-12.667 16.167 -26 22.5s-34.333 12.5 -63 18.5c-54.667 11.333 -95.834 27 -123.501 47s-41.5 50.333 -41.5 91
c0 24.667 6.33301 47.667 19 69s32.167 38.5 58.5 51.5s58.833 19.5 97.5 19.5c56.667 0 104 -10.667 142 -32v-31c0 -24 -4.33301 -47 -13 -69h-59l-8 65c-21.333 2.66699 -43.333 4 -66 4c-34 0 -58 -4.66699 -72 -14s-21 -26 -21 -50
c0 -21.333 7.16699 -38.166 21.5 -50.499s41.833 -22.833 82.5 -31.5c38 -8 67.833 -16.833 89.5 -26.5s38.167 -23 49.5 -40s17 -39.833 17 -68.5c0 -40 -14.5 -73.667 -43.5 -101s-73.167 -41 -132.5 -41c-64 0 -118.667 13 -164 39z" />
    <glyph glyph-name="t" unicode="t" horiz-adv-x="381" 
d="M183 1c-22 11.333 -40.666 25.334 -55.999 42.001s-23 36 -23 58v303h-84l10 66h74v126h78v-126h158l-10 -66h-148v-288c0 -14 3 -28 9 -42c16 -6 32.333 -9 49 -9c10.667 0 24.5 2 41.5 6s32.833 9 47.5 15l22 -67c-13.333 -6.66699 -29.333 -12.834 -48 -18.501
s-35.334 -8.5 -50.001 -8.5c-24.667 0 -48 3 -70 9z" />
    <glyph glyph-name="u" unicode="u" horiz-adv-x="520" 
d="M100 22.5c-21.333 20.333 -32 54.833 -32 103.5v344h82v-397c20.667 -6 42.667 -9 66 -9c62 0 111.333 21.333 148 64v342h82v-470h-71l-6 72h-8c-22.667 -25.333 -46.667 -45 -72 -59s-54.333 -21 -87 -21c-46.667 0 -80.667 10.167 -102 30.5z" />
    <glyph glyph-name="v" unicode="v" horiz-adv-x="468" 
d="M98.5 224c-25 74.667 -49.167 155.667 -72.5 243l81 7c44 -168.667 85.333 -301 124 -397h7c40.667 104.667 82.667 237 126 397l78 -7c-45.333 -160.667 -100 -316.334 -164 -467.001h-92c-33.333 74.667 -62.5 149.334 -87.5 224.001z" />
    <glyph glyph-name="w" unicode="w" horiz-adv-x="713" 
d="M37 467l80.001 7l56 -237c14 -56.667 29 -108.667 45 -156h6c43.333 107.333 77.333 205 102 293c-4.66699 19.333 -11 48.333 -19 87l74 7c32.667 -155.333 68.334 -286.333 107.001 -393h6c33.333 90 72.666 223.667 117.999 401l77 -9
c-26.667 -96.667 -51.5 -181.5 -74.5 -254.5s-47.833 -143.833 -74.5 -212.5h-96c-30 74 -58.667 159.667 -86 257h-4c-12.667 -38 -27.334 -79.833 -44.001 -125.5l-34 -92.5l-15 -39h-87c-54 148 -99.667 303.667 -137 467z" />
    <glyph glyph-name="x" unicode="x" horiz-adv-x="486" 
d="M28 7c32 59.333 79.999 134.001 143.999 224.001c-60.667 91.333 -107.667 168 -141 230l85 14c34 -67.333 73.667 -136.333 119 -207h14c28.667 40.667 52.834 76.334 72.501 107.001s38.5 64 56.5 100l80 -13c-32 -58.667 -80.667 -133.334 -146 -224.001
c61.333 -95.333 107 -172.333 137 -231l-83 -15c-16.667 34 -33.834 66.5 -51.501 97.5l-66.5 111.5h-13c-30.667 -45.333 -55.167 -82.833 -73.5 -112.5s-36.166 -61.834 -53.499 -96.501z" />
    <glyph glyph-name="y" unicode="y" horiz-adv-x="496" 
d="M53 -178l-0.00292969 31c0 21.333 3.33301 42.333 10 63h59v-44c9.33301 -2 21 -3 35 -3c6.66699 0 18.667 1.33301 36 4c16.667 39.333 35.334 88.666 56.001 147.999h-64c-36.667 88 -67 166 -91 234s-45.333 139 -64 213l81 7c34.667 -140 75.334 -268 122.001 -384
h39c36.667 113.333 71.667 241.333 105 384l83 -7c-27.333 -112.667 -56.833 -219.167 -88.5 -319.5s-63.167 -187.166 -94.5 -260.499c-10.667 -25.333 -29.5 -45.833 -56.5 -61.5s-53.5 -23.5 -79.5 -23.5c-33.333 0 -62.666 6.33301 -87.999 19z" />
    <glyph glyph-name="z" unicode="z" horiz-adv-x="449" 
d="M46 72l255 324v10h-166l-8 -61h-59c-8.66699 23.333 -13 46.333 -13 69v56h338v-72l-256 -322v-12h188l8 61h59c8.66699 -23.333 13 -46.333 13 -69v-56h-359v72z" />
    <glyph glyph-name="braceleft" unicode="{" horiz-adv-x="417" 
d="M218 -81c-30 27.333 -45 73.668 -45 139.001c0 12 0.333008 21.333 1 28l4 79c4 80 -35.333 120 -118 120v62c82.667 0 122 40 118 120l-4 69c-0.666992 6.66699 -1 16 -1 28c0 65.333 15 111.666 45 138.999s79.667 41 149 41v-73c-52.667 0 -88.667 -4 -108 -12
c-4.66699 -16.667 -7 -42.667 -7 -78c0 -20 0.333008 -35.667 1 -47l4 -80c4 -72 -26.667 -117.333 -92 -136v-4c65.333 -18.667 96 -64 92 -136l-4 -90c-0.666992 -11.333 -1 -27 -1 -47c0 -35.333 2.33301 -61.333 7 -78c19.333 -8 55.333 -12 108 -12v-73
c-69.333 0 -119 13.667 -149 41z" />
    <glyph glyph-name="bar" unicode="|" horiz-adv-x="239" 
d="M82 626h75v-766h-75v766z" />
    <glyph glyph-name="braceright" unicode="}" horiz-adv-x="417" 
d="M50 -49c52.667 0 88.667 3.99805 108 11.998c4.66699 16.667 7 42.667 7 78c0 20 -0.333008 35.667 -1 47l-4 90c-4 72 26.667 117.333 92 136v4c-65.333 18.667 -96 64 -92 136l4 80c0.666992 11.333 1 27 1 47c0 35.333 -2.33301 61.333 -7 78
c-19.333 8 -55.333 12 -108 12v73c69.333 0 119 -13.667 149 -41s45 -73.666 45 -138.999c0 -12 -0.333008 -21.333 -1 -28l-4 -69c-4 -80 35.333 -120 118 -120v-62c-82.667 0 -122 -40 -118 -120l4 -79c0.666992 -6.66699 1 -16 1 -28
c0 -65.333 -15 -111.666 -45 -138.999s-79.667 -41 -149 -41v73z" />
    <glyph glyph-name="asciitilde" unicode="~" horiz-adv-x="452" 
d="M50 231c5.33301 76.667 39.332 115.001 101.999 115.001c16.667 0 31.334 -2.33301 44.001 -7s26.667 -11.334 42 -20.001c12.667 -6.66699 22.667 -11.5 30 -14.5s15.333 -4.5 24 -4.5c12.667 0 23 4.5 31 13.5s12.667 22.167 14 39.5l65 -10
c-5.33301 -76.667 -39.333 -115 -102 -115c-18 0 -34 2.5 -48 7.5s-30 12.167 -48 21.5c-8 4.66699 -15.833 8.66699 -23.5 12s-14.5 5 -20.5 5c-12.667 0 -23 -4.5 -31 -13.5s-12.667 -22.167 -14 -39.5z" />
    <glyph glyph-name="uni00A0" unicode="&#xa0;" horiz-adv-x="260" 
 />
    <glyph glyph-name="exclamdown" unicode="&#xa1;" horiz-adv-x="242" 
d="M76 616h90v-93h-90v93zM76 190l8 259h74l8 -259v-190h-90v190z" />
    <glyph glyph-name="cent" unicode="&#xa2;" horiz-adv-x="451" 
d="M220 -7c-62.667 7.33301 -106.668 30.835 -132.001 70.502s-38 92.5 -38 158.5c0 72 14.167 129 42.5 171s71.5 66.333 129.5 73v150h67v-150c45.333 -6 82.333 -19 111 -39v-31c0 -22.667 -4.33301 -45.667 -13 -69h-59l-10 59c-21.333 6 -44.666 9 -69.999 9
c-18 0 -36 -1.16699 -54 -3.5s-32.333 -5.5 -43 -9.5c-6.66699 -16.667 -11.834 -39.834 -15.501 -69.501s-5.5 -59.834 -5.5 -90.501c0 -54 9.66699 -94 29 -120s54.333 -39 105 -39c49.333 0 90.666 14.333 123.999 43l37 -57
c-19.333 -16.667 -39.666 -29.667 -60.999 -39s-45.666 -15.333 -72.999 -18v-136h-71v137z" />
    <glyph glyph-name="sterling" unicode="&#xa3;" horiz-adv-x="553" 
d="M50 4l-0.00390625 53.999l65 13v177h-64v61h64v123c0 58.667 16.5 104 49.5 136s83.833 48 152.5 48c34.667 0 63.834 -2 87.501 -6s48.5 -10.667 74.5 -20l-19 -69c-24.667 6.66699 -47.167 11.334 -67.5 14.001s-44.5 4 -72.5 4c-23.333 0 -43.166 -0.5 -59.499 -1.5
s-33.833 -3.5 -52.5 -7.5c-6 -23.333 -9 -57.333 -9 -102v-119h205v-61h-205v-176c42 -3.33301 80 -5 114 -5c58 0 123 3.33301 195 10v-73c-73.333 -7.33301 -146.666 -11 -219.999 -11c-79.333 0 -158.666 3.66699 -237.999 11z" />
    <glyph glyph-name="currency" unicode="&#xa4;" horiz-adv-x="572" 
d="M64 116l64 65c-11.333 18 -19.833 35.833 -25.5 53.5s-8.5 36.5 -8.5 56.5s2.83301 38.667 8.5 56s14.167 35 25.5 53l-65 67l49 47l65 -63c34 22.667 71 34 111 34s77 -11.333 111 -34l65 63l49 -47l-65 -67c11.333 -18 19.833 -35.667 25.5 -53s8.5 -36 8.5 -56
s-2.83301 -38.833 -8.5 -56.5s-14.167 -35.5 -25.5 -53.5l64 -65l-48 -47l-65 63c-32.667 -22.667 -69.667 -34 -111 -34s-78.333 11.333 -111 34l-65 -63zM377.5 200.5c23 22.333 34.5 52.5 34.5 90.5c0 37.333 -11.167 67.666 -33.5 90.999s-52.5 35 -90.5 35
s-68.167 -11.667 -90.5 -35s-33.5 -53.666 -33.5 -90.999c0 -38 11.5 -68.167 34.5 -90.5s52.833 -33.5 89.5 -33.5s66.5 11.167 89.5 33.5z" />
    <glyph glyph-name="yen" unicode="&#xa5;" horiz-adv-x="627" 
d="M271 83l-114.002 0.00195312v59h114v58h-114v59h67c-40.667 61.333 -74.667 116.666 -102 165.999s-56 107.666 -86 174.999l83 21c46.667 -105.333 106.334 -217.666 179.001 -336.999h31c72.667 119.333 132.334 231.666 179.001 336.999l83 -21
c-30 -66 -58.5 -123.5 -85.5 -172.5s-61.167 -105.167 -102.5 -168.5h67v-59h-114v-58h114v-59h-114v-83h-85v83z" />
    <glyph glyph-name="brokenbar" unicode="&#xa6;" horiz-adv-x="239" 
d="M82 626h75v-322h-75v322zM82 212h75v-322h-75v322z" />
    <glyph glyph-name="section" unicode="&#xa7;" horiz-adv-x="555" 
d="M173.5 -121c-22.333 4 -48.499 11.334 -78.499 22.001l24 65c24 -8 45.667 -13.5 65 -16.5s42.666 -4.5 69.999 -4.5c32.667 0 63.334 3.33301 92.001 10c6.66699 22.667 10 41.667 10 57c0 17.333 -3 30.5 -9 39.5s-16.5 16.5 -31.5 22.5s-39.167 13 -72.5 21
c-60.667 14 -106 31.833 -136 53.5s-45 54.167 -45 97.5c0 52 26 93 78 123v6c-15.333 13.333 -26.833 27.666 -34.5 42.999s-11.5 33 -11.5 53c0 26.667 6.83301 51.5 20.5 74.5s34.834 41.667 63.501 56s64 21.5 106 21.5c35.333 0 65.166 -3 89.499 -9
s46.166 -14.667 65.499 -26v-27c0 -25.333 -4.66699 -50.333 -14 -75h-63l-12 64c-24 2.66699 -47 4 -69 4c-37.333 0 -63.833 -5 -79.5 -15s-23.5 -28 -23.5 -54c0 -18.667 4 -33.5 12 -44.5s20.833 -20 38.5 -27s43.167 -14.167 76.5 -21.5c43.333 -10 78 -20 104 -30
s46.5 -24.333 61.5 -43s22.5 -43.334 22.5 -74.001c0 -57.333 -28 -99.666 -84 -126.999v-6c20.667 -20.667 31 -49 31 -85c0 -43.333 -15.833 -79.833 -47.5 -109.5s-79.5 -44.5 -143.5 -44.5c-28 0 -53.167 2 -75.5 6zM398.501 187.001
c6.33301 12.667 9.50098 27 9.50098 43c0 17.333 -3.66699 31 -11 41s-19.333 18.333 -36 25s-41.334 13.334 -74.001 20.001c-43.333 8.66699 -77.333 16.667 -102 24c-25.333 -16.667 -38 -43.334 -38 -80.001c0 -23.333 7.83301 -41.5 23.5 -54.5
s45.834 -24.5 90.501 -34.5c49.333 -11.333 86.666 -18.333 111.999 -21c10.667 12 19.167 24.333 25.5 37z" />
    <glyph glyph-name="dieresis" unicode="&#xa8;" horiz-adv-x="370" 
d="M72.5 480.5c-8.33301 7.66699 -12.5 18.167 -12.5 31.5c0 14 4.16699 24.833 12.5 32.5s19.5 11.5 33.5 11.5c14.667 0 26 -3.83301 34 -11.5s12 -18.5 12 -32.5c0 -13.333 -4 -23.833 -12 -31.5s-19.333 -11.5 -34 -11.5c-14 0 -25.167 3.83301 -33.5 11.5zM229.5 480.5
c-8.33301 7.66699 -12.5 18.167 -12.5 31.5c0 14 4.16699 24.833 12.5 32.5s19.833 11.5 34.5 11.5s26 -3.83301 34 -11.5s12 -18.5 12 -32.5c0 -13.333 -4 -23.833 -12 -31.5s-19.333 -11.5 -34 -11.5s-26.167 3.83301 -34.5 11.5z" />
    <glyph glyph-name="copyright" unicode="&#xa9;" horiz-adv-x="736" 
d="M207 40c-46.667 26.667 -82.834 63.334 -108.501 110.001s-38.5 99.334 -38.5 158.001s12.833 111.334 38.5 158.001s61.834 83.334 108.501 110.001s100.334 40 161.001 40s114.334 -13.333 161.001 -40s82.834 -63.334 108.501 -110.001s38.5 -99.334 38.5 -158.001
s-12.833 -111.334 -38.5 -158.001s-61.834 -83.334 -108.501 -110.001s-100.334 -40 -161.001 -40s-114.334 13.333 -161.001 40zM507.5 76c39.667 22 70.167 53 91.5 93s32 86.333 32 139s-10.667 99 -32 139s-51.833 71 -91.5 93s-86.167 33 -139.5 33
s-99.833 -11 -139.5 -33s-70.167 -53 -91.5 -93s-32 -86.333 -32 -139s10.667 -99 32 -139s51.833 -71 91.5 -93s86.167 -33 139.5 -33s99.833 11 139.5 33zM250.5 167.5c-26.333 30.333 -39.4971 74.1689 -39.4971 131.502c0 58 13.833 104.167 41.5 138.5
s65.5 51.5 113.5 51.5c21.333 0 43.166 -2.33301 65.499 -7s38.166 -10.334 47.499 -17.001v-21c0 -8 -0.833008 -17.333 -2.5 -28s-3.5 -18.667 -5.5 -24h-43l-6 35c-25.333 3.33301 -45 5 -59 5c-22.667 0 -43.334 -1.66699 -62.001 -5c-20 -33.333 -30 -76.333 -30 -129
c0 -43.333 7.16699 -74 21.5 -92s39.833 -27 76.5 -27c19.333 0 38.333 2.33301 57 7s33 11 43 19l23 -50c-13.333 -10.667 -31 -18.834 -53 -24.501s-45.333 -8.5 -70 -8.5c-52.667 0 -92.167 15.167 -118.5 45.5z" />
    <glyph glyph-name="ordfeminine" unicode="&#xaa;" horiz-adv-x="357" 
d="M70 288.5c-18 15.667 -26.999 36.832 -26.999 63.499c0 37.333 14.333 65.333 43 84s67.667 28 117 28c17.333 0 30.666 -0.666992 39.999 -2v41c0 20.667 -4.33301 35.167 -13 43.5s-23.667 12.5 -45 12.5s-40.333 -1.66699 -57 -5l-8 -44h-43
c-6.66699 18.667 -10 35.334 -10 50.001v24c16.667 9.33301 37 17 61 23s46.667 9 68 9c36.667 0 65.167 -9.33301 85.5 -28s30.5 -44.667 30.5 -78v-240h-61l-3 44h-6c-24 -32.667 -56.333 -49 -97 -49c-32 0 -57 7.83301 -75 23.5zM205.001 332.998
c14 6.66699 27.667 17 41 31v41c-16 2.66699 -36.333 4 -61 4s-46 -2 -64 -6c-5.33301 -14 -8 -27.333 -8 -40c0 -26.667 14.667 -40 44 -40c18 0 34 3.33301 48 10z" />
    <glyph glyph-name="guillemotleft" unicode="&#xab;" horiz-adv-x="454" 
d="M48 251l130 178l61 -29l-108 -146v-6l108 -146l-61 -29zM208 251l130 178l61 -29l-108 -146v-6l108 -146l-61 -29z" />
    <glyph glyph-name="logicalnot" unicode="&#xac;" horiz-adv-x="460" 
d="M335 277h-285v71h360v-205h-75v134z" />
    <glyph glyph-name="uni00AD" unicode="&#xad;" horiz-adv-x="382" 
d="M75 297h232v-74h-232v74z" />
    <glyph glyph-name="registered" unicode="&#xae;" horiz-adv-x="736" 
d="M207 40c-46.667 26.667 -82.834 63.334 -108.501 110.001s-38.5 99.334 -38.5 158.001s12.833 111.334 38.5 158.001s61.834 83.334 108.501 110.001s100.334 40 161.001 40s114.334 -13.333 161.001 -40s82.834 -63.334 108.501 -110.001s38.5 -99.334 38.5 -158.001
s-12.833 -111.334 -38.5 -158.001s-61.834 -83.334 -108.501 -110.001s-100.334 -40 -161.001 -40s-114.334 13.333 -161.001 40zM507.5 76c39.667 22 70.167 53 91.5 93s32 86.333 32 139s-10.667 99 -32 139s-51.833 71 -91.5 93s-86.167 33 -139.5 33
s-99.833 -11 -139.5 -33s-70.167 -53 -91.5 -93s-32 -86.333 -32 -139s10.667 -99 32 -139s51.833 -71 91.5 -93s86.167 -33 139.5 -33s99.833 11 139.5 33zM460 140c-8 4.66699 -14.333 12.334 -19 23.001l-31 71c-7.33301 16 -15.5 27.333 -24.5 34s-22.833 10 -41.5 10
h-42v-142h-54v350c36.667 10.667 70.667 16 102 16c90 0 135 -36 135 -108c0 -46 -19.667 -79 -59 -99v-4c14 -6.66699 26 -19.334 36 -38.001l38 -81l21 -5v-29c-12 -3.33301 -22.333 -5 -31 -5c-12 0 -22 2.33301 -30 7zM332 330c38 0 63.832 4.16797 77.499 12.501
s20.5 25.166 20.5 50.499c0 21.333 -6.16699 36.333 -18.5 45s-33.166 13 -62.499 13c-18 0 -33.667 -1.33301 -47 -4v-117h30z" />
    <glyph glyph-name="macron" unicode="&#xaf;" horiz-adv-x="406" 
d="M50 586h306v-70h-306v70z" />
    <glyph glyph-name="degree" unicode="&#xb0;" horiz-adv-x="401" 
d="M45 446c0 54.667 15.667 96.667 47 126s76.333 44 135 44c104.667 0 157 -55 157 -165c0 -54.667 -15.667 -96.667 -47 -126s-76.333 -44 -135 -44c-104.667 0 -157 55 -157 165zM298 358c8 26 12 54.333 12 85c0 30 -3.33301 52.667 -10 68s-16.834 25.5 -30.501 30.5
s-32.834 7.5 -57.501 7.5c-29.333 0 -56.333 -3.33301 -81 -10c-8 -26 -12 -54.333 -12 -85c0 -30 3.33301 -52.667 10 -68s16.834 -25.5 30.501 -30.5s32.834 -7.5 57.501 -7.5c29.333 0 56.333 3.33301 81 10z" />
    <glyph glyph-name="plusminus" unicode="&#xb1;" horiz-adv-x="590" 
d="M257 306h-182v66h182v175h76v-175h182v-66h-182v-189h-76v189zM85 61h430v-61h-430v61z" />
    <glyph glyph-name="uni00B2" unicode="&#xb2;" horiz-adv-x="327" 
d="M35 423c45.333 28 79.333 49.835 102 65.502s40.834 31.667 54.501 48s20.5 33.166 20.5 50.499c0 16.667 -3.66699 28.167 -11 34.5s-20.333 9.5 -39 9.5c-16.667 0 -33 -2 -49 -6v-38h-56c-2.66699 8 -5 17.833 -7 29.5s-3 22.167 -3 31.5v22
c38 17.333 78.333 26 121 26c76.667 0 115 -35.333 115 -106c0 -26 -8.16699 -49.833 -24.5 -71.5s-35.833 -40.834 -58.5 -57.501s-54.334 -37.667 -95.001 -63v-5h120v32h59c5.33301 -18 8 -38.333 8 -61v-30h-257v89z" />
    <glyph glyph-name="uni00B3" unicode="&#xb3;" horiz-adv-x="306" 
d="M26 345l7.99609 60.001c32.667 -8.66699 67.334 -13 104.001 -13c20.667 0 39.334 1.33301 56.001 4c4 11.333 6 23.666 6 36.999c0 16.667 -5.66699 28.5 -17 35.5s-28.666 10.5 -51.999 10.5h-49v60h49c22 0 38.167 4.33301 48.5 13s15.5 21.667 15.5 39
c0 15.333 -4.16699 26.5 -12.5 33.5s-21.166 10.5 -38.499 10.5c-16.667 0 -33.334 -1.33301 -50.001 -4v-35h-56c-6.66699 16.667 -10 35 -10 55v23c36.667 15.333 76.667 23 120 23c38.667 0 68 -8.83301 88 -26.5s30 -41.834 30 -72.501
c0 -20.667 -4.66699 -37.667 -14 -51s-23.666 -24.666 -42.999 -33.999v-3c22 -8.66699 37.833 -19.5 47.5 -32.5s14.5 -29.833 14.5 -50.5c0 -31.333 -10.5 -55.333 -31.5 -72s-55.167 -25 -102.5 -25c-40 0 -77 5 -111 15z" />
    <glyph glyph-name="acute" unicode="&#xb4;" horiz-adv-x="323" 
d="M55 758l83 145l106 -11l-125 -144z" />
    <glyph glyph-name="uni00B5" unicode="&#xb5;" horiz-adv-x="522" 
d="M74 470h82v-395c22 -7.33301 46.333 -11 73 -11c32 0 58.833 5.33301 80.5 16s41.834 26.667 60.501 48v342h82v-470h-71l-6 72h-8c-16.667 -19.333 -30.834 -34.333 -42.501 -45s-25.5 -19.167 -41.5 -25.5s-35 -9.5 -57 -9.5c-25.333 0 -46 7 -62 21h-8v-226h-82v683z
" />
    <glyph glyph-name="paragraph" unicode="&#xb6;" horiz-adv-x="655" 
d="M276 247h-14c-64 0 -112.833 15.5 -146.5 46.5s-50.5 75.833 -50.5 134.5c0 61.333 17.167 108 51.5 140s82.833 48 145.5 48h237v-736h-74v679h-76v-679h-73v367z" />
    <glyph glyph-name="periodcentered" unicode="&#xb7;" horiz-adv-x="351" 
d="M134 227.5c-11.333 11 -17 24.833 -17 41.5c0 16 5.83301 29.667 17.5 41s25.5 17 41.5 17s29.833 -5.66699 41.5 -17s17.5 -25 17.5 -41c0 -16.667 -5.66699 -30.5 -17 -41.5s-25.333 -16.5 -42 -16.5s-30.667 5.5 -42 16.5z" />
    <glyph glyph-name="cedilla" unicode="&#xb8;" horiz-adv-x="321" 
d="M85 -199l16.999 49c8.66699 -3.33301 19.334 -6 32.001 -8s23.667 -3 33 -3c18 0 33.667 1.33301 47 4c2.66699 8 4 16.667 4 26c0 20 -15 30 -45 30c-16 0 -29.333 -2.66699 -40 -8l-43 43l64 77l56 -11l-42 -59c10 4.66699 23 7 39 7c52.667 0 79 -25.333 79 -76
c0 -29.333 -9 -51.333 -27 -66s-46.333 -22 -85 -22c-35.333 0 -65 5.66699 -89 17z" />
    <glyph glyph-name="uni00B9" unicode="&#xb9;" horiz-adv-x="228" 
d="M109 618l-6 4l-62 -22l-18 46l89 50c12.667 -0.666992 27.167 -4.66699 43.5 -12s24.5 -15 24.5 -23v-329h-71v286z" />
    <glyph glyph-name="ordmasculine" unicode="&#xba;" horiz-adv-x="375" 
d="M75 311.5c-22 31 -33 73.167 -33 126.5c0 57.333 12.333 100.5 37 129.5s64.667 43.5 120 43.5c45.333 0 79 -15.5 101 -46.5s33 -73.167 33 -126.5c0 -57.333 -12.333 -100.5 -37 -129.5s-64.667 -43.5 -120 -43.5c-45.333 0 -79 15.5 -101 46.5zM250 334
c8.66699 21.333 13 52.666 13 93.999c0 31.333 -2.16699 55.833 -6.5 73.5s-12 30.334 -23 38.001s-27.167 11.5 -48.5 11.5c-22 0 -42 -3 -60 -9c-8.66699 -21.333 -13 -52.666 -13 -93.999c0 -31.333 2.16699 -55.833 6.5 -73.5s12 -30.334 23 -38.001
s27.167 -11.5 48.5 -11.5c22 0 42 3 60 9z" />
    <glyph glyph-name="guillemotright" unicode="&#xbb;" horiz-adv-x="454" 
d="M55 102l108 146v6l-108 146l61 29l130 -178l-130 -178zM215 102l108 146v6l-108 146l61 29l130 -178l-130 -178z" />
    <glyph glyph-name="onequarter" unicode="&#xbc;" horiz-adv-x="790" 
d="M155 13l381 610l64 -17l-381 -611zM136 537l-5 4l-58 -22l-18 51l89 50c12.667 -0.666992 27.167 -4.66699 43.5 -12s24.5 -15 24.5 -23v-329h-76v281zM614 60h-147l-24 58l167 239h76v-238h47v-59h-47v-60h-72v60zM616 119v35c0 37.333 3 79 9 125h-5l-96 -155l2 -5h90z
" />
    <glyph glyph-name="onehalf" unicode="&#xbd;" horiz-adv-x="790" 
d="M155 13l381 610l64 -17l-381 -611zM136 537l-5 4l-58 -22l-18 51l89 50c12.667 -0.666992 27.167 -4.66699 43.5 -12s24.5 -15 24.5 -23v-329h-76v281zM515 89c45.333 28 79.333 49.835 102 65.502s40.834 31.667 54.501 48s20.5 33.166 20.5 50.499
c0 16.667 -3.66699 28.167 -11 34.5s-20.333 9.5 -39 9.5c-16.667 0 -33 -2 -49 -6v-38h-56c-2.66699 8 -5 17.833 -7 29.5s-3 22.167 -3 31.5v22c38 17.333 78.333 26 121 26c76.667 0 115 -35.333 115 -106c0 -26 -8.16699 -49.833 -24.5 -71.5
s-35.833 -40.834 -58.5 -57.501s-54.334 -37.667 -95.001 -63v-5h120v32h59c5.33301 -18 8 -38.333 8 -61v-30h-257v89z" />
    <glyph glyph-name="threequarters" unicode="&#xbe;" horiz-adv-x="815" 
d="M208 13l381 610l64 -17l-381 -611zM58 264l7.99609 60.001c32.667 -8.66699 67.334 -13 104.001 -13c20.667 0 39.334 1.33301 56.001 4c4 11.333 6 23.666 6 36.999c0 16.667 -5.66699 28.5 -17 35.5s-28.666 10.5 -51.999 10.5h-49v60h49c22 0 38.167 4.33301 48.5 13
s15.5 21.667 15.5 39c0 15.333 -4.16699 26.5 -12.5 33.5s-21.166 10.5 -38.499 10.5c-16.667 0 -33.334 -1.33301 -50.001 -4v-35h-56c-6.66699 16.667 -10 35 -10 55v23c36.667 15.333 76.667 23 120 23c38.667 0 68 -8.83301 88 -26.5s30 -41.834 30 -72.501
c0 -20.667 -4.66699 -37.667 -14 -51s-23.666 -24.666 -42.999 -33.999v-3c22 -8.66699 37.833 -19.5 47.5 -32.5s14.5 -29.833 14.5 -50.5c0 -31.333 -10.5 -55.333 -31.5 -72s-55.167 -25 -102.5 -25c-40 0 -77 5 -111 15zM638.996 60.001h-147l-24 58l167 239h76v-238h47
v-59h-47v-60h-72v60zM640.996 119.001v35c0 37.333 3 79 9 125h-5l-96 -155l2 -5h90z" />
    <glyph glyph-name="questiondown" unicode="&#xbf;" horiz-adv-x="523" 
d="M244 517h86v-90h-86v90zM60 54c0 32 4.33301 58.332 13 78.999s25 39.667 49 57l108 78c6 4.66699 10 9.83398 12 15.501s3 14.167 3 25.5v54h84v-66c0 -14.667 -1.66699 -26.5 -5 -35.5s-9.33301 -16.833 -18 -23.5l-162 -122v-65c0 -30.667 9.33301 -52.5 28 -65.5
s48 -19.5 88 -19.5c49.333 0 89 4.66699 119 14v75h66c7.33301 -24 12 -51 14 -81v-37c-17.333 -12 -45.333 -22.833 -84 -32.5s-77.667 -14.5 -117 -14.5c-132 0 -198 54.667 -198 164z" />
    <glyph glyph-name="Agrave" unicode="&#xc0;" horiz-adv-x="607" 
d="M153 829l106 11l83 -145l-64 -10zM35 7c27.333 102.667 58.501 208.667 93.501 318s68.833 206.333 101.5 291h147c32.667 -84.667 66.5 -181.667 101.5 -291s66.167 -215.333 93.5 -318l-91 -7c-18.667 74 -36.334 140.667 -53.001 200h-250
c-20 -69.333 -37.333 -136 -52 -200zM406.001 275c-34.667 117.333 -62 204 -82 260h-41c-24 -68 -51.667 -154.667 -83 -260h206z" />
    <glyph glyph-name="Aacute" unicode="&#xc1;" horiz-adv-x="607" 
d="M269 696l83 145l106 -11l-125 -144zM35 7c27.333 102.667 58.501 208.667 93.501 318s68.833 206.333 101.5 291h147c32.667 -84.667 66.5 -181.667 101.5 -291s66.167 -215.333 93.5 -318l-91 -7c-18.667 74 -36.334 140.667 -53.001 200h-250
c-20 -69.333 -37.333 -136 -52 -200zM406.001 275c-34.667 117.333 -62 204 -82 260h-41c-24 -68 -51.667 -154.667 -83 -260h206z" />
    <glyph glyph-name="Acircumflex" unicode="&#xc2;" horiz-adv-x="607" 
d="M166 696l100 133h75l99 -133l-53 -11l-81 75h-5l-84 -75zM35 7c27.333 102.667 58.501 208.667 93.501 318s68.833 206.333 101.5 291h147c32.667 -84.667 66.5 -181.667 101.5 -291s66.167 -215.333 93.5 -318l-91 -7c-18.667 74 -36.334 140.667 -53.001 200h-250
c-20 -69.333 -37.333 -136 -52 -200zM406.001 275c-34.667 117.333 -62 204 -82 260h-41c-24 -68 -51.667 -154.667 -83 -260h206z" />
    <glyph glyph-name="Atilde" unicode="&#xc3;" horiz-adv-x="607" 
d="M152 705c2 32.667 9.66602 56.834 22.999 72.501s33.666 23.5 60.999 23.5c10 0 20 -2 30 -6s21.333 -9.66699 34 -17c20.667 -12 35.667 -18 45 -18c23.333 0 36.666 15 39.999 45l55 -18c-2 -32.667 -9.66699 -56.834 -23 -72.501s-33.666 -23.5 -60.999 -23.5
c-11.333 0 -21.666 2 -30.999 6s-20 9.66699 -32 17c-10 6 -18.333 10.5 -25 13.5s-13.667 4.5 -21 4.5c-23.333 0 -36.666 -15 -39.999 -45zM34.999 7c27.333 102.667 58.501 208.667 93.501 318s68.833 206.333 101.5 291h147c32.667 -84.667 66.5 -181.667 101.5 -291
s66.167 -215.333 93.5 -318l-91 -7c-18.667 74 -36.334 140.667 -53.001 200h-250c-20 -69.333 -37.333 -136 -52 -200zM406 275c-34.667 117.333 -62 204 -82 260h-41c-24 -68 -51.667 -154.667 -83 -260h206z" />
    <glyph glyph-name="Adieresis" unicode="&#xc4;" horiz-adv-x="607" 
d="M190.5 702.5c-8.33301 7.66699 -12.5 18.167 -12.5 31.5c0 14 4.16699 24.833 12.5 32.5s19.5 11.5 33.5 11.5c14.667 0 26 -3.83301 34 -11.5s12 -18.5 12 -32.5c0 -13.333 -4 -23.833 -12 -31.5s-19.333 -11.5 -34 -11.5c-14 0 -25.167 3.83301 -33.5 11.5z
M347.5 702.5c-8.33301 7.66699 -12.5 18.167 -12.5 31.5c0 14 4.16699 24.833 12.5 32.5s19.833 11.5 34.5 11.5s26 -3.83301 34 -11.5s12 -18.5 12 -32.5c0 -13.333 -4 -23.833 -12 -31.5s-19.333 -11.5 -34 -11.5s-26.167 3.83301 -34.5 11.5zM35 7
c27.333 102.667 58.501 208.667 93.501 318s68.833 206.333 101.5 291h147c32.667 -84.667 66.5 -181.667 101.5 -291s66.167 -215.333 93.5 -318l-91 -7c-18.667 74 -36.334 140.667 -53.001 200h-250c-20 -69.333 -37.333 -136 -52 -200zM406.001 275
c-34.667 117.333 -62 204 -82 260h-41c-24 -68 -51.667 -154.667 -83 -260h206z" />
    <glyph glyph-name="Aring" unicode="&#xc5;" horiz-adv-x="607" 
d="M217 713c-19.333 16 -29 38.668 -29 68.001c0 27.333 10.667 50.166 32 68.499s51 27.5 89 27.5c33.333 0 59.833 -8.66699 79.5 -26s29.5 -41 29.5 -71c0 -26 -11 -47.667 -33 -65s-51.333 -26 -88 -26c-34 0 -60.667 8 -80 24zM356 743.001c3.33301 12 5 24 5 36
c0 13.333 -4.83301 24.833 -14.5 34.5s-22.5 14.5 -38.5 14.5c-26 0 -45.333 -1.66699 -58 -5c-3.33301 -11.333 -5 -25 -5 -41c0 -13.333 4.83301 -24 14.5 -32s22.5 -12 38.5 -12c28 0 47.333 1.66699 58 5zM35 7.00098c27.333 102.667 58.501 208.667 93.501 318
s68.833 206.333 101.5 291h147c32.667 -84.667 66.5 -181.667 101.5 -291s66.167 -215.333 93.5 -318l-91 -7c-18.667 74 -36.334 140.667 -53.001 200h-250c-20 -69.333 -37.333 -136 -52 -200zM406.001 275.001c-34.667 117.333 -62 204 -82 260h-41
c-24 -68 -51.667 -154.667 -83 -260h206z" />
    <glyph glyph-name="AE" unicode="&#xc6;" horiz-adv-x="922" 
d="M514 12.5c-37.333 15 -56 41.167 -56 78.5v109h-257l-101 -200l-80 26c88.667 183.333 193 380 313 590h518v-77h-309v-194h280v-75h-280v-193c40 -6.66699 83.667 -10 131 -10c63.333 0 120 6 170 18l19 -74c-47.333 -14 -111.333 -21 -192 -21
c-66.667 0 -118.667 7.5 -156 22.5zM458 275v260h-76c-36 -61.333 -83.333 -148 -142 -260h218z" />
    <glyph glyph-name="Ccedilla" unicode="&#xc7;" horiz-adv-x="567" 
d="M216 -199l17.0029 48.999c8.66699 -3.33301 19.334 -6 32.001 -8s23.667 -3 33 -3c18 0 33.667 1.33301 47 4c2.66699 8 4 16.667 4 26c0 20 -15 30 -45 30c-16 0 -29.333 -2.66699 -40 -8l-43 43l50 61c-73.333 8.66699 -127.833 37.5 -163.5 86.5
s-53.5 118.167 -53.5 207.5c0 102.667 21.667 184.5 65 245.5s107.666 91.5 192.999 91.5c36 0 72.667 -4 110 -12s64.333 -17.667 81 -29v-56c0 -25.333 -4.33301 -48.333 -13 -69h-59l-10 79c-30 6 -66.667 9 -110 9c-38.667 0 -78.334 -4.33301 -119.001 -13
c-16.667 -30.667 -29.667 -67 -39 -109s-14 -85.667 -14 -131c0 -80 14 -137.5 42 -172.5s75 -52.5 141 -52.5c31.333 0 62.166 3.83301 92.499 11.5s54.166 18.167 71.499 31.5l39 -64c-18 -14.667 -40.833 -26.667 -68.5 -36s-58.167 -15.666 -91.5 -18.999
c-13.333 -1.33301 -23.333 -2 -30 -2l-36 -51c10 4.66699 23 7 39 7c52.667 0 79 -25.333 79 -76c0 -29.333 -9 -51.333 -27 -66s-46.333 -22 -85 -22c-35.333 0 -65 5.66699 -89 17z" />
    <glyph glyph-name="Egrave" unicode="&#xc8;" horiz-adv-x="539" 
d="M152 830l106 11l83 -145l-64 -10zM131 14.5c-37.333 15 -56 41.167 -56 78.5v523h393v-77h-309v-194h280v-75h-280v-191c40 -6.66699 83.667 -10 131 -10c63.333 0 120 6 170 18l19 -74c-47.333 -14 -111.333 -21 -192 -21c-66.667 0 -118.667 7.5 -156 22.5z" />
    <glyph glyph-name="Eacute" unicode="&#xc9;" horiz-adv-x="539" 
d="M224 695l83 145l106 -11l-125 -144zM131 14.5c-37.333 15 -56 41.167 -56 78.5v523h393v-77h-309v-194h280v-75h-280v-191c40 -6.66699 83.667 -10 131 -10c63.333 0 120 6 170 18l19 -74c-47.333 -14 -111.333 -21 -192 -21c-66.667 0 -118.667 7.5 -156 22.5z" />
    <glyph glyph-name="Ecircumflex" unicode="&#xca;" horiz-adv-x="539" 
d="M137 695l100 133h75l99 -133l-53 -11l-81 75h-5l-84 -75zM131 14.5c-37.333 15 -56 41.167 -56 78.5v523h393v-77h-309v-194h280v-75h-280v-191c40 -6.66699 83.667 -10 131 -10c63.333 0 120 6 170 18l19 -74c-47.333 -14 -111.333 -21 -192 -21
c-66.667 0 -118.667 7.5 -156 22.5z" />
    <glyph glyph-name="Edieresis" unicode="&#xcb;" horiz-adv-x="539" 
d="M171.5 702.5c-8.33301 7.66699 -12.5 18.167 -12.5 31.5c0 14 4.16699 24.833 12.5 32.5s19.5 11.5 33.5 11.5c14.667 0 26 -3.83301 34 -11.5s12 -18.5 12 -32.5c0 -13.333 -4 -23.833 -12 -31.5s-19.333 -11.5 -34 -11.5c-14 0 -25.167 3.83301 -33.5 11.5z
M328.5 702.5c-8.33301 7.66699 -12.5 18.167 -12.5 31.5c0 14 4.16699 24.833 12.5 32.5s19.833 11.5 34.5 11.5s26 -3.83301 34 -11.5s12 -18.5 12 -32.5c0 -13.333 -4 -23.833 -12 -31.5s-19.333 -11.5 -34 -11.5s-26.167 3.83301 -34.5 11.5zM131 14.5
c-37.333 15 -56 41.167 -56 78.5v523h393v-77h-309v-194h280v-75h-280v-191c40 -6.66699 83.667 -10 131 -10c63.333 0 120 6 170 18l19 -74c-47.333 -14 -111.333 -21 -192 -21c-66.667 0 -118.667 7.5 -156 22.5z" />
    <glyph glyph-name="Igrave" unicode="&#xcc;" horiz-adv-x="242" 
d="M-25 830l106 11l83 -145l-64 -10zM78 616h85v-616h-85v616z" />
    <glyph glyph-name="Iacute" unicode="&#xcd;" horiz-adv-x="242" 
d="M81 696l83 145l106 -11l-125 -144zM78 616h85v-616h-85v616z" />
    <glyph glyph-name="Icircumflex" unicode="&#xce;" horiz-adv-x="242" 
d="M-16 696l100 133h75l99 -133l-53 -11l-81 75h-5l-84 -75zM78 616h85v-616h-85v616z" />
    <glyph glyph-name="Idieresis" unicode="&#xcf;" horiz-adv-x="242" 
d="M8.5 702.5c-8.33301 7.66699 -12.5 18.167 -12.5 31.5c0 14 4.16699 24.833 12.5 32.5s19.5 11.5 33.5 11.5c14.667 0 26 -3.83301 34 -11.5s12 -18.5 12 -32.5c0 -13.333 -4 -23.833 -12 -31.5s-19.333 -11.5 -34 -11.5c-14 0 -25.167 3.83301 -33.5 11.5zM165.5 702.5
c-8.33301 7.66699 -12.5 18.167 -12.5 31.5c0 14 4.16699 24.833 12.5 32.5s19.833 11.5 34.5 11.5s26 -3.83301 34 -11.5s12 -18.5 12 -32.5c0 -13.333 -4 -23.833 -12 -31.5s-19.333 -11.5 -34 -11.5s-26.167 3.83301 -34.5 11.5zM78 616h85v-616h-85v616z" />
    <glyph glyph-name="Eth" unicode="&#xd0;" horiz-adv-x="646" 
d="M136 290h-90.999v64h91v252c54.667 13.333 113.667 20 177 20c103.333 0 177 -26.667 221 -80s66 -130.333 66 -231c0 -71.333 -8.5 -129.5 -25.5 -174.5s-48.833 -79.667 -95.5 -104s-113.334 -36.5 -200.001 -36.5h-143v290zM280.001 78
c82 0 148.667 7.33203 200 21.999c10.667 23.333 19.167 53.333 25.5 90s9.5 75.334 9.5 116.001c0 56.667 -6 102.5 -18 137.5s-32.833 61.333 -62.5 79s-71.5 26.5 -125.5 26.5c-28 0 -57.333 -2 -88 -6v-189h104v-64h-104v-212h59z" />
    <glyph glyph-name="Ntilde" unicode="&#xd1;" horiz-adv-x="625" 
d="M168 696c2 32.667 9.66602 56.834 22.999 72.501s33.666 23.5 60.999 23.5c10 0 20 -2 30 -6s21.333 -9.66699 34 -17c20.667 -12 35.667 -18 45 -18c23.333 0 36.666 15 39.999 45l55 -18c-2 -32.667 -9.66699 -56.834 -23 -72.501s-33.666 -23.5 -60.999 -23.5
c-11.333 0 -21.666 2 -30.999 6s-20 9.66699 -32 17c-10 6 -18.333 10.5 -25 13.5s-13.667 4.5 -21 4.5c-23.333 0 -36.666 -15 -39.999 -45zM74.999 616h96l295 -487l8 2l-10 157v328h86v-616h-96l-295 487l-8 -2l10 -157v-328h-86v616z" />
    <glyph glyph-name="Ograve" unicode="&#xd2;" horiz-adv-x="621" 
d="M178 830l106 11l83 -145l-64 -10zM116 69c-42.667 51.333 -64 126.999 -64 226.999c0 112.667 20.5 195.834 61.5 249.501s109.167 80.5 204.5 80.5c85.333 0 148.5 -25.5 189.5 -76.5s61.5 -127.167 61.5 -228.5c0 -112.667 -20.5 -195.667 -61.5 -249
s-109.167 -80 -204.5 -80c-82 0 -144.333 25.667 -187 77zM384 74.999c22 3.33301 39.333 7.66504 52 12.998c32 70.667 48 142 48 214c0 86.667 -13.5 149.334 -40.5 188.001s-73.5 58 -139.5 58c-23.333 0 -46.666 -1.66699 -69.999 -5s-41.333 -7.66602 -54 -12.999
c-28.667 -62 -43 -133.667 -43 -215c0 -86 13.667 -148.333 41 -187s73.666 -58 138.999 -58c22.667 0 45 1.66699 67 5z" />
    <glyph glyph-name="Oacute" unicode="&#xd3;" horiz-adv-x="621" 
d="M272 695l83 145l106 -11l-125 -144zM116 69c-42.667 51.333 -64 126.999 -64 226.999c0 112.667 20.5 195.834 61.5 249.501s109.167 80.5 204.5 80.5c85.333 0 148.5 -25.5 189.5 -76.5s61.5 -127.167 61.5 -228.5c0 -112.667 -20.5 -195.667 -61.5 -249
s-109.167 -80 -204.5 -80c-82 0 -144.333 25.667 -187 77zM384 74.999c22 3.33301 39.333 7.66504 52 12.998c32 70.667 48 142 48 214c0 86.667 -13.5 149.334 -40.5 188.001s-73.5 58 -139.5 58c-23.333 0 -46.666 -1.66699 -69.999 -5s-41.333 -7.66602 -54 -12.999
c-28.667 -62 -43 -133.667 -43 -215c0 -86 13.667 -148.333 41 -187s73.666 -58 138.999 -58c22.667 0 45 1.66699 67 5z" />
    <glyph glyph-name="Ocircumflex" unicode="&#xd4;" horiz-adv-x="621" 
d="M178 695l100 133h75l99 -133l-53 -11l-81 75h-5l-84 -75zM116 69c-42.667 51.333 -64 126.999 -64 226.999c0 112.667 20.5 195.834 61.5 249.501s109.167 80.5 204.5 80.5c85.333 0 148.5 -25.5 189.5 -76.5s61.5 -127.167 61.5 -228.5
c0 -112.667 -20.5 -195.667 -61.5 -249s-109.167 -80 -204.5 -80c-82 0 -144.333 25.667 -187 77zM384 74.999c22 3.33301 39.333 7.66504 52 12.998c32 70.667 48 142 48 214c0 86.667 -13.5 149.334 -40.5 188.001s-73.5 58 -139.5 58
c-23.333 0 -46.666 -1.66699 -69.999 -5s-41.333 -7.66602 -54 -12.999c-28.667 -62 -43 -133.667 -43 -215c0 -86 13.667 -148.333 41 -187s73.666 -58 138.999 -58c22.667 0 45 1.66699 67 5z" />
    <glyph glyph-name="Otilde" unicode="&#xd5;" horiz-adv-x="621" 
d="M171 696c2 32.667 9.66602 56.834 22.999 72.501s33.666 23.5 60.999 23.5c10 0 20 -2 30 -6s21.333 -9.66699 34 -17c20.667 -12 35.667 -18 45 -18c23.333 0 36.666 15 39.999 45l55 -18c-2 -32.667 -9.66699 -56.834 -23 -72.501s-33.666 -23.5 -60.999 -23.5
c-11.333 0 -21.666 2 -30.999 6s-20 9.66699 -32 17c-10 6 -18.333 10.5 -25 13.5s-13.667 4.5 -21 4.5c-23.333 0 -36.666 -15 -39.999 -45zM115.999 69c-42.667 51.333 -64 126.999 -64 226.999c0 112.667 20.5 195.834 61.5 249.501s109.167 80.5 204.5 80.5
c85.333 0 148.5 -25.5 189.5 -76.5s61.5 -127.167 61.5 -228.5c0 -112.667 -20.5 -195.667 -61.5 -249s-109.167 -80 -204.5 -80c-82 0 -144.333 25.667 -187 77zM383.999 74.999c22 3.33301 39.333 7.66504 52 12.998c32 70.667 48 142 48 214
c0 86.667 -13.5 149.334 -40.5 188.001s-73.5 58 -139.5 58c-23.333 0 -46.666 -1.66699 -69.999 -5s-41.333 -7.66602 -54 -12.999c-28.667 -62 -43 -133.667 -43 -215c0 -86 13.667 -148.333 41 -187s73.666 -58 138.999 -58c22.667 0 45 1.66699 67 5z" />
    <glyph glyph-name="Odieresis" unicode="&#xd6;" horiz-adv-x="621" 
d="M203.5 702.5c-8.33301 7.66699 -12.5 18.167 -12.5 31.5c0 14 4.16699 24.833 12.5 32.5s19.5 11.5 33.5 11.5c14.667 0 26 -3.83301 34 -11.5s12 -18.5 12 -32.5c0 -13.333 -4 -23.833 -12 -31.5s-19.333 -11.5 -34 -11.5c-14 0 -25.167 3.83301 -33.5 11.5z
M360.5 702.5c-8.33301 7.66699 -12.5 18.167 -12.5 31.5c0 14 4.16699 24.833 12.5 32.5s19.833 11.5 34.5 11.5s26 -3.83301 34 -11.5s12 -18.5 12 -32.5c0 -13.333 -4 -23.833 -12 -31.5s-19.333 -11.5 -34 -11.5s-26.167 3.83301 -34.5 11.5zM116 69
c-42.667 51.333 -64 126.999 -64 226.999c0 112.667 20.5 195.834 61.5 249.501s109.167 80.5 204.5 80.5c85.333 0 148.5 -25.5 189.5 -76.5s61.5 -127.167 61.5 -228.5c0 -112.667 -20.5 -195.667 -61.5 -249s-109.167 -80 -204.5 -80c-82 0 -144.333 25.667 -187 77z
M384 74.999c22 3.33301 39.333 7.66504 52 12.998c32 70.667 48 142 48 214c0 86.667 -13.5 149.334 -40.5 188.001s-73.5 58 -139.5 58c-23.333 0 -46.666 -1.66699 -69.999 -5s-41.333 -7.66602 -54 -12.999c-28.667 -62 -43 -133.667 -43 -215
c0 -86 13.667 -148.333 41 -187s73.666 -58 138.999 -58c22.667 0 45 1.66699 67 5z" />
    <glyph glyph-name="multiply" unicode="&#xd7;" horiz-adv-x="476" 
d="M50 174l140 134l-140 134l48 45l140 -137l140 137l48 -45l-140 -134l140 -134l-48 -45l-140 137l-140 -137z" />
    <glyph glyph-name="Oslash" unicode="&#xd8;" horiz-adv-x="621" 
d="M99 -57l45 97c-61.333 49.333 -92 134.666 -92 255.999c0 112.667 20.5 195.834 61.5 249.501s109.167 80.5 204.5 80.5c34 0 64 -4 90 -12l32 69l70 -17l-38 -83c64.667 -47.333 97 -134.666 97 -261.999c0 -112.667 -20.5 -195.834 -61.5 -249.501
s-109.167 -80.5 -204.5 -80.5c-36.667 0 -69 5 -97 15l-37 -81zM373 538c-22 6.66699 -45.001 9.99902 -69.001 9.99902c-23.333 0 -46.666 -1.66699 -69.999 -5s-41.333 -7.66602 -54 -12.999c-28.667 -62 -43 -133.667 -43 -215c0 -90.667 14.667 -155 44 -193z
M383.999 73.999c22 3.33301 39.333 7.66699 52 13c32 70.667 48 142.334 48 215.001c0 48.667 -4 89.167 -12 121.5s-20.667 58.166 -38 77.499l-194 -420c22 -8 47.667 -12 77 -12c22.667 0 45 1.66699 67 5z" />
    <glyph glyph-name="Ugrave" unicode="&#xd9;" horiz-adv-x="609" 
d="M166 830l106 11l83 -145l-64 -10zM129.5 37.5c-37.667 30.333 -56.499 75.833 -56.499 136.5v442h85v-427c0 -45.333 11 -76.5 33 -93.5s59 -25.5 111 -25.5c32 0 61.167 2 87.5 6s46.833 9.33301 61.5 16v524h85v-488c0 -49.333 -21.333 -84.333 -64 -105
s-101.667 -31 -177 -31c-72.667 0 -127.834 15.167 -165.501 45.5z" />
    <glyph glyph-name="Uacute" unicode="&#xda;" horiz-adv-x="609" 
d="M246 695l83 145l106 -11l-125 -144zM129.5 37.5c-37.667 30.333 -56.499 75.833 -56.499 136.5v442h85v-427c0 -45.333 11 -76.5 33 -93.5s59 -25.5 111 -25.5c32 0 61.167 2 87.5 6s46.833 9.33301 61.5 16v524h85v-488c0 -49.333 -21.333 -84.333 -64 -105
s-101.667 -31 -177 -31c-72.667 0 -127.834 15.167 -165.501 45.5z" />
    <glyph glyph-name="Ucircumflex" unicode="&#xdb;" horiz-adv-x="609" 
d="M167 695l100 133h75l99 -133l-53 -11l-81 75h-5l-84 -75zM129.5 37.5c-37.667 30.333 -56.499 75.833 -56.499 136.5v442h85v-427c0 -45.333 11 -76.5 33 -93.5s59 -25.5 111 -25.5c32 0 61.167 2 87.5 6s46.833 9.33301 61.5 16v524h85v-488
c0 -49.333 -21.333 -84.333 -64 -105s-101.667 -31 -177 -31c-72.667 0 -127.834 15.167 -165.501 45.5z" />
    <glyph glyph-name="Udieresis" unicode="&#xdc;" horiz-adv-x="609" 
d="M194.5 702.5c-8.33301 7.66699 -12.5 18.167 -12.5 31.5c0 14 4.16699 24.833 12.5 32.5s19.5 11.5 33.5 11.5c14.667 0 26 -3.83301 34 -11.5s12 -18.5 12 -32.5c0 -13.333 -4 -23.833 -12 -31.5s-19.333 -11.5 -34 -11.5c-14 0 -25.167 3.83301 -33.5 11.5z
M351.5 702.5c-8.33301 7.66699 -12.5 18.167 -12.5 31.5c0 14 4.16699 24.833 12.5 32.5s19.833 11.5 34.5 11.5s26 -3.83301 34 -11.5s12 -18.5 12 -32.5c0 -13.333 -4 -23.833 -12 -31.5s-19.333 -11.5 -34 -11.5s-26.167 3.83301 -34.5 11.5zM129.5 37.5
c-37.667 30.333 -56.499 75.833 -56.499 136.5v442h85v-427c0 -45.333 11 -76.5 33 -93.5s59 -25.5 111 -25.5c32 0 61.167 2 87.5 6s46.833 9.33301 61.5 16v524h85v-488c0 -49.333 -21.333 -84.333 -64 -105s-101.667 -31 -177 -31
c-72.667 0 -127.834 15.167 -165.501 45.5z" />
    <glyph glyph-name="Yacute" unicode="&#xdd;" horiz-adv-x="615" 
d="M261 695l83 145l106 -11l-125 -144zM265 211h-21.002c-46 62 -85.167 122.667 -117.5 182s-65.166 128.333 -98.499 207l85 21c26 -64.667 54.667 -126.834 86 -186.501s62.333 -111.834 93 -156.501h31c30.667 44.667 61.667 96.834 93 156.501s60 121.834 86 186.501
l85 -21c-33.333 -78.667 -66.166 -147.667 -98.499 -207s-71.5 -120 -117.5 -182h-21v-211h-85v211z" />
    <glyph glyph-name="Thorn" unicode="&#xde;" horiz-adv-x="489" 
d="M75 616h85v-114h90c61.333 0 109.833 -15 145.5 -45s53.5 -74 53.5 -132c0 -60.667 -17.833 -106.167 -53.5 -136.5s-84.167 -45.5 -145.5 -45.5h-90v-143h-85v616zM246 217c42.667 0 73 8.66797 91 26.001s27 44.666 27 81.999c0 38 -9.16699 64.667 -27.5 80
s-48.5 23 -90.5 23h-86v-211h86z" />
    <glyph glyph-name="germandbls" unicode="&#xdf;" horiz-adv-x="550" 
d="M206 5l11.001 71.999c10.667 -3.33301 23.5 -6.16602 38.5 -8.49902s28.833 -3.5 41.5 -3.5c22.667 0 40 0.5 52 1.5s23.667 3.83301 35 8.5c12 24 18 58 18 102c0 89.333 -55.333 134 -166 134v74c85.333 0 128 37.667 128 113c0 32 -9.33301 55.167 -28 69.5
s-46.334 21.5 -83.001 21.5s-69.334 -3.33301 -98.001 -10v-579h-83v489c0 58.667 16.833 102.5 50.5 131.5s80.167 43.5 139.5 43.5c56.667 0 101.667 -14.5 135 -43.5s50 -68.5 50 -118.5c0 -36.667 -9.16699 -66.667 -27.5 -90s-46.833 -41.333 -85.5 -54v-6
c100 -22 150 -80 150 -174c0 -62 -16.333 -108.667 -49 -140s-79.667 -47 -141 -47c-29.333 0 -58.666 4.66699 -87.999 14z" />
    <glyph glyph-name="agrave" unicode="&#xe0;" horiz-adv-x="474" 
d="M125 686l106 11l83 -145l-64 -10zM75.5 24.5c-23.667 21.667 -35.5 51.168 -35.5 88.501c0 50.667 19.333 88.334 58 113.001s92 37 160 37c22 0 44 -1 66 -3v62c0 36 -7.33301 60.5 -22 73.5s-40.667 19.5 -78 19.5c-22.667 0 -44.667 -1.33301 -66 -4l-10 -75h-61
c-8.66699 23.333 -13 45.666 -13 66.999v25c20 12.667 47.167 24.167 81.5 34.5s65.833 15.5 94.5 15.5c50 0 88.5 -12.833 115.5 -38.5s40.5 -61.834 40.5 -108.501v-331h-73l-4 66h-8c-16.667 -23.333 -37.5 -41.5 -62.5 -54.5s-51.5 -19.5 -79.5 -19.5
c-45.333 0 -79.833 10.833 -103.5 32.5zM267 75.001c24 12.667 43.667 30.668 59 54.001v74c-23.333 5.33301 -54 8 -92 8c-42 0 -72.667 -2.66699 -92 -8c-6 -14.667 -10.167 -27.834 -12.5 -39.501s-3.5 -25.5 -3.5 -41.5c0 -24 5.5 -41 16.5 -51s26.833 -15 47.5 -15
c27.333 0 53 6.33301 77 19z" />
    <glyph glyph-name="aacute" unicode="&#xe1;" horiz-adv-x="474" 
d="M204 552l83 145l106 -11l-125 -144zM75.5 24.5c-23.667 21.667 -35.5 51.168 -35.5 88.501c0 50.667 19.333 88.334 58 113.001s92 37 160 37c22 0 44 -1 66 -3v62c0 36 -7.33301 60.5 -22 73.5s-40.667 19.5 -78 19.5c-22.667 0 -44.667 -1.33301 -66 -4l-10 -75h-61
c-8.66699 23.333 -13 45.666 -13 66.999v25c20 12.667 47.167 24.167 81.5 34.5s65.833 15.5 94.5 15.5c50 0 88.5 -12.833 115.5 -38.5s40.5 -61.834 40.5 -108.501v-331h-73l-4 66h-8c-16.667 -23.333 -37.5 -41.5 -62.5 -54.5s-51.5 -19.5 -79.5 -19.5
c-45.333 0 -79.833 10.833 -103.5 32.5zM267 75.001c24 12.667 43.667 30.668 59 54.001v74c-23.333 5.33301 -54 8 -92 8c-42 0 -72.667 -2.66699 -92 -8c-6 -14.667 -10.167 -27.834 -12.5 -39.501s-3.5 -25.5 -3.5 -41.5c0 -24 5.5 -41 16.5 -51s26.833 -15 47.5 -15
c27.333 0 53 6.33301 77 19z" />
    <glyph glyph-name="acircumflex" unicode="&#xe2;" horiz-adv-x="474" 
d="M100 551l100 133h75l99 -133l-53 -11l-81 75h-5l-84 -75zM75.5 24.5c-23.667 21.667 -35.5 51.168 -35.5 88.501c0 50.667 19.333 88.334 58 113.001s92 37 160 37c22 0 44 -1 66 -3v62c0 36 -7.33301 60.5 -22 73.5s-40.667 19.5 -78 19.5
c-22.667 0 -44.667 -1.33301 -66 -4l-10 -75h-61c-8.66699 23.333 -13 45.666 -13 66.999v25c20 12.667 47.167 24.167 81.5 34.5s65.833 15.5 94.5 15.5c50 0 88.5 -12.833 115.5 -38.5s40.5 -61.834 40.5 -108.501v-331h-73l-4 66h-8
c-16.667 -23.333 -37.5 -41.5 -62.5 -54.5s-51.5 -19.5 -79.5 -19.5c-45.333 0 -79.833 10.833 -103.5 32.5zM267 75.001c24 12.667 43.667 30.668 59 54.001v74c-23.333 5.33301 -54 8 -92 8c-42 0 -72.667 -2.66699 -92 -8c-6 -14.667 -10.167 -27.834 -12.5 -39.501
s-3.5 -25.5 -3.5 -41.5c0 -24 5.5 -41 16.5 -51s26.833 -15 47.5 -15c27.333 0 53 6.33301 77 19z" />
    <glyph glyph-name="atilde" unicode="&#xe3;" horiz-adv-x="474" 
d="M97 561c2 32.667 9.66602 56.834 22.999 72.501s33.666 23.5 60.999 23.5c10 0 20 -2 30 -6s21.333 -9.66699 34 -17c20.667 -12 35.667 -18 45 -18c23.333 0 36.666 15 39.999 45l55 -18c-2 -32.667 -9.66699 -56.834 -23 -72.501s-33.666 -23.5 -60.999 -23.5
c-11.333 0 -21.666 2 -30.999 6s-20 9.66699 -32 17c-10 6 -18.333 10.5 -25 13.5s-13.667 4.5 -21 4.5c-23.333 0 -36.666 -15 -39.999 -45zM75.499 24.5c-23.667 21.667 -35.5 51.168 -35.5 88.501c0 50.667 19.333 88.334 58 113.001s92 37 160 37c22 0 44 -1 66 -3v62
c0 36 -7.33301 60.5 -22 73.5s-40.667 19.5 -78 19.5c-22.667 0 -44.667 -1.33301 -66 -4l-10 -75h-61c-8.66699 23.333 -13 45.666 -13 66.999v25c20 12.667 47.167 24.167 81.5 34.5s65.833 15.5 94.5 15.5c50 0 88.5 -12.833 115.5 -38.5s40.5 -61.834 40.5 -108.501
v-331h-73l-4 66h-8c-16.667 -23.333 -37.5 -41.5 -62.5 -54.5s-51.5 -19.5 -79.5 -19.5c-45.333 0 -79.833 10.833 -103.5 32.5zM266.999 75.001c24 12.667 43.667 30.668 59 54.001v74c-23.333 5.33301 -54 8 -92 8c-42 0 -72.667 -2.66699 -92 -8
c-6 -14.667 -10.167 -27.834 -12.5 -39.501s-3.5 -25.5 -3.5 -41.5c0 -24 5.5 -41 16.5 -51s26.833 -15 47.5 -15c27.333 0 53 6.33301 77 19z" />
    <glyph glyph-name="adieresis" unicode="&#xe4;" horiz-adv-x="474" 
d="M131.5 558.5c-8.33301 7.66699 -12.5 18.167 -12.5 31.5c0 14 4.16699 24.833 12.5 32.5s19.5 11.5 33.5 11.5c14.667 0 26 -3.83301 34 -11.5s12 -18.5 12 -32.5c0 -13.333 -4 -23.833 -12 -31.5s-19.333 -11.5 -34 -11.5c-14 0 -25.167 3.83301 -33.5 11.5z
M288.5 558.5c-8.33301 7.66699 -12.5 18.167 -12.5 31.5c0 14 4.16699 24.833 12.5 32.5s19.833 11.5 34.5 11.5s26 -3.83301 34 -11.5s12 -18.5 12 -32.5c0 -13.333 -4 -23.833 -12 -31.5s-19.333 -11.5 -34 -11.5s-26.167 3.83301 -34.5 11.5zM75.5 24.5
c-23.667 21.667 -35.5 51.168 -35.5 88.501c0 50.667 19.333 88.334 58 113.001s92 37 160 37c22 0 44 -1 66 -3v62c0 36 -7.33301 60.5 -22 73.5s-40.667 19.5 -78 19.5c-22.667 0 -44.667 -1.33301 -66 -4l-10 -75h-61c-8.66699 23.333 -13 45.666 -13 66.999v25
c20 12.667 47.167 24.167 81.5 34.5s65.833 15.5 94.5 15.5c50 0 88.5 -12.833 115.5 -38.5s40.5 -61.834 40.5 -108.501v-331h-73l-4 66h-8c-16.667 -23.333 -37.5 -41.5 -62.5 -54.5s-51.5 -19.5 -79.5 -19.5c-45.333 0 -79.833 10.833 -103.5 32.5zM267 75.001
c24 12.667 43.667 30.668 59 54.001v74c-23.333 5.33301 -54 8 -92 8c-42 0 -72.667 -2.66699 -92 -8c-6 -14.667 -10.167 -27.834 -12.5 -39.501s-3.5 -25.5 -3.5 -41.5c0 -24 5.5 -41 16.5 -51s26.833 -15 47.5 -15c27.333 0 53 6.33301 77 19z" />
    <glyph glyph-name="aring" unicode="&#xe5;" horiz-adv-x="474" 
d="M166 571c-19.333 16 -29 38.668 -29 68.001c0 27.333 10.667 50.166 32 68.499s51 27.5 89 27.5c33.333 0 59.833 -8.66699 79.5 -26s29.5 -41 29.5 -71c0 -26 -11 -47.667 -33 -65s-51.333 -26 -88 -26c-34 0 -60.667 8 -80 24zM305 601.001c3.33301 12 5 24 5 36
c0 13.333 -4.83301 24.833 -14.5 34.5s-22.5 14.5 -38.5 14.5c-26 0 -45.333 -1.66699 -58 -5c-3.33301 -11.333 -5 -25 -5 -41c0 -13.333 4.83301 -24 14.5 -32s22.5 -12 38.5 -12c28 0 47.333 1.66699 58 5zM75.5 24.501c-23.667 21.667 -35.5 51.168 -35.5 88.501
c0 50.667 19.333 88.334 58 113.001s92 37 160 37c22 0 44 -1 66 -3v62c0 36 -7.33301 60.5 -22 73.5s-40.667 19.5 -78 19.5c-22.667 0 -44.667 -1.33301 -66 -4l-10 -75h-61c-8.66699 23.333 -13 45.666 -13 66.999v25c20 12.667 47.167 24.167 81.5 34.5
s65.833 15.5 94.5 15.5c50 0 88.5 -12.833 115.5 -38.5s40.5 -61.834 40.5 -108.501v-331h-73l-4 66h-8c-16.667 -23.333 -37.5 -41.5 -62.5 -54.5s-51.5 -19.5 -79.5 -19.5c-45.333 0 -79.833 10.833 -103.5 32.5zM267 75.002c24 12.667 43.667 30.668 59 54.001v74
c-23.333 5.33301 -54 8 -92 8c-42 0 -72.667 -2.66699 -92 -8c-6 -14.667 -10.167 -27.834 -12.5 -39.501s-3.5 -25.5 -3.5 -41.5c0 -24 5.5 -41 16.5 -51s26.833 -15 47.5 -15c27.333 0 53 6.33301 77 19z" />
    <glyph glyph-name="ae" unicode="&#xe6;" horiz-adv-x="768" 
d="M79.5 25c-26.333 22 -39.5039 51.333 -39.5039 88c0 50.667 19.333 88.334 58 113.001s92 37 160 37c30.667 0 57 -1 79 -3v62c0 35.333 -9.16699 59.666 -27.5 72.999s-46.833 20 -85.5 20c-22.667 0 -44.667 -1.33301 -66 -4l-10 -75h-61
c-8.66699 23.333 -13 45.666 -13 66.999v25c20 12.667 47.167 24.167 81.5 34.5s65.833 15.5 94.5 15.5c32.667 0 61.334 -5.66699 86.001 -17s43.334 -27.666 56.001 -48.999c34 44 84.667 66 152 66c58.667 0 102.5 -16.833 131.5 -50.5s43.5 -79.834 43.5 -138.501
c0 -13.333 -0.333008 -23.333 -1 -30l-60 -59l-241 4c1.33301 -47.333 12 -82.666 32 -105.999s52 -35 96 -35c30 0 55.833 3.83301 77.5 11.5s43.834 19.167 66.501 34.5l26 -63c-26.667 -16.667 -53 -29.5 -79 -38.5s-58 -13.5 -96 -13.5c-80 0 -135 26 -165 78
c-26 -26.667 -52.667 -46.667 -80 -60s-63.333 -20 -108 -20c-45.333 0 -81.166 11 -107.499 33zM637.996 266c4 18 6 34.333 6 49c0 29.333 -8.66699 52.333 -26 69s-43.666 25 -78.999 25c-32 0 -56.833 -5.16699 -74.5 -15.5s-29.834 -26 -36.501 -47
s-10.667 -49.167 -12 -84.5zM338.996 112v91.002c-10.667 2.66699 -26.167 4.66699 -46.5 6s-39.833 2 -58.5 2c-42 0 -72.667 -2.66699 -92 -8c-6 -14.667 -10.167 -27.834 -12.5 -39.501s-3.5 -25.5 -3.5 -41.5c0 -24.667 6 -41.834 18 -51.501s30 -14.5 54 -14.5
c55.333 0 102.333 18.667 141 56z" />
    <glyph glyph-name="ccedilla" unicode="&#xe7;" horiz-adv-x="451" 
d="M156 -199l17.002 48.999c8.66699 -3.33301 19.334 -6 32.001 -8s23.667 -3 33 -3c18 0 33.667 1.33301 47 4c2.66699 8 4 16.667 4 26c0 20 -15 30 -45 30c-16 0 -29.333 -2.66699 -40 -8l-43 43l51 62c-60.667 8 -103.334 31.5 -128.001 70.5s-37 90.833 -37 155.5
c0 79.333 17.333 141.833 52 187.5s86 68.5 154 68.5c28.667 0 56.167 -3.83301 82.5 -11.5s47.833 -17.5 64.5 -29.5v-36c0 -29.333 -4.33301 -55.666 -13 -78.999h-59l-8 74c-21.333 6 -45.333 9 -72 9c-18 0 -36 -1.16699 -54 -3.5s-32.333 -5.5 -43 -9.5
c-6.66699 -17.333 -12.334 -42.5 -17.001 -75.5s-7 -64.5 -7 -94.5c0 -53.333 10.167 -92.833 30.5 -118.5s55.833 -38.5 106.5 -38.5c49.333 0 90.666 14.333 123.999 43l37 -57c-20.667 -18 -43 -32 -67 -42s-51.667 -15.667 -83 -17l-36 -51c10 4.66699 23 7 39 7
c52.667 0 79 -25.333 79 -76c0 -29.333 -9 -51.333 -27 -66s-46.333 -22 -85 -22c-35.333 0 -65 5.66699 -89 17z" />
    <glyph glyph-name="egrave" unicode="&#xe8;" horiz-adv-x="488" 
d="M124 685l106 11l83 -145l-64 -10zM50 231c0 77.333 18.499 137.834 55.499 181.501s89.833 65.5 158.5 65.5c58.667 0 102.5 -16.833 131.5 -50.5s43.5 -79.834 43.5 -138.501c0 -13.333 -0.333008 -23.333 -1 -30l-60 -59l-249 4
c1.33301 -46.667 13.333 -82.167 36 -106.5s56 -36.5 100 -36.5c30 0 55.833 3.83301 77.5 11.5s43.834 19.167 66.501 34.5l26 -63c-26.667 -16.667 -53 -29.5 -79 -38.5s-58 -13.5 -96 -13.5c-140 0 -210 79.667 -210 239zM357.999 266.001
c4 18 5.99902 34.333 5.99902 49c0 29.333 -8.66699 52.333 -26 69s-43.666 25 -78.999 25c-48 0 -81.5 -11.5 -100.5 -34.5s-29.167 -60.5 -30.5 -112.5z" />
    <glyph glyph-name="eacute" unicode="&#xe9;" horiz-adv-x="488" 
d="M210 551l83 145l106 -11l-125 -144zM50 231c0 77.333 18.499 137.834 55.499 181.501s89.833 65.5 158.5 65.5c58.667 0 102.5 -16.833 131.5 -50.5s43.5 -79.834 43.5 -138.501c0 -13.333 -0.333008 -23.333 -1 -30l-60 -59l-249 4
c1.33301 -46.667 13.333 -82.167 36 -106.5s56 -36.5 100 -36.5c30 0 55.833 3.83301 77.5 11.5s43.834 19.167 66.501 34.5l26 -63c-26.667 -16.667 -53 -29.5 -79 -38.5s-58 -13.5 -96 -13.5c-140 0 -210 79.667 -210 239zM357.999 266.001
c4 18 5.99902 34.333 5.99902 49c0 29.333 -8.66699 52.333 -26 69s-43.666 25 -78.999 25c-48 0 -81.5 -11.5 -100.5 -34.5s-29.167 -60.5 -30.5 -112.5z" />
    <glyph glyph-name="ecircumflex" unicode="&#xea;" horiz-adv-x="488" 
d="M124 551l100 133h75l99 -133l-53 -11l-81 75h-5l-84 -75zM50 231c0 77.333 18.499 137.834 55.499 181.501s89.833 65.5 158.5 65.5c58.667 0 102.5 -16.833 131.5 -50.5s43.5 -79.834 43.5 -138.501c0 -13.333 -0.333008 -23.333 -1 -30l-60 -59l-249 4
c1.33301 -46.667 13.333 -82.167 36 -106.5s56 -36.5 100 -36.5c30 0 55.833 3.83301 77.5 11.5s43.834 19.167 66.501 34.5l26 -63c-26.667 -16.667 -53 -29.5 -79 -38.5s-58 -13.5 -96 -13.5c-140 0 -210 79.667 -210 239zM357.999 266.001
c4 18 5.99902 34.333 5.99902 49c0 29.333 -8.66699 52.333 -26 69s-43.666 25 -78.999 25c-48 0 -81.5 -11.5 -100.5 -34.5s-29.167 -60.5 -30.5 -112.5z" />
    <glyph glyph-name="edieresis" unicode="&#xeb;" horiz-adv-x="488" 
d="M144.5 558.5c-8.33301 7.66699 -12.5 18.167 -12.5 31.5c0 14 4.16699 24.833 12.5 32.5s19.5 11.5 33.5 11.5c14.667 0 26 -3.83301 34 -11.5s12 -18.5 12 -32.5c0 -13.333 -4 -23.833 -12 -31.5s-19.333 -11.5 -34 -11.5c-14 0 -25.167 3.83301 -33.5 11.5z
M301.5 558.5c-8.33301 7.66699 -12.5 18.167 -12.5 31.5c0 14 4.16699 24.833 12.5 32.5s19.833 11.5 34.5 11.5s26 -3.83301 34 -11.5s12 -18.5 12 -32.5c0 -13.333 -4 -23.833 -12 -31.5s-19.333 -11.5 -34 -11.5s-26.167 3.83301 -34.5 11.5zM50 231
c0 77.333 18.499 137.834 55.499 181.501s89.833 65.5 158.5 65.5c58.667 0 102.5 -16.833 131.5 -50.5s43.5 -79.834 43.5 -138.501c0 -13.333 -0.333008 -23.333 -1 -30l-60 -59l-249 4c1.33301 -46.667 13.333 -82.167 36 -106.5s56 -36.5 100 -36.5
c30 0 55.833 3.83301 77.5 11.5s43.834 19.167 66.501 34.5l26 -63c-26.667 -16.667 -53 -29.5 -79 -38.5s-58 -13.5 -96 -13.5c-140 0 -210 79.667 -210 239zM357.999 266.001c4 18 5.99902 34.333 5.99902 49c0 29.333 -8.66699 52.333 -26 69s-43.666 25 -78.999 25
c-48 0 -81.5 -11.5 -100.5 -34.5s-29.167 -60.5 -30.5 -112.5z" />
    <glyph glyph-name="igrave" unicode="&#xec;" horiz-adv-x="232" 
d="M-36 686l106 11l83 -145l-64 -10zM76 469h80v-469h-80v469z" />
    <glyph glyph-name="iacute" unicode="&#xed;" horiz-adv-x="232" 
d="M78 552l83 145l106 -11l-125 -144zM76 469h80v-469h-80v469z" />
    <glyph glyph-name="icircumflex" unicode="&#xee;" horiz-adv-x="232" 
d="M-21 551l100 133h75l99 -133l-53 -11l-81 75h-5l-84 -75zM76 469h80v-469h-80v469z" />
    <glyph glyph-name="idieresis" unicode="&#xef;" horiz-adv-x="232" 
d="M3.5 558.5c-8.33301 7.66699 -12.5 18.167 -12.5 31.5c0 14 4.16699 24.833 12.5 32.5s19.5 11.5 33.5 11.5c14.667 0 26 -3.83301 34 -11.5s12 -18.5 12 -32.5c0 -13.333 -4 -23.833 -12 -31.5s-19.333 -11.5 -34 -11.5c-14 0 -25.167 3.83301 -33.5 11.5zM160.5 558.5
c-8.33301 7.66699 -12.5 18.167 -12.5 31.5c0 14 4.16699 24.833 12.5 32.5s19.833 11.5 34.5 11.5s26 -3.83301 34 -11.5s12 -18.5 12 -32.5c0 -13.333 -4 -23.833 -12 -31.5s-19.333 -11.5 -34 -11.5s-26.167 3.83301 -34.5 11.5zM76 469h80v-469h-80v469z" />
    <glyph glyph-name="eth" unicode="&#xf0;" horiz-adv-x="567" 
d="M126 36.5c-34 35 -51.001 83.1709 -51.001 144.504c0 37.333 8.33301 69.666 25 96.999s39.334 48.166 68.001 62.499s60.667 21.5 96 21.5c24 0 46.333 -3.66699 67 -11s38.667 -18.333 54 -33h6c-2.66699 60.667 -19 109.667 -49 147l-122 -43l-21 48l102 37
c-24 19.333 -56.333 37.333 -97 54l42 56c51.333 -22.667 94.333 -50.334 129 -83.001l102 38l25 -50l-88 -31c23.333 -32 40 -68 50 -108s15 -85 15 -135c0 -78.667 -16.833 -142.334 -50.5 -191.001s-89.167 -73 -166.5 -73c-56.667 0 -102 17.5 -136 52.5z
M375.999 72.0039c6 16.667 10.835 37.168 14.502 61.501s5.5 48.166 5.5 71.499c0 20.667 -0.666992 35.667 -2 45c-37.333 27.333 -77.333 41 -120 41c-78.667 0 -118 -36 -118 -108c0 -44.667 9.66699 -77 29 -97s49.666 -30 90.999 -30
c37.333 0 70.666 5.33301 99.999 16z" />
    <glyph glyph-name="ntilde" unicode="&#xf1;" horiz-adv-x="526" 
d="M124 561c2 32.667 9.66602 56.834 22.999 72.501s33.666 23.5 60.999 23.5c10 0 20 -2 30 -6s21.333 -9.66699 34 -17c20.667 -12 35.667 -18 45 -18c23.333 0 36.666 15 39.999 45l55 -18c-2 -32.667 -9.66699 -56.834 -23 -72.501s-33.666 -23.5 -60.999 -23.5
c-11.333 0 -21.666 2 -30.999 6s-20 9.66699 -32 17c-10 6 -18.333 10.5 -25 13.5s-13.667 4.5 -21 4.5c-23.333 0 -36.666 -15 -39.999 -45zM73.999 470h70.999l6 -72h8c21.333 25.333 45 45 71 59s56.333 21 91 21c46.667 0 80.834 -10.167 102.501 -30.5
s32.5 -54.833 32.5 -103.5v-344h-82v397c-20.667 6 -43 9 -67 9c-34.667 0 -64 -5.33301 -88 -16s-45 -26.667 -63 -48v-342h-82v470z" />
    <glyph glyph-name="ograve" unicode="&#xf2;" horiz-adv-x="517" 
d="M128 686l106 11l83 -145l-64 -10zM95.5 54c-30.333 41.333 -45.5 100.333 -45.5 177c0 166 73.333 249 220 249c131.333 0 197 -83 197 -249c0 -79.333 -17.333 -139 -52 -179s-90.667 -60 -168 -60c-70.667 0 -121.167 20.667 -151.5 62zM364 79
c14.667 30.667 22 75.999 22 135.999c0 47.333 -3.5 84.5 -10.5 111.5s-20.333 47.167 -40 60.5s-49.167 20 -88.5 20c-38 0 -69.333 -5.33301 -94 -16c-14.667 -31.333 -22 -80 -22 -146c0 -46.667 3.33301 -82.667 10 -108s20 -44.166 40 -56.499s49.667 -18.5 89 -18.5
c36.667 0 68 5.66699 94 17z" />
    <glyph glyph-name="oacute" unicode="&#xf3;" horiz-adv-x="517" 
d="M219 551l83 145l106 -11l-125 -144zM95.5 54c-30.333 41.333 -45.5 100.333 -45.5 177c0 166 73.333 249 220 249c131.333 0 197 -83 197 -249c0 -79.333 -17.333 -139 -52 -179s-90.667 -60 -168 -60c-70.667 0 -121.167 20.667 -151.5 62zM364 79
c14.667 30.667 22 75.999 22 135.999c0 47.333 -3.5 84.5 -10.5 111.5s-20.333 47.167 -40 60.5s-49.167 20 -88.5 20c-38 0 -69.333 -5.33301 -94 -16c-14.667 -31.333 -22 -80 -22 -146c0 -46.667 3.33301 -82.667 10 -108s20 -44.166 40 -56.499s49.667 -18.5 89 -18.5
c36.667 0 68 5.66699 94 17z" />
    <glyph glyph-name="ocircumflex" unicode="&#xf4;" horiz-adv-x="517" 
d="M121 551l100 133h75l99 -133l-53 -11l-81 75h-5l-84 -75zM95.5 54c-30.333 41.333 -45.5 100.333 -45.5 177c0 166 73.333 249 220 249c131.333 0 197 -83 197 -249c0 -79.333 -17.333 -139 -52 -179s-90.667 -60 -168 -60c-70.667 0 -121.167 20.667 -151.5 62zM364 79
c14.667 30.667 22 75.999 22 135.999c0 47.333 -3.5 84.5 -10.5 111.5s-20.333 47.167 -40 60.5s-49.167 20 -88.5 20c-38 0 -69.333 -5.33301 -94 -16c-14.667 -31.333 -22 -80 -22 -146c0 -46.667 3.33301 -82.667 10 -108s20 -44.166 40 -56.499s49.667 -18.5 89 -18.5
c36.667 0 68 5.66699 94 17z" />
    <glyph glyph-name="otilde" unicode="&#xf5;" horiz-adv-x="517" 
d="M114 561c2 32.667 9.66602 56.834 22.999 72.501s33.666 23.5 60.999 23.5c10 0 20 -2 30 -6s21.333 -9.66699 34 -17c20.667 -12 35.667 -18 45 -18c23.333 0 36.666 15 39.999 45l55 -18c-2 -32.667 -9.66699 -56.834 -23 -72.501s-33.666 -23.5 -60.999 -23.5
c-11.333 0 -21.666 2 -30.999 6s-20 9.66699 -32 17c-10 6 -18.333 10.5 -25 13.5s-13.667 4.5 -21 4.5c-23.333 0 -36.666 -15 -39.999 -45zM95.499 54c-30.333 41.333 -45.5 100.333 -45.5 177c0 166 73.333 249 220 249c131.333 0 197 -83 197 -249
c0 -79.333 -17.333 -139 -52 -179s-90.667 -60 -168 -60c-70.667 0 -121.167 20.667 -151.5 62zM363.999 79c14.667 30.667 22 75.999 22 135.999c0 47.333 -3.5 84.5 -10.5 111.5s-20.333 47.167 -40 60.5s-49.167 20 -88.5 20c-38 0 -69.333 -5.33301 -94 -16
c-14.667 -31.333 -22 -80 -22 -146c0 -46.667 3.33301 -82.667 10 -108s20 -44.166 40 -56.499s49.667 -18.5 89 -18.5c36.667 0 68 5.66699 94 17z" />
    <glyph glyph-name="odieresis" unicode="&#xf6;" horiz-adv-x="517" 
d="M145.5 558.5c-8.33301 7.66699 -12.5 18.167 -12.5 31.5c0 14 4.16699 24.833 12.5 32.5s19.5 11.5 33.5 11.5c14.667 0 26 -3.83301 34 -11.5s12 -18.5 12 -32.5c0 -13.333 -4 -23.833 -12 -31.5s-19.333 -11.5 -34 -11.5c-14 0 -25.167 3.83301 -33.5 11.5z
M302.5 558.5c-8.33301 7.66699 -12.5 18.167 -12.5 31.5c0 14 4.16699 24.833 12.5 32.5s19.833 11.5 34.5 11.5s26 -3.83301 34 -11.5s12 -18.5 12 -32.5c0 -13.333 -4 -23.833 -12 -31.5s-19.333 -11.5 -34 -11.5s-26.167 3.83301 -34.5 11.5zM95.5 54
c-30.333 41.333 -45.5 100.333 -45.5 177c0 166 73.333 249 220 249c131.333 0 197 -83 197 -249c0 -79.333 -17.333 -139 -52 -179s-90.667 -60 -168 -60c-70.667 0 -121.167 20.667 -151.5 62zM364 79c14.667 30.667 22 75.999 22 135.999c0 47.333 -3.5 84.5 -10.5 111.5
s-20.333 47.167 -40 60.5s-49.167 20 -88.5 20c-38 0 -69.333 -5.33301 -94 -16c-14.667 -31.333 -22 -80 -22 -146c0 -46.667 3.33301 -82.667 10 -108s20 -44.166 40 -56.499s49.667 -18.5 89 -18.5c36.667 0 68 5.66699 94 17z" />
    <glyph glyph-name="divide" unicode="&#xf7;" horiz-adv-x="540" 
d="M231 425.5c-10.667 11 -16 24.167 -16 39.5s5.33301 28.333 16 39s23.667 16 39 16s28.333 -5.33301 39 -16s16 -23.667 16 -39s-5.33301 -28.5 -16 -39.5s-23.667 -16.5 -39 -16.5s-28.333 5.5 -39 16.5zM50 339h440v-66h-440v66zM231 108.5
c-10.667 11 -16 24.167 -16 39.5s5.33301 28.333 16 39s23.667 16 39 16s28.333 -5.33301 39 -16s16 -23.667 16 -39s-5.33301 -28.5 -16 -39.5s-23.667 -16.5 -39 -16.5s-28.333 5.5 -39 16.5z" />
    <glyph glyph-name="oslash" unicode="&#xf8;" horiz-adv-x="517" 
d="M467 231c0 -79.333 -17.333 -139 -52 -179s-90.667 -60 -168 -60c-20.667 0 -40 2 -58 6l-48 -106l-70 18l53 116c-49.333 36.667 -74 105 -74 205c0 166 73.333 249 220 249c23.333 0 43.333 -2.33301 60 -7l36 79l70 -17l-42 -93c48.667 -38.667 73 -109 73 -211z
M137 155c4 -22.667 11.333 -40.667 22 -54l138 301c-15.333 3.33301 -32 5 -50 5c-38 0 -69.333 -5.33301 -94 -16c-14.667 -31.333 -22 -80 -22 -146c0 -37.333 2 -67.333 6 -90zM386 215c0 38 -2 68.832 -6 92.499s-11.333 42.834 -22 57.501l-137 -299
c12.667 -2.66699 29 -4 49 -4c36.667 0 68 5.66699 94 17c14.667 30.667 22 76 22 136z" />
    <glyph glyph-name="ugrave" unicode="&#xf9;" horiz-adv-x="520" 
d="M122 685l106 11l83 -145l-64 -10zM100 22.5c-21.333 20.333 -32 54.833 -32 103.5v344h82v-397c20.667 -6 42.667 -9 66 -9c62 0 111.333 21.333 148 64v342h82v-470h-71l-6 72h-8c-22.667 -25.333 -46.667 -45 -72 -59s-54.333 -21 -87 -21
c-46.667 0 -80.667 10.167 -102 30.5z" />
    <glyph glyph-name="uacute" unicode="&#xfa;" horiz-adv-x="520" 
d="M205 551l83 145l106 -11l-125 -144zM100 22.5c-21.333 20.333 -32 54.833 -32 103.5v344h82v-397c20.667 -6 42.667 -9 66 -9c62 0 111.333 21.333 148 64v342h82v-470h-71l-6 72h-8c-22.667 -25.333 -46.667 -45 -72 -59s-54.333 -21 -87 -21
c-46.667 0 -80.667 10.167 -102 30.5z" />
    <glyph glyph-name="ucircumflex" unicode="&#xfb;" horiz-adv-x="520" 
d="M116 552l100 133h75l99 -133l-53 -11l-81 75h-5l-84 -75zM100 22.5c-21.333 20.333 -32 54.833 -32 103.5v344h82v-397c20.667 -6 42.667 -9 66 -9c62 0 111.333 21.333 148 64v342h82v-470h-71l-6 72h-8c-22.667 -25.333 -46.667 -45 -72 -59s-54.333 -21 -87 -21
c-46.667 0 -80.667 10.167 -102 30.5z" />
    <glyph glyph-name="udieresis" unicode="&#xfc;" horiz-adv-x="520" 
d="M147.5 558.5c-8.33301 7.66699 -12.5 18.167 -12.5 31.5c0 14 4.16699 24.833 12.5 32.5s19.5 11.5 33.5 11.5c14.667 0 26 -3.83301 34 -11.5s12 -18.5 12 -32.5c0 -13.333 -4 -23.833 -12 -31.5s-19.333 -11.5 -34 -11.5c-14 0 -25.167 3.83301 -33.5 11.5z
M304.5 558.5c-8.33301 7.66699 -12.5 18.167 -12.5 31.5c0 14 4.16699 24.833 12.5 32.5s19.833 11.5 34.5 11.5s26 -3.83301 34 -11.5s12 -18.5 12 -32.5c0 -13.333 -4 -23.833 -12 -31.5s-19.333 -11.5 -34 -11.5s-26.167 3.83301 -34.5 11.5zM100 22.5
c-21.333 20.333 -32 54.833 -32 103.5v344h82v-397c20.667 -6 42.667 -9 66 -9c62 0 111.333 21.333 148 64v342h82v-470h-71l-6 72h-8c-22.667 -25.333 -46.667 -45 -72 -59s-54.333 -21 -87 -21c-46.667 0 -80.667 10.167 -102 30.5z" />
    <glyph glyph-name="yacute" unicode="&#xfd;" horiz-adv-x="496" 
d="M206 551l83 145l106 -11l-125 -144zM53 -178l-0.00292969 31c0 21.333 3.33301 42.333 10 63h59v-44c9.33301 -2 21 -3 35 -3c6.66699 0 18.667 1.33301 36 4c16.667 39.333 35.334 88.666 56.001 147.999h-64c-36.667 88 -67 166 -91 234s-45.333 139 -64 213l81 7
c34.667 -140 75.334 -268 122.001 -384h39c36.667 113.333 71.667 241.333 105 384l83 -7c-27.333 -112.667 -56.833 -219.167 -88.5 -319.5s-63.167 -187.166 -94.5 -260.499c-10.667 -25.333 -29.5 -45.833 -56.5 -61.5s-53.5 -23.5 -79.5 -23.5
c-33.333 0 -62.666 6.33301 -87.999 19z" />
    <glyph glyph-name="thorn" unicode="&#xfe;" horiz-adv-x="495" 
d="M75 676l85 -0.00195312v-237h7c38.667 24 79.667 36 123 36c56 0 97.5 -19.167 124.5 -57.5s40.5 -89.166 40.5 -152.499s-13.5 -114.166 -40.5 -152.499s-68.5 -57.5 -124.5 -57.5c-43.333 0 -84.333 12 -123 36h-7v-271h-85v856zM345.5 166.498
c16.333 23 24.5 55.833 24.5 98.5s-8.16699 75.5 -24.5 98.5s-43.833 34.5 -82.5 34.5c-34.667 0 -69 -6.66699 -103 -20v-226c34 -13.333 68.333 -20 103 -20c38.667 0 66.167 11.5 82.5 34.5z" />
    <glyph glyph-name="ydieresis" unicode="&#xff;" horiz-adv-x="496" 
d="M138.5 558.5c-8.33301 7.66699 -12.5 18.167 -12.5 31.5c0 14 4.16699 24.833 12.5 32.5s19.5 11.5 33.5 11.5c14.667 0 26 -3.83301 34 -11.5s12 -18.5 12 -32.5c0 -13.333 -4 -23.833 -12 -31.5s-19.333 -11.5 -34 -11.5c-14 0 -25.167 3.83301 -33.5 11.5z
M295.5 558.5c-8.33301 7.66699 -12.5 18.167 -12.5 31.5c0 14 4.16699 24.833 12.5 32.5s19.833 11.5 34.5 11.5s26 -3.83301 34 -11.5s12 -18.5 12 -32.5c0 -13.333 -4 -23.833 -12 -31.5s-19.333 -11.5 -34 -11.5s-26.167 3.83301 -34.5 11.5zM53 -178l-0.00292969 31
c0 21.333 3.33301 42.333 10 63h59v-44c9.33301 -2 21 -3 35 -3c6.66699 0 18.667 1.33301 36 4c16.667 39.333 35.334 88.666 56.001 147.999h-64c-36.667 88 -67 166 -91 234s-45.333 139 -64 213l81 7c34.667 -140 75.334 -268 122.001 -384h39
c36.667 113.333 71.667 241.333 105 384l83 -7c-27.333 -112.667 -56.833 -219.167 -88.5 -319.5s-63.167 -187.166 -94.5 -260.499c-10.667 -25.333 -29.5 -45.833 -56.5 -61.5s-53.5 -23.5 -79.5 -23.5c-33.333 0 -62.666 6.33301 -87.999 19z" />
    <glyph glyph-name="Amacron" unicode="&#x100;" horiz-adv-x="607" 
d="M150 766h306v-70h-306v70zM35 7c27.333 102.667 58.501 208.667 93.501 318s68.833 206.333 101.5 291h147c32.667 -84.667 66.5 -181.667 101.5 -291s66.167 -215.333 93.5 -318l-91 -7c-18.667 74 -36.334 140.667 -53.001 200h-250c-20 -69.333 -37.333 -136 -52 -200
zM406.001 275c-34.667 117.333 -62 204 -82 260h-41c-24 -68 -51.667 -154.667 -83 -260h206z" />
    <glyph glyph-name="amacron" unicode="&#x101;" horiz-adv-x="474" 
d="M90 623h306v-70h-306v70zM75.5 24.5c-23.667 21.667 -35.5 51.168 -35.5 88.501c0 50.667 19.333 88.334 58 113.001s92 37 160 37c22 0 44 -1 66 -3v62c0 36 -7.33301 60.5 -22 73.5s-40.667 19.5 -78 19.5c-22.667 0 -44.667 -1.33301 -66 -4l-10 -75h-61
c-8.66699 23.333 -13 45.666 -13 66.999v25c20 12.667 47.167 24.167 81.5 34.5s65.833 15.5 94.5 15.5c50 0 88.5 -12.833 115.5 -38.5s40.5 -61.834 40.5 -108.501v-331h-73l-4 66h-8c-16.667 -23.333 -37.5 -41.5 -62.5 -54.5s-51.5 -19.5 -79.5 -19.5
c-45.333 0 -79.833 10.833 -103.5 32.5zM267 75.001c24 12.667 43.667 30.668 59 54.001v74c-23.333 5.33301 -54 8 -92 8c-42 0 -72.667 -2.66699 -92 -8c-6 -14.667 -10.167 -27.834 -12.5 -39.501s-3.5 -25.5 -3.5 -41.5c0 -24 5.5 -41 16.5 -51s26.833 -15 47.5 -15
c27.333 0 53 6.33301 77 19z" />
    <glyph glyph-name="Abreve" unicode="&#x102;" horiz-adv-x="607" 
d="M207.5 715.5c-22.333 19.667 -35.502 47.5 -39.502 83.5l77 12c1.33301 -21.333 6 -36.833 14 -46.5s22.667 -14.5 44 -14.5s36 4.83301 44 14.5s12.667 25.167 14 46.5l77 -12c-4 -36 -17.167 -63.833 -39.5 -83.5s-54.166 -29.5 -95.499 -29.5
s-73.166 9.83301 -95.499 29.5zM34.998 7c27.333 102.667 58.501 208.667 93.501 318s68.833 206.333 101.5 291h147c32.667 -84.667 66.5 -181.667 101.5 -291s66.167 -215.333 93.5 -318l-91 -7c-18.667 74 -36.334 140.667 -53.001 200h-250
c-20 -69.333 -37.333 -136 -52 -200zM405.999 275c-34.667 117.333 -62 204 -82 260h-41c-24 -68 -51.667 -154.667 -83 -260h206z" />
    <glyph glyph-name="abreve" unicode="&#x103;" horiz-adv-x="474" 
d="M156.5 571.5c-22.333 19.667 -35.502 47.5 -39.502 83.5l77 12c1.33301 -21.333 6 -36.833 14 -46.5s22.667 -14.5 44 -14.5s36 4.83301 44 14.5s12.667 25.167 14 46.5l77 -12c-4 -36 -17.167 -63.833 -39.5 -83.5s-54.166 -29.5 -95.499 -29.5
s-73.166 9.83301 -95.499 29.5zM75.498 24.5c-23.667 21.667 -35.5 51.168 -35.5 88.501c0 50.667 19.333 88.334 58 113.001s92 37 160 37c22 0 44 -1 66 -3v62c0 36 -7.33301 60.5 -22 73.5s-40.667 19.5 -78 19.5c-22.667 0 -44.667 -1.33301 -66 -4l-10 -75h-61
c-8.66699 23.333 -13 45.666 -13 66.999v25c20 12.667 47.167 24.167 81.5 34.5s65.833 15.5 94.5 15.5c50 0 88.5 -12.833 115.5 -38.5s40.5 -61.834 40.5 -108.501v-331h-73l-4 66h-8c-16.667 -23.333 -37.5 -41.5 -62.5 -54.5s-51.5 -19.5 -79.5 -19.5
c-45.333 0 -79.833 10.833 -103.5 32.5zM266.998 75.001c24 12.667 43.667 30.668 59 54.001v74c-23.333 5.33301 -54 8 -92 8c-42 0 -72.667 -2.66699 -92 -8c-6 -14.667 -10.167 -27.834 -12.5 -39.501s-3.5 -25.5 -3.5 -41.5c0 -24 5.5 -41 16.5 -51s26.833 -15 47.5 -15
c27.333 0 53 6.33301 77 19z" />
    <glyph glyph-name="Aogonek" unicode="&#x104;" horiz-adv-x="607" 
d="M431 -140.5c-18.667 13.667 -28.001 33.5029 -28.001 59.5029c0 22 6.5 40.167 19.5 54.5s31.5 27.166 55.5 38.499l-50 188h-250c-20 -69.333 -37.333 -136 -52 -200l-91 7c27.333 102.667 58.5 208.667 93.5 318s68.833 206.333 101.5 291h147
c32.667 -84.667 66.5 -181.667 101.5 -291s66.167 -215.333 93.5 -318l-35 -3c-23.333 -12.667 -39.333 -24.834 -48 -36.501s-13 -25.834 -13 -42.501c0 -8.66699 1 -16 3 -22c8.66699 -2.66699 21.334 -4 38.001 -4c16 0 29.667 1.66699 41 5l14 -54
c-18 -7.33301 -39.667 -11 -65 -11c-32 0 -57.333 6.83301 -76 20.5zM405.999 275.003c-34.667 117.333 -62 204 -82 260h-41c-24 -68 -51.667 -154.667 -83 -260h206z" />
    <glyph glyph-name="aogonek" unicode="&#x105;" horiz-adv-x="474" 
d="M416 -156c-18 -7.33301 -39.668 -10.999 -65.001 -10.999c-32 0 -57.333 6.83301 -76 20.5s-28 33.5 -28 59.5c0 24 7.5 43.5 22.5 58.5s36.167 28.167 63.5 39.5l-4 55h-8c-16.667 -23.333 -37.5 -41.5 -62.5 -54.5s-51.5 -19.5 -79.5 -19.5
c-45.333 0 -79.833 10.833 -103.5 32.5s-35.5 51.167 -35.5 88.5c0 50.667 19.333 88.334 58 113.001s92 37 160 37c22 0 44 -1 66 -3v62c0 36 -7.33301 60.5 -22 73.5s-40.667 19.5 -78 19.5c-22.667 0 -44.667 -1.33301 -66 -4l-10 -75h-61
c-8.66699 23.333 -13 45.666 -13 66.999v25c20 12.667 47.167 24.167 81.5 34.5s65.833 15.5 94.5 15.5c50 0 88.5 -12.833 115.5 -38.5s40.5 -61.834 40.5 -108.501v-331h-23c-24 -14 -40.5 -27 -49.5 -39s-13.5 -26 -13.5 -42c0 -8.66699 1 -16 3 -22
c8.66699 -2.66699 21.334 -4 38.001 -4c15.333 0 29 1.66699 41 5zM325.999 203.001c-23.333 5.33301 -54 8.00098 -92 8.00098c-42 0 -72.667 -2.66699 -92 -8c-6 -14.667 -10.167 -27.834 -12.5 -39.501s-3.5 -25.5 -3.5 -41.5c0 -24 5.5 -41 16.5 -51
s26.833 -15 47.5 -15c27.333 0 53 6.33301 77 19s43.667 30.667 59 54v74z" />
    <glyph glyph-name="Cacute" unicode="&#x106;" horiz-adv-x="567" 
d="M282 696l83 145l106 -11l-125 -144zM119 67c-43.333 50 -64.9971 124 -64.9971 222c0 102.667 21.667 184.5 65 245.5s107.666 91.5 192.999 91.5c36 0 72.667 -4 110 -12s64.333 -17.667 81 -29v-56c0 -25.333 -4.33301 -48.333 -13 -69h-59l-10 79
c-30 6 -66.667 9 -110 9c-38.667 0 -78.334 -4.33301 -119.001 -13c-16.667 -30.667 -29.667 -67 -39 -109s-14 -85.667 -14 -131c0 -80 14 -137.5 42 -172.5s75 -52.5 141 -52.5c31.333 0 62.166 3.83301 92.499 11.5s54.166 18.167 71.499 31.5l39 -64
c-21.333 -18 -50.166 -32 -86.499 -42s-75.833 -15 -118.5 -15c-90.667 0 -157.667 25 -201 75z" />
    <glyph glyph-name="cacute" unicode="&#x107;" horiz-adv-x="451" 
d="M205 551l83 145l106 -11l-125 -144zM95 52.5c-32 40.333 -47.9961 96.832 -47.9961 169.499c0 79.333 17.333 141.833 52 187.5s86 68.5 154 68.5c28.667 0 56.167 -3.83301 82.5 -11.5s47.833 -17.5 64.5 -29.5v-36c0 -29.333 -4.33301 -55.666 -13 -78.999h-59l-8 74
c-21.333 6 -45.333 9 -72 9c-18 0 -36 -1.16699 -54 -3.5s-32.333 -5.5 -43 -9.5c-6.66699 -17.333 -12.334 -42.5 -17.001 -75.5s-7 -64.5 -7 -94.5c0 -53.333 10.167 -92.833 30.5 -118.5s55.833 -38.5 106.5 -38.5c49.333 0 90.666 14.333 123.999 43l37 -57
c-22.667 -19.333 -46.834 -34 -72.501 -44s-55.834 -15 -90.501 -15c-79.333 0 -135 20.167 -167 60.5z" />
    <glyph glyph-name="Ccircumflex" unicode="&#x108;" horiz-adv-x="567" 
d="M189 695l100 133h75l99 -133l-53 -11l-81 75h-5l-84 -75zM119 67c-43.333 50 -64.9971 124 -64.9971 222c0 102.667 21.667 184.5 65 245.5s107.666 91.5 192.999 91.5c36 0 72.667 -4 110 -12s64.333 -17.667 81 -29v-56c0 -25.333 -4.33301 -48.333 -13 -69h-59l-10 79
c-30 6 -66.667 9 -110 9c-38.667 0 -78.334 -4.33301 -119.001 -13c-16.667 -30.667 -29.667 -67 -39 -109s-14 -85.667 -14 -131c0 -80 14 -137.5 42 -172.5s75 -52.5 141 -52.5c31.333 0 62.166 3.83301 92.499 11.5s54.166 18.167 71.499 31.5l39 -64
c-21.333 -18 -50.166 -32 -86.499 -42s-75.833 -15 -118.5 -15c-90.667 0 -157.667 25 -201 75z" />
    <glyph glyph-name="ccircumflex" unicode="&#x109;" horiz-adv-x="451" 
d="M110 551l100 133h75l99 -133l-53 -11l-81 75h-5l-84 -75zM95 52.5c-32 40.333 -47.9961 96.832 -47.9961 169.499c0 79.333 17.333 141.833 52 187.5s86 68.5 154 68.5c28.667 0 56.167 -3.83301 82.5 -11.5s47.833 -17.5 64.5 -29.5v-36
c0 -29.333 -4.33301 -55.666 -13 -78.999h-59l-8 74c-21.333 6 -45.333 9 -72 9c-18 0 -36 -1.16699 -54 -3.5s-32.333 -5.5 -43 -9.5c-6.66699 -17.333 -12.334 -42.5 -17.001 -75.5s-7 -64.5 -7 -94.5c0 -53.333 10.167 -92.833 30.5 -118.5s55.833 -38.5 106.5 -38.5
c49.333 0 90.666 14.333 123.999 43l37 -57c-22.667 -19.333 -46.834 -34 -72.501 -44s-55.834 -15 -90.501 -15c-79.333 0 -135 20.167 -167 60.5z" />
    <glyph glyph-name="Cdotaccent" unicode="&#x10a;" horiz-adv-x="567" 
d="M272 706c-10.667 10 -15.9961 23.667 -15.9961 41c0 18.667 5.16699 33 15.5 43s25.166 15 44.499 15s34.166 -5 44.499 -15s15.5 -24.333 15.5 -43c0 -17.333 -5.33301 -31 -16 -41s-25.334 -15 -44.001 -15s-33.334 5 -44.001 15zM119.004 67
c-43.333 50 -64.9971 124 -64.9971 222c0 102.667 21.667 184.5 65 245.5s107.666 91.5 192.999 91.5c36 0 72.667 -4 110 -12s64.333 -17.667 81 -29v-56c0 -25.333 -4.33301 -48.333 -13 -69h-59l-10 79c-30 6 -66.667 9 -110 9c-38.667 0 -78.334 -4.33301 -119.001 -13
c-16.667 -30.667 -29.667 -67 -39 -109s-14 -85.667 -14 -131c0 -80 14 -137.5 42 -172.5s75 -52.5 141 -52.5c31.333 0 62.166 3.83301 92.499 11.5s54.166 18.167 71.499 31.5l39 -64c-21.333 -18 -50.166 -32 -86.499 -42s-75.833 -15 -118.5 -15
c-90.667 0 -157.667 25 -201 75z" />
    <glyph glyph-name="cdotaccent" unicode="&#x10b;" horiz-adv-x="451" 
d="M211 562c-10.667 10 -15.9961 23.667 -15.9961 41c0 18.667 5.16699 33 15.5 43s25.166 15 44.499 15s34.166 -5 44.499 -15s15.5 -24.333 15.5 -43c0 -17.333 -5.33301 -31 -16 -41s-25.334 -15 -44.001 -15s-33.334 5 -44.001 15zM95.0039 52.5
c-32 40.333 -47.9961 96.832 -47.9961 169.499c0 79.333 17.333 141.833 52 187.5s86 68.5 154 68.5c28.667 0 56.167 -3.83301 82.5 -11.5s47.833 -17.5 64.5 -29.5v-36c0 -29.333 -4.33301 -55.666 -13 -78.999h-59l-8 74c-21.333 6 -45.333 9 -72 9
c-18 0 -36 -1.16699 -54 -3.5s-32.333 -5.5 -43 -9.5c-6.66699 -17.333 -12.334 -42.5 -17.001 -75.5s-7 -64.5 -7 -94.5c0 -53.333 10.167 -92.833 30.5 -118.5s55.833 -38.5 106.5 -38.5c49.333 0 90.666 14.333 123.999 43l37 -57
c-22.667 -19.333 -46.834 -34 -72.501 -44s-55.834 -15 -90.501 -15c-79.333 0 -135 20.167 -167 60.5z" />
    <glyph glyph-name="Ccaron" unicode="&#x10c;" horiz-adv-x="567" 
d="M173 829l51 11l84 -75h5l81 75l53 -11l-99 -133h-75zM119 67c-43.333 50 -64.9971 124 -64.9971 222c0 102.667 21.667 184.5 65 245.5s107.666 91.5 192.999 91.5c36 0 72.667 -4 110 -12s64.333 -17.667 81 -29v-56c0 -25.333 -4.33301 -48.333 -13 -69h-59l-10 79
c-30 6 -66.667 9 -110 9c-38.667 0 -78.334 -4.33301 -119.001 -13c-16.667 -30.667 -29.667 -67 -39 -109s-14 -85.667 -14 -131c0 -80 14 -137.5 42 -172.5s75 -52.5 141 -52.5c31.333 0 62.166 3.83301 92.499 11.5s54.166 18.167 71.499 31.5l39 -64
c-21.333 -18 -50.166 -32 -86.499 -42s-75.833 -15 -118.5 -15c-90.667 0 -157.667 25 -201 75z" />
    <glyph glyph-name="ccaron" unicode="&#x10d;" horiz-adv-x="451" 
d="M115 685l51 11l84 -75h5l81 75l53 -11l-99 -133h-75zM95 52.5c-32 40.333 -47.9961 96.832 -47.9961 169.499c0 79.333 17.333 141.833 52 187.5s86 68.5 154 68.5c28.667 0 56.167 -3.83301 82.5 -11.5s47.833 -17.5 64.5 -29.5v-36
c0 -29.333 -4.33301 -55.666 -13 -78.999h-59l-8 74c-21.333 6 -45.333 9 -72 9c-18 0 -36 -1.16699 -54 -3.5s-32.333 -5.5 -43 -9.5c-6.66699 -17.333 -12.334 -42.5 -17.001 -75.5s-7 -64.5 -7 -94.5c0 -53.333 10.167 -92.833 30.5 -118.5s55.833 -38.5 106.5 -38.5
c49.333 0 90.666 14.333 123.999 43l37 -57c-22.667 -19.333 -46.834 -34 -72.501 -44s-55.834 -15 -90.501 -15c-79.333 0 -135 20.167 -167 60.5z" />
    <glyph glyph-name="Dcaron" unicode="&#x10e;" horiz-adv-x="585" 
d="M149 829l51 11l84 -75h5l81 75l53 -11l-99 -133h-75zM75 606c54.667 13.333 113.668 20 177.001 20c103.333 0 177 -26.667 221 -80s66 -130.333 66 -231c0 -71.333 -8.5 -129.5 -25.5 -174.5s-48.833 -79.667 -95.5 -104s-113.334 -36.5 -200.001 -36.5h-143v606z
M219.001 78c82 0 148.667 7.33203 200 21.999c10.667 23.333 19.167 53.333 25.5 90s9.5 75.334 9.5 116.001c0 56.667 -6 102.5 -18 137.5s-32.833 61.333 -62.5 79s-71.5 26.5 -125.5 26.5c-28 0 -57.333 -2 -88 -6v-465h59z" />
    <glyph glyph-name="dcaron" unicode="&#x10f;" horiz-adv-x="643" 
d="M536 494c22.667 42 34 81 34 117h-53v56c16 6 32.667 9 50 9c22.667 0 39.334 -6 50.001 -18s16 -30 16 -54c0 -20 -4.33301 -40.833 -13 -62.5s-20.334 -41.167 -35.001 -58.5zM92 54c-28 41.333 -42.001 101.668 -42.001 181.001c0 69.333 13.667 127.166 41 173.499
s71.333 69.5 132 69.5c28 0 55 -5.83301 81 -17.5s48.333 -27.167 67 -46.5h6l-3 65v192h82v-671h-73l-4 64h-8c-17.333 -22 -37.166 -39.5 -59.499 -52.5s-49.5 -19.5 -81.5 -19.5c-64 0 -110 20.667 -138 62zM327.499 84.502c20.333 15 35.833 33.166 46.5 54.499v212
c-34 38 -76 57 -126 57c-40 0 -68.667 -14.667 -86 -44s-26 -73.333 -26 -132c0 -41.333 3.33301 -74.166 10 -98.499s18.5 -42.333 35.5 -54s41.167 -17.5 72.5 -17.5c28.667 0 53.167 7.5 73.5 22.5z" />
    <glyph glyph-name="Dcroat" unicode="&#x110;" horiz-adv-x="636" 
d="M126 268h-80.999v74h81v264c54.667 13.333 113.667 20 177 20c103.333 0 177 -26.667 221 -80s66 -130.333 66 -231c0 -71.333 -8.5 -129.5 -25.5 -174.5s-48.833 -79.667 -95.5 -104s-113.334 -36.5 -200.001 -36.5h-143v268zM270.001 78
c82 0 148.666 7.33203 199.999 21.999c10.667 23.333 19.167 53.333 25.5 90s9.5 75.334 9.5 116.001c0 56.667 -6 102.5 -18 137.5s-32.833 61.333 -62.5 79s-71.5 26.5 -125.5 26.5c-27.333 0 -56.666 -2 -87.999 -6v-201h96v-74h-96v-190h59z" />
    <glyph glyph-name="dcroat" unicode="&#x111;" horiz-adv-x="559" 
d="M92 54c-28 41.333 -42.001 101.668 -42.001 181.001c0 69.333 13.667 127.166 41 173.499s71.333 69.5 132 69.5c28 0 55 -5.83301 81 -17.5s48.333 -27.167 67 -46.5h6l-3 65v58h-139v60h139v74h82v-74h58v-60h-58v-537h-73l-4 64h-8
c-17.333 -22 -37.166 -39.5 -59.499 -52.5s-49.5 -19.5 -81.5 -19.5c-64 0 -110 20.667 -138 62zM327.499 84.502c20.333 15 35.833 33.166 46.5 54.499v212c-34 38 -76 57 -126 57c-40 0 -68.667 -14.667 -86 -44s-26 -73.333 -26 -132
c0 -41.333 3.33301 -74.166 10 -98.499s18.5 -42.333 35.5 -54s41.167 -17.5 72.5 -17.5c28.667 0 53.167 7.5 73.5 22.5z" />
    <glyph glyph-name="Emacron" unicode="&#x112;" horiz-adv-x="539" 
d="M121 767h306v-70h-306v70zM131 14.5c-37.333 15 -56 41.167 -56 78.5v523h393v-77h-309v-194h280v-75h-280v-191c40 -6.66699 83.667 -10 131 -10c63.333 0 120 6 170 18l19 -74c-47.333 -14 -111.333 -21 -192 -21c-66.667 0 -118.667 7.5 -156 22.5z" />
    <glyph glyph-name="emacron" unicode="&#x113;" horiz-adv-x="488" 
d="M104 623h306v-70h-306v70zM50 231c0 77.333 18.499 137.834 55.499 181.501s89.833 65.5 158.5 65.5c58.667 0 102.5 -16.833 131.5 -50.5s43.5 -79.834 43.5 -138.501c0 -13.333 -0.333008 -23.333 -1 -30l-60 -59l-249 4c1.33301 -46.667 13.333 -82.167 36 -106.5
s56 -36.5 100 -36.5c30 0 55.833 3.83301 77.5 11.5s43.834 19.167 66.501 34.5l26 -63c-26.667 -16.667 -53 -29.5 -79 -38.5s-58 -13.5 -96 -13.5c-140 0 -210 79.667 -210 239zM357.999 266.001c4 18 5.99902 34.333 5.99902 49c0 29.333 -8.66699 52.333 -26 69
s-43.666 25 -78.999 25c-48 0 -81.5 -11.5 -100.5 -34.5s-29.167 -60.5 -30.5 -112.5z" />
    <glyph glyph-name="Ebreve" unicode="&#x114;" horiz-adv-x="539" 
d="M193.5 720.5c-22.333 19.667 -35.502 47.5 -39.502 83.5l77 12c1.33301 -21.333 6 -36.833 14 -46.5s22.667 -14.5 44 -14.5s36 4.83301 44 14.5s12.667 25.167 14 46.5l77 -12c-4 -36 -17.167 -63.833 -39.5 -83.5s-54.166 -29.5 -95.499 -29.5
s-73.166 9.83301 -95.499 29.5zM130.998 14.5c-37.333 15 -56 41.167 -56 78.5v523h393v-77h-309v-194h280v-75h-280v-191c40 -6.66699 83.667 -10 131 -10c63.333 0 120 6 170 18l19 -74c-47.333 -14 -111.333 -21 -192 -21c-66.667 0 -118.667 7.5 -156 22.5z" />
    <glyph glyph-name="ebreve" unicode="&#x115;" horiz-adv-x="488" 
d="M158.5 576.5c-22.333 19.667 -35.502 47.5 -39.502 83.5l77 12c1.33301 -21.333 6 -36.833 14 -46.5s22.667 -14.5 44 -14.5s36 4.83301 44 14.5s12.667 25.167 14 46.5l77 -12c-4 -36 -17.167 -63.833 -39.5 -83.5s-54.166 -29.5 -95.499 -29.5
s-73.166 9.83301 -95.499 29.5zM49.998 231c0 77.333 18.499 137.834 55.499 181.501s89.833 65.5 158.5 65.5c58.667 0 102.5 -16.833 131.5 -50.5s43.5 -79.834 43.5 -138.501c0 -13.333 -0.333008 -23.333 -1 -30l-60 -59l-249 4
c1.33301 -46.667 13.333 -82.167 36 -106.5s56 -36.5 100 -36.5c30 0 55.833 3.83301 77.5 11.5s43.834 19.167 66.501 34.5l26 -63c-26.667 -16.667 -53 -29.5 -79 -38.5s-58 -13.5 -96 -13.5c-140 0 -210 79.667 -210 239zM357.997 266.001
c4 18 5.99902 34.333 5.99902 49c0 29.333 -8.66699 52.333 -26 69s-43.666 25 -78.999 25c-48 0 -81.5 -11.5 -100.5 -34.5s-29.167 -60.5 -30.5 -112.5z" />
    <glyph glyph-name="Edotaccent" unicode="&#x116;" horiz-adv-x="539" 
d="M240 706c-10.667 10 -15.9961 23.667 -15.9961 41c0 18.667 5.16699 33 15.5 43s25.166 15 44.499 15s34.166 -5 44.499 -15s15.5 -24.333 15.5 -43c0 -17.333 -5.33301 -31 -16 -41s-25.334 -15 -44.001 -15s-33.334 5 -44.001 15zM131.004 14.5
c-37.333 15 -56 41.167 -56 78.5v523h393v-77h-309v-194h280v-75h-280v-191c40 -6.66699 83.667 -10 131 -10c63.333 0 120 6 170 18l19 -74c-47.333 -14 -111.333 -21 -192 -21c-66.667 0 -118.667 7.5 -156 22.5z" />
    <glyph glyph-name="edotaccent" unicode="&#x117;" horiz-adv-x="488" 
d="M210 552c-10.667 10 -15.9961 23.667 -15.9961 41c0 18.667 5.16699 33 15.5 43s25.166 15 44.499 15s34.166 -5 44.499 -15s15.5 -24.333 15.5 -43c0 -17.333 -5.33301 -31 -16 -41s-25.334 -15 -44.001 -15s-33.334 5 -44.001 15zM50.0039 231
c0 77.333 18.499 137.834 55.499 181.501s89.833 65.5 158.5 65.5c58.667 0 102.5 -16.833 131.5 -50.5s43.5 -79.834 43.5 -138.501c0 -13.333 -0.333008 -23.333 -1 -30l-60 -59l-249 4c1.33301 -46.667 13.333 -82.167 36 -106.5s56 -36.5 100 -36.5
c30 0 55.833 3.83301 77.5 11.5s43.834 19.167 66.501 34.5l26 -63c-26.667 -16.667 -53 -29.5 -79 -38.5s-58 -13.5 -96 -13.5c-140 0 -210 79.667 -210 239zM358.003 266.001c4 18 5.99902 34.333 5.99902 49c0 29.333 -8.66699 52.333 -26 69s-43.666 25 -78.999 25
c-48 0 -81.5 -11.5 -100.5 -34.5s-29.167 -60.5 -30.5 -112.5z" />
    <glyph glyph-name="Eogonek" unicode="&#x118;" horiz-adv-x="539" 
d="M371 -135.5c-18.667 13.667 -28.001 33.502 -28.001 59.502c0 29.333 12.667 53.333 38 72c-38.667 -2.66699 -70 -4 -94 -4c-66.667 0 -118.667 7.5 -156 22.5s-56 41.167 -56 78.5v523h393v-77h-309v-194h280v-75h-280v-191c40 -6.66699 83.667 -10 131 -10
c63.333 0 120 6 170 18l20 -76l-24 -11c-15.333 -10.667 -25.833 -21.334 -31.5 -32.001s-8.5 -23.334 -8.5 -38.001c0 -8.66699 1 -16 3 -22c8.66699 -2.66699 21.334 -4 38.001 -4c16 0 29.667 1.66699 41 5l14 -54c-18 -7.33301 -39.667 -11 -65 -11
c-32 0 -57.333 6.83301 -76 20.5z" />
    <glyph glyph-name="eogonek" unicode="&#x119;" horiz-adv-x="488" 
d="M326 -100.5c-18.667 13.667 -28.002 33.501 -28.002 59.501c0 14 2.33301 26 7 36c-14 -2 -29 -3 -45 -3c-140 0 -210 79.667 -210 239c0 77.333 18.5 137.833 55.5 181.5s89.833 65.5 158.5 65.5c58.667 0 102.5 -16.833 131.5 -50.5s43.5 -79.834 43.5 -138.501
c0 -13.333 -0.333008 -23.333 -1 -30l-60 -59l-249 4c1.33301 -46.667 13.333 -82.167 36 -106.5s56 -36.5 100 -36.5c30 0 55.833 3.83301 77.5 11.5s43.834 19.167 66.501 34.5l26 -63c-18 -10.667 -28.333 -16.667 -31 -18c-12 -9.33301 -20.5 -18.833 -25.5 -28.5
s-7.5 -20.5 -7.5 -32.5c0 -8.66699 1 -16 3 -22c8.66699 -2.66699 21.334 -4 38.001 -4c16 0 29.667 1.66699 41 5l14 -54c-18 -7.33301 -39.667 -11 -65 -11c-32 0 -57.333 6.83301 -76 20.5zM357.998 266.001c4 18 5.99902 34.333 5.99902 49
c0 29.333 -8.66699 52.333 -26 69s-43.666 25 -78.999 25c-48 0 -81.5 -11.5 -100.5 -34.5s-29.167 -60.5 -30.5 -112.5z" />
    <glyph glyph-name="Ecaron" unicode="&#x11a;" horiz-adv-x="539" 
d="M148 829l51 11l84 -75h5l81 75l53 -11l-99 -133h-75zM131 14.5c-37.333 15 -56 41.167 -56 78.5v523h393v-77h-309v-194h280v-75h-280v-191c40 -6.66699 83.667 -10 131 -10c63.333 0 120 6 170 18l19 -74c-47.333 -14 -111.333 -21 -192 -21
c-66.667 0 -118.667 7.5 -156 22.5z" />
    <glyph glyph-name="ecaron" unicode="&#x11b;" horiz-adv-x="488" 
d="M117 685l51 11l84 -75h5l81 75l53 -11l-99 -133h-75zM50 231c0 77.333 18.499 137.834 55.499 181.501s89.833 65.5 158.5 65.5c58.667 0 102.5 -16.833 131.5 -50.5s43.5 -79.834 43.5 -138.501c0 -13.333 -0.333008 -23.333 -1 -30l-60 -59l-249 4
c1.33301 -46.667 13.333 -82.167 36 -106.5s56 -36.5 100 -36.5c30 0 55.833 3.83301 77.5 11.5s43.834 19.167 66.501 34.5l26 -63c-26.667 -16.667 -53 -29.5 -79 -38.5s-58 -13.5 -96 -13.5c-140 0 -210 79.667 -210 239zM357.999 266.001
c4 18 5.99902 34.333 5.99902 49c0 29.333 -8.66699 52.333 -26 69s-43.666 25 -78.999 25c-48 0 -81.5 -11.5 -100.5 -34.5s-29.167 -60.5 -30.5 -112.5z" />
    <glyph glyph-name="Gcircumflex" unicode="&#x11c;" horiz-adv-x="598" 
d="M175 695l100 133h75l99 -133l-53 -11l-81 75h-5l-84 -75zM124 68c-46.667 50.667 -69.999 124.332 -69.999 220.999c0 106.667 23 189.5 69 248.5s115.333 88.5 208 88.5c40.667 0 79.5 -4 116.5 -12s64.167 -17.667 81.5 -29v-56c0 -25.333 -4.33301 -48.333 -13 -69
h-59l-10 79c-11.333 2.66699 -28.166 4.83398 -50.499 6.50098s-44.5 2.5 -66.5 2.5c-50 0 -93.667 -4 -131 -12c-18 -32 -32.5 -69.333 -43.5 -112s-16.5 -85.667 -16.5 -129c0 -78 16.167 -135 48.5 -171s82.166 -54 149.499 -54c47.333 0 87 4 119 12v175h-144v75h187
l41 -34v-164c0 -27.333 -9.33301 -51.833 -28 -73.5s-44.5 -38.5 -77.5 -50.5s-69.833 -18 -110.5 -18c-86.667 0 -153.334 25.333 -200.001 76z" />
    <glyph glyph-name="gcircumflex" unicode="&#x11d;" horiz-adv-x="514" 
d="M124 551l100 133h75l99 -133l-53 -11l-81 75h-5l-84 -75zM155 -185.5c-30.667 7.66699 -55.668 17.5 -75.001 29.5l23 63c19.333 -10 41.5 -18 66.5 -24s49.167 -9 72.5 -9c26.667 0 49.5 1.83301 68.5 5.5s37.167 9.5 54.5 17.5v115l3 66h-8
c-19.333 -22 -41.166 -39.833 -65.499 -53.5s-50.166 -20.5 -77.499 -20.5c-60 0 -102.833 20.833 -128.5 62.5s-38.5 93.5 -38.5 155.5c0 82 13 145.167 39 189.5s72.667 66.5 140 66.5c61.333 0 105.333 -27 132 -81h7l6 73h70v-518c0 -48.667 -17.5 -85.667 -52.5 -111
s-82.167 -38 -141.5 -38c-32.667 0 -64.334 3.83301 -95.001 11.5zM304.999 90.5c21.333 11.667 40.333 28.499 57 50.499v201c-34.667 45.333 -75.667 68 -123 68c-41.333 0 -69.166 -14.333 -83.499 -43s-21.5 -73.667 -21.5 -135c0 -55.333 8.33301 -95.666 25 -120.999
s43 -38 79 -38c23.333 0 45.666 5.83301 66.999 17.5z" />
    <glyph glyph-name="Gbreve" unicode="&#x11e;" horiz-adv-x="598" 
d="M223.5 720.5c-22.333 19.667 -35.502 47.5 -39.502 83.5l77 12c1.33301 -21.333 6 -36.833 14 -46.5s22.667 -14.5 44 -14.5s36 4.83301 44 14.5s12.667 25.167 14 46.5l77 -12c-4 -36 -17.167 -63.833 -39.5 -83.5s-54.166 -29.5 -95.499 -29.5
s-73.166 9.83301 -95.499 29.5zM123.998 68c-46.667 50.667 -69.999 124.332 -69.999 220.999c0 106.667 23 189.5 69 248.5s115.333 88.5 208 88.5c40.667 0 79.5 -4 116.5 -12s64.167 -17.667 81.5 -29v-56c0 -25.333 -4.33301 -48.333 -13 -69h-59l-10 79
c-11.333 2.66699 -28.166 4.83398 -50.499 6.50098s-44.5 2.5 -66.5 2.5c-50 0 -93.667 -4 -131 -12c-18 -32 -32.5 -69.333 -43.5 -112s-16.5 -85.667 -16.5 -129c0 -78 16.167 -135 48.5 -171s82.166 -54 149.499 -54c47.333 0 87 4 119 12v175h-144v75h187l41 -34v-164
c0 -27.333 -9.33301 -51.833 -28 -73.5s-44.5 -38.5 -77.5 -50.5s-69.833 -18 -110.5 -18c-86.667 0 -153.334 25.333 -200.001 76z" />
    <glyph glyph-name="gbreve" unicode="&#x11f;" horiz-adv-x="514" 
d="M171.5 576.5c-22.333 19.667 -35.502 47.5 -39.502 83.5l77 12c1.33301 -21.333 6 -36.833 14 -46.5s22.667 -14.5 44 -14.5s36 4.83301 44 14.5s12.667 25.167 14 46.5l77 -12c-4 -36 -17.167 -63.833 -39.5 -83.5s-54.166 -29.5 -95.499 -29.5
s-73.166 9.83301 -95.499 29.5zM154.998 -185.5c-30.667 7.66699 -55.668 17.5 -75.001 29.5l23 63c19.333 -10 41.5 -18 66.5 -24s49.167 -9 72.5 -9c26.667 0 49.5 1.83301 68.5 5.5s37.167 9.5 54.5 17.5v115l3 66h-8c-19.333 -22 -41.166 -39.833 -65.499 -53.5
s-50.166 -20.5 -77.499 -20.5c-60 0 -102.833 20.833 -128.5 62.5s-38.5 93.5 -38.5 155.5c0 82 13 145.167 39 189.5s72.667 66.5 140 66.5c61.333 0 105.333 -27 132 -81h7l6 73h70v-518c0 -48.667 -17.5 -85.667 -52.5 -111s-82.167 -38 -141.5 -38
c-32.667 0 -64.334 3.83301 -95.001 11.5zM304.997 90.5c21.333 11.667 40.333 28.499 57 50.499v201c-34.667 45.333 -75.667 68 -123 68c-41.333 0 -69.166 -14.333 -83.499 -43s-21.5 -73.667 -21.5 -135c0 -55.333 8.33301 -95.666 25 -120.999s43 -38 79 -38
c23.333 0 45.666 5.83301 66.999 17.5z" />
    <glyph glyph-name="Gdotaccent" unicode="&#x120;" horiz-adv-x="598" 
d="M278 706c-10.667 10 -15.9961 23.667 -15.9961 41c0 18.667 5.16699 33 15.5 43s25.166 15 44.499 15s34.166 -5 44.499 -15s15.5 -24.333 15.5 -43c0 -17.333 -5.33301 -31 -16 -41s-25.334 -15 -44.001 -15s-33.334 5 -44.001 15zM124.004 68
c-46.667 50.667 -69.999 124.332 -69.999 220.999c0 106.667 23 189.5 69 248.5s115.333 88.5 208 88.5c40.667 0 79.5 -4 116.5 -12s64.167 -17.667 81.5 -29v-56c0 -25.333 -4.33301 -48.333 -13 -69h-59l-10 79c-11.333 2.66699 -28.166 4.83398 -50.499 6.50098
s-44.5 2.5 -66.5 2.5c-50 0 -93.667 -4 -131 -12c-18 -32 -32.5 -69.333 -43.5 -112s-16.5 -85.667 -16.5 -129c0 -78 16.167 -135 48.5 -171s82.166 -54 149.499 -54c47.333 0 87 4 119 12v175h-144v75h187l41 -34v-164c0 -27.333 -9.33301 -51.833 -28 -73.5
s-44.5 -38.5 -77.5 -50.5s-69.833 -18 -110.5 -18c-86.667 0 -153.334 25.333 -200.001 76z" />
    <glyph glyph-name="gdotaccent" unicode="&#x121;" horiz-adv-x="514" 
d="M223 562c-10.667 10 -15.9961 23.667 -15.9961 41c0 18.667 5.16699 33 15.5 43s25.166 15 44.499 15s34.166 -5 44.499 -15s15.5 -24.333 15.5 -43c0 -17.333 -5.33301 -31 -16 -41s-25.334 -15 -44.001 -15s-33.334 5 -44.001 15zM155.004 -185.5
c-30.667 7.66699 -55.668 17.5 -75.001 29.5l23 63c19.333 -10 41.5 -18 66.5 -24s49.167 -9 72.5 -9c26.667 0 49.5 1.83301 68.5 5.5s37.167 9.5 54.5 17.5v115l3 66h-8c-19.333 -22 -41.166 -39.833 -65.499 -53.5s-50.166 -20.5 -77.499 -20.5
c-60 0 -102.833 20.833 -128.5 62.5s-38.5 93.5 -38.5 155.5c0 82 13 145.167 39 189.5s72.667 66.5 140 66.5c61.333 0 105.333 -27 132 -81h7l6 73h70v-518c0 -48.667 -17.5 -85.667 -52.5 -111s-82.167 -38 -141.5 -38c-32.667 0 -64.334 3.83301 -95.001 11.5z
M305.003 90.5c21.333 11.667 40.333 28.499 57 50.499v201c-34.667 45.333 -75.667 68 -123 68c-41.333 0 -69.166 -14.333 -83.499 -43s-21.5 -73.667 -21.5 -135c0 -55.333 8.33301 -95.666 25 -120.999s43 -38 79 -38c23.333 0 45.666 5.83301 66.999 17.5z" />
    <glyph glyph-name="Gcommaaccent" unicode="&#x122;" horiz-adv-x="598" 
d="M124 68c-46.667 50.667 -69.999 124.332 -69.999 220.999c0 106.667 23 189.5 69 248.5s115.333 88.5 208 88.5c40.667 0 79.5 -4 116.5 -12s64.167 -17.667 81.5 -29v-56c0 -25.333 -4.33301 -48.333 -13 -69h-59l-10 79
c-11.333 2.66699 -28.166 4.83398 -50.499 6.50098s-44.5 2.5 -66.5 2.5c-50 0 -93.667 -4 -131 -12c-18 -32 -32.5 -69.333 -43.5 -112s-16.5 -85.667 -16.5 -129c0 -78 16.167 -135 48.5 -171s82.166 -54 149.499 -54c47.333 0 87 4 119 12v175h-144v75h187l41 -34v-164
c0 -27.333 -9.33301 -51.833 -28 -73.5s-44.5 -38.5 -77.5 -50.5s-69.833 -18 -110.5 -18c-86.667 0 -153.334 25.333 -200.001 76zM292.001 -252.002c22.667 42 34 81 34 117h-53v56c16 6 32.667 9 50 9c22.667 0 39.334 -6 50.001 -18s16 -30 16 -54
c0 -20 -4.33301 -40.833 -13 -62.5s-20.334 -41.167 -35.001 -58.5z" />
    <glyph glyph-name="gcommaaccent" unicode="&#x123;" horiz-adv-x="514" 
d="M242 552c22.667 42 34 81 34 117h-53v56c16 6 32.667 9 50 9c22.667 0 39.334 -6 50.001 -18s16 -30 16 -54c0 -20 -4.33301 -40.833 -13 -62.5s-20.334 -41.167 -35.001 -58.5zM155 -185.5c-30.667 7.66699 -55.668 17.5 -75.001 29.5l23 63
c19.333 -10 41.5 -18 66.5 -24s49.167 -9 72.5 -9c26.667 0 49.5 1.83301 68.5 5.5s37.167 9.5 54.5 17.5v115l3 66h-8c-19.333 -22 -41.166 -39.833 -65.499 -53.5s-50.166 -20.5 -77.499 -20.5c-60 0 -102.833 20.833 -128.5 62.5s-38.5 93.5 -38.5 155.5
c0 82 13 145.167 39 189.5s72.667 66.5 140 66.5c61.333 0 105.333 -27 132 -81h7l6 73h70v-518c0 -48.667 -17.5 -85.667 -52.5 -111s-82.167 -38 -141.5 -38c-32.667 0 -64.334 3.83301 -95.001 11.5zM304.999 90.5c21.333 11.667 40.333 28.499 57 50.499v201
c-34.667 45.333 -75.667 68 -123 68c-41.333 0 -69.166 -14.333 -83.499 -43s-21.5 -73.667 -21.5 -135c0 -55.333 8.33301 -95.666 25 -120.999s43 -38 79 -38c23.333 0 45.666 5.83301 66.999 17.5z" />
    <glyph glyph-name="Hcircumflex" unicode="&#x124;" horiz-adv-x="600" 
d="M163 695l100 133h75l99 -133l-53 -11l-81 75h-5l-84 -75zM75 616h85v-278h280v278h85v-616h-85v260h-280v-260h-85v616z" />
    <glyph glyph-name="hcircumflex" unicode="&#x125;" horiz-adv-x="526" 
d="M150 707l100 133h75l99 -133l-53 -11l-81 75h-5l-84 -75zM74 671h81.999v-203l-3 -70h6c21.333 25.333 45 45 71 59s56.333 21 91 21c46.667 0 80.834 -10.167 102.501 -30.5s32.5 -54.833 32.5 -103.5v-344h-82v397c-20.667 6 -43 9 -67 9
c-34.667 0 -64 -5.33301 -88 -16s-45 -26.667 -63 -48v-342h-82v671z" />
    <glyph glyph-name="Hbar" unicode="&#x126;" horiz-adv-x="679" 
d="M114 436h-64v66h64v114h85v-114h280v114h85v-114h65v-66h-65v-436h-85v260h-280v-260h-85v436zM479 338v98h-280v-98h280z" />
    <glyph glyph-name="hbar" unicode="&#x127;" horiz-adv-x="526" 
d="M74 537h-64.001v60h64v74h82v-74h133v-60h-133v-69l-3 -70h6c21.333 25.333 45 45 71 59s56.333 21 91 21c46.667 0 80.834 -10.167 102.501 -30.5s32.5 -54.833 32.5 -103.5v-344h-82v397c-20.667 6 -43 9 -67 9c-34.667 0 -64 -5.33301 -88 -16s-45 -26.667 -63 -48
v-342h-82v537z" />
    <glyph glyph-name="Itilde" unicode="&#x128;" horiz-adv-x="242" 
d="M-23 701c2 32.667 9.66602 56.834 22.999 72.501s33.666 23.5 60.999 23.5c10 0 20 -2 30 -6s21.333 -9.66699 34 -17c20.667 -12 35.667 -18 45 -18c23.333 0 36.666 15 39.999 45l55 -18c-2 -32.667 -9.66699 -56.834 -23 -72.501s-33.666 -23.5 -60.999 -23.5
c-11.333 0 -21.666 2 -30.999 6s-20 9.66699 -32 17c-10 6 -18.333 10.5 -25 13.5s-13.667 4.5 -21 4.5c-23.333 0 -36.666 -15 -39.999 -45zM77.999 616h85v-616h-85v616z" />
    <glyph glyph-name="itilde" unicode="&#x129;" horiz-adv-x="258" 
d="M-15 523c2 32.667 9.66602 56.834 22.999 72.501s33.666 23.5 60.999 23.5c10 0 20 -2 30 -6s21.333 -9.66699 34 -17c20.667 -12 35.667 -18 45 -18c23.333 0 36.666 15 39.999 45l55 -18c-2 -32.667 -9.66699 -56.834 -23 -72.501s-33.666 -23.5 -60.999 -23.5
c-11.333 0 -21.666 2 -30.999 6s-20 9.66699 -32 17c-10 6 -18.333 10.5 -25 13.5s-13.667 4.5 -21 4.5c-23.333 0 -36.666 -15 -39.999 -45zM88.999 469h80v-469h-80v469z" />
    <glyph glyph-name="Imacron" unicode="&#x12a;" horiz-adv-x="242" 
d="M-32 766h306v-70h-306v70zM78 616h85v-616h-85v616z" />
    <glyph glyph-name="imacron" unicode="&#x12b;" horiz-adv-x="258" 
d="M-24 622h306v-70h-306v70zM89 469h80v-469h-80v469z" />
    <glyph glyph-name="Ibreve" unicode="&#x12c;" horiz-adv-x="242" 
d="M25.5 720.5c-22.333 19.667 -35.502 47.5 -39.502 83.5l77 12c1.33301 -21.333 6 -36.833 14 -46.5s22.667 -14.5 44 -14.5s36 4.83301 44 14.5s12.667 25.167 14 46.5l77 -12c-4 -36 -17.167 -63.833 -39.5 -83.5s-54.166 -29.5 -95.499 -29.5
s-73.166 9.83301 -95.499 29.5zM77.998 616h85v-616h-85v616z" />
    <glyph glyph-name="ibreve" unicode="&#x12d;" horiz-adv-x="232" 
d="M20.5 576.5c-22.333 19.667 -35.502 47.5 -39.502 83.5l77 12c1.33301 -21.333 6 -36.833 14 -46.5s22.667 -14.5 44 -14.5s36 4.83301 44 14.5s12.667 25.167 14 46.5l77 -12c-4 -36 -17.167 -63.833 -39.5 -83.5s-54.166 -29.5 -95.499 -29.5
s-73.166 9.83301 -95.499 29.5zM75.998 469h80v-469h-80v469z" />
    <glyph glyph-name="Iogonek" unicode="&#x12e;" horiz-adv-x="242" 
d="M195 -156c-18 -7.33301 -39.668 -11.001 -65.001 -11.001c-32 0 -57.333 6.83301 -76 20.5s-28 33.5 -28 59.5c0 19.333 4.5 35.833 13.5 49.5s21.833 27.834 38.5 42.501v611h85v-611c-22.667 -14 -39 -27.333 -49 -40s-15 -28 -15 -46c0 -8.66699 1 -16 3 -22
c8.66699 -2.66699 21.334 -4 38.001 -4c16 0 29.667 1.66699 41 5z" />
    <glyph glyph-name="iogonek" unicode="&#x12f;" horiz-adv-x="232" 
d="M159 554h-86v100h86v-100zM184 -156c-18 -7.33301 -39.668 -11 -65.001 -11c-32 0 -57.333 6.83301 -76 20.5s-28 33.5 -28 59.5c0 38 20.333 67.333 61 88v467h80v-468c-27.333 -12.667 -45.5 -24.667 -54.5 -36s-13.5 -26.333 -13.5 -45c0 -8.66699 1 -16 3 -22
c8.66699 -2.66699 21.334 -4 38.001 -4c15.333 0 29 1.66699 41 5z" />
    <glyph glyph-name="Idotaccent" unicode="&#x130;" horiz-adv-x="242" 
d="M77 685c-10.667 10 -15.9961 23.667 -15.9961 41c0 18.667 5.16699 33 15.5 43s25.166 15 44.499 15s34.166 -5 44.499 -15s15.5 -24.333 15.5 -43c0 -17.333 -5.33301 -31 -16 -41s-25.334 -15 -44.001 -15s-33.334 5 -44.001 15zM78.0039 616h85v-616h-85v616z" />
    <glyph glyph-name="dotlessi" unicode="&#x131;" horiz-adv-x="232" 
d="M76 469h80v-469h-80v469z" />
    <glyph glyph-name="IJ" unicode="&#x132;" horiz-adv-x="673" 
d="M78 616h85v-616h-85v616zM346 -1c-25.333 4.66699 -47.333 11 -66 19l19 73c40.667 -15.333 81.667 -23 123 -23c36.667 0 65.667 6 87 18c4.66699 14 7 32.333 7 55v475h84v-479c0 -46 -16.333 -81.667 -49 -107s-76 -38 -130 -38c-24.667 0 -49.667 2.33301 -75 7z" />
    <glyph glyph-name="ij" unicode="&#x133;" horiz-adv-x="515" 
d="M73 654h86v-100h-86v100zM356 654h86v-100h-86v100zM76 468h80v-468h-80v468zM204 -182l19 70c16 -5.33301 29.667 -8.83301 41 -10.5s24.333 -2.5 39 -2.5c18 0 34.333 2.33301 49 7c4.66699 13.333 7 32.333 7 57v529h80v-533c0 -42 -12.333 -74.667 -37 -98
s-58 -35 -100 -35c-35.333 0 -68 5.33301 -98 16z" />
    <glyph glyph-name="Jcircumflex" unicode="&#x134;" horiz-adv-x="423" 
d="M154 695l100 133h75l99 -133l-53 -11l-81 75h-5l-84 -75zM96 -1c-25.333 4.66699 -47.333 11 -66 19l19 73c40.667 -15.333 81.667 -23 123 -23c36.667 0 65.667 6 87 18c4.66699 14 7 32.333 7 55v475h84v-479c0 -46 -16.333 -81.667 -49 -107s-76 -38 -130 -38
c-24.667 0 -49.667 2.33301 -75 7z" />
    <glyph glyph-name="jcircumflex" unicode="&#x135;" horiz-adv-x="284" 
d="M15 552l100 133h75l99 -133l-53 -11l-81 75h-5l-84 -75zM-34 -182l19 70c16 -5.33301 29.667 -8.83301 41 -10.5s24.333 -2.5 39 -2.5c18 0 34.333 2.33301 49 7c4.66699 13.333 7 32.333 7 57v531h80v-535c0 -42 -12.333 -74.667 -37 -98s-58 -35 -100 -35
c-35.333 0 -68 5.33301 -98 16z" />
    <glyph glyph-name="Kcommaaccent" unicode="&#x136;" horiz-adv-x="600" 
d="M457 2c-11.333 6.66699 -20.333 17.668 -27 33.001l-74 169c-12 27.333 -26.167 47.166 -42.5 59.499s-40.833 18.5 -73.5 18.5h-80v-282h-85v616h85v-257h75c32.667 0 57.667 6 75 18s30.666 29 39.999 51l83 194l82 -32l-83 -185
c-9.33301 -21.333 -20.166 -38.5 -32.499 -51.5s-29.833 -23.167 -52.5 -30.5v-6c23.333 -6.66699 41 -15.667 53 -27s23 -28.333 33 -51l84 -181l50 -9v-48c-18.667 -6 -40.667 -9 -66 -9c-18 0 -32.667 3.33301 -44 10zM274 -251.999c22.667 42 34 81 34 117h-53v56
c16 6 32.667 9 50 9c22.667 0 39.334 -6 50.001 -18s16 -30 16 -54c0 -20 -4.33301 -40.833 -13 -62.5s-20.334 -41.167 -35.001 -58.5z" />
    <glyph glyph-name="kcommaaccent" unicode="&#x137;" horiz-adv-x="507" 
d="M378.5 0.5c-9.66699 5.66699 -17.5 15.166 -23.5 28.499l-43 100c-12.667 28.667 -27.167 50 -43.5 64s-40.5 21 -72.5 21h-46v-214h-80v671h80v-394h41c31.333 0 55 6.66699 71 20s29.333 32 40 56l53 125l79 -29l-51 -119c-8.66699 -20.667 -19.5 -37.667 -32.5 -51
s-31.167 -23.666 -54.5 -30.999v-6c23.333 -6.66699 41.166 -15.667 53.499 -27s23.5 -28.333 33.5 -51l50 -114l39 -9v-41c-19.333 -5.33301 -37.666 -8 -54.999 -8c-16 0 -28.833 2.83301 -38.5 8.5zM222 -252.001c22.667 42 34 81 34 117h-53v56c16 6 32.667 9 50 9
c22.667 0 39.334 -6 50.001 -18s16 -30 16 -54c0 -20 -4.33301 -40.833 -13 -62.5s-20.334 -41.167 -35.001 -58.5z" />
    <glyph glyph-name="kgreenlandic" unicode="&#x138;" horiz-adv-x="497" 
d="M356 29l-44 99.999c-12.667 28.667 -27.167 50 -43.5 64s-40.5 21 -72.5 21h-46v-214h-80v477h80v-200h41c31.333 0 55 6.66699 71 20s29.333 32 40 56l53 125l83 -19l-55 -129c-8.66699 -20.667 -19.5 -37.667 -32.5 -51s-31.167 -23.666 -54.5 -30.999v-6
c23.333 -6.66699 41.166 -15.667 53.499 -27s23.5 -28.333 33.5 -51l50 -111l29 -9v-41c-19.333 -5.33301 -35.333 -8 -48 -8c-29.333 0 -48.666 11.333 -57.999 34z" />
    <glyph glyph-name="Lacute" unicode="&#x139;" horiz-adv-x="457" 
d="M77 694l83 145l106 -11l-125 -144zM75 616h85v-538h273v-78h-358v616z" />
    <glyph glyph-name="lacute" unicode="&#x13a;" horiz-adv-x="291" 
d="M76 695l83 145l106 -11l-125 -144zM131 12.5c-14.667 11 -27.334 23.333 -38.001 37s-16 25.5 -16 35.5v586h80v-576c0 -16 1.33301 -27.333 4 -34h13l57 29l35 -45c-10 -14 -24.167 -26.167 -42.5 -36.5s-37.166 -15.833 -56.499 -16.5
c-9.33301 2.66699 -21.333 9.5 -36 20.5z" />
    <glyph glyph-name="Lcommaaccent" unicode="&#x13b;" horiz-adv-x="457" 
d="M75 616h85v-538h273v-78h-358v616zM236 -252c22.667 42 34 81 34 117h-53v56c16 6 32.667 9 50 9c22.667 0 39.334 -6 50.001 -18s16 -30 16 -54c0 -20 -4.33301 -40.833 -13 -62.5s-20.334 -41.167 -35.001 -58.5z" />
    <glyph glyph-name="lcommaaccent" unicode="&#x13c;" horiz-adv-x="283" 
d="M130 12.5c-14.667 11 -27.334 23.333 -38.001 37s-16 25.5 -16 35.5v586h80v-576c0 -16 1.33301 -27.333 4 -34h13l57 29l35 -45c-10 -14 -24.167 -26.167 -42.5 -36.5s-37.166 -15.833 -56.499 -16.5c-9.33301 2.66699 -21.333 9.5 -36 20.5zM129 -252
c22.667 42 34 81 34 117h-53v56c16 6 32.667 9 50 9c22.667 0 39.334 -6 50.001 -18s16 -30 16 -54c0 -20 -4.33301 -40.833 -13 -62.5s-20.334 -41.167 -35.001 -58.5z" />
    <glyph glyph-name="Lcaron" unicode="&#x13d;" horiz-adv-x="457" 
d="M273 439c22.667 42 34 81 34 117h-53v56c16 6 32.667 9 50 9c22.667 0 39.334 -6 50.001 -18s16 -30 16 -54c0 -20 -4.33301 -40.833 -13 -62.5s-20.334 -41.167 -35.001 -58.5zM75 616h85v-538h273v-78h-358v616z" />
    <glyph glyph-name="lcaron" unicode="&#x13e;" horiz-adv-x="358" 
d="M130 12.5c-14.667 11 -27.334 23.333 -38.001 37s-16 25.5 -16 35.5v586h80v-576c0 -16 1.33301 -27.333 4 -34h13l57 29l35 -45c-10 -14 -24.167 -26.167 -42.5 -36.5s-37.166 -15.833 -56.499 -16.5c-9.33301 2.66699 -21.333 9.5 -36 20.5zM251 469
c22.667 42 34 81 34 117h-53v56c16 6 32.667 9 50 9c22.667 0 39.334 -6 50.001 -18s16 -30 16 -54c0 -20 -4.33301 -40.833 -13 -62.5s-20.334 -41.167 -35.001 -58.5z" />
    <glyph glyph-name="Ldot" unicode="&#x13f;" horiz-adv-x="457" 
d="M75 616h85v-538h273v-78h-358v616zM263 234.5c-11.333 11 -17 24.833 -17 41.5c0 16 5.83301 29.667 17.5 41s25.5 17 41.5 17s29.833 -5.66699 41.5 -17s17.5 -25 17.5 -41c0 -16.667 -5.66699 -30.5 -17 -41.5s-25.333 -16.5 -42 -16.5s-30.667 5.5 -42 16.5z" />
    <glyph glyph-name="ldot" unicode="&#x140;" horiz-adv-x="383" 
d="M130 12.5c-14.667 11 -27.334 23.333 -38.001 37s-16 25.5 -16 35.5v586h80v-576c0 -16 1.33301 -27.333 4 -34h13l57 29l35 -45c-10 -14 -24.167 -26.167 -42.5 -36.5s-37.166 -15.833 -56.499 -16.5c-9.33301 2.66699 -21.333 9.5 -36 20.5zM257 234.5
c-11.333 11 -17 24.833 -17 41.5c0 16 5.83301 29.667 17.5 41s25.5 17 41.5 17s29.833 -5.66699 41.5 -17s17.5 -25 17.5 -41c0 -16.667 -5.66699 -30.5 -17 -41.5s-25.333 -16.5 -42 -16.5s-30.667 5.5 -42 16.5z" />
    <glyph glyph-name="Lslash" unicode="&#x141;" horiz-adv-x="489" 
d="M107 251l-88 -28l-19 61l107 34v298h85v-271l112 35l19 -61l-131 -41v-200h273v-78h-358v251z" />
    <glyph glyph-name="lslash" unicode="&#x142;" horiz-adv-x="282" 
d="M130 14.5c-14.667 11 -27.334 23.333 -38.001 37s-16 25.5 -16 35.5v198l-80 -28l-19 61l99 34v296h80v-271l104 33l19 -61l-123 -39v-213c0 -16 1.33301 -27.333 4 -34h13l57 29l35 -45c-10 -14 -24.167 -26.167 -42.5 -36.5s-37.166 -15.833 -56.499 -16.5
c-9.33301 2.66699 -21.333 9.5 -36 20.5z" />
    <glyph glyph-name="Nacute" unicode="&#x143;" horiz-adv-x="625" 
d="M265 694l83 145l106 -11l-125 -144zM75 616h96l295 -487l8 2l-10 157v328h86v-616h-96l-295 487l-8 -2l10 -157v-328h-86v616z" />
    <glyph glyph-name="nacute" unicode="&#x144;" horiz-adv-x="526" 
d="M230 551l83 145l106 -11l-125 -144zM74 470h70.999l6 -72h8c21.333 25.333 45 45 71 59s56.333 21 91 21c46.667 0 80.834 -10.167 102.501 -30.5s32.5 -54.833 32.5 -103.5v-344h-82v397c-20.667 6 -43 9 -67 9c-34.667 0 -64 -5.33301 -88 -16s-45 -26.667 -63 -48
v-342h-82v470z" />
    <glyph glyph-name="Ncommaaccent" unicode="&#x145;" horiz-adv-x="625" 
d="M75 616h96l295 -487l8 2l-10 157v328h86v-616h-96l-295 487l-8 -2l10 -157v-328h-86v616zM292 -252c22.667 42 34 81 34 117h-53v56c16 6 32.667 9 50 9c22.667 0 39.334 -6 50.001 -18s16 -30 16 -54c0 -20 -4.33301 -40.833 -13 -62.5s-20.334 -41.167 -35.001 -58.5z
" />
    <glyph glyph-name="ncommaaccent" unicode="&#x146;" horiz-adv-x="526" 
d="M74 470h70.999l6 -72h8c21.333 25.333 45 45 71 59s56.333 21 91 21c46.667 0 80.834 -10.167 102.501 -30.5s32.5 -54.833 32.5 -103.5v-344h-82v397c-20.667 6 -43 9 -67 9c-34.667 0 -64 -5.33301 -88 -16s-45 -26.667 -63 -48v-342h-82v470zM241.999 -252
c22.667 42 34 81 34 117h-53v56c16 6 32.667 9 50 9c22.667 0 39.334 -6 50.001 -18s16 -30 16 -54c0 -20 -4.33301 -40.833 -13 -62.5s-20.334 -41.167 -35.001 -58.5z" />
    <glyph glyph-name="Ncaron" unicode="&#x147;" horiz-adv-x="625" 
d="M184 829l51 11l84 -75h5l81 75l53 -11l-99 -133h-75zM75 616h96l295 -487l8 2l-10 157v328h86v-616h-96l-295 487l-8 -2l10 -157v-328h-86v616z" />
    <glyph glyph-name="ncaron" unicode="&#x148;" horiz-adv-x="526" 
d="M139 685l51 11l84 -75h5l81 75l53 -11l-99 -133h-75zM74 470h70.999l6 -72h8c21.333 25.333 45 45 71 59s56.333 21 91 21c46.667 0 80.834 -10.167 102.501 -30.5s32.5 -54.833 32.5 -103.5v-344h-82v397c-20.667 6 -43 9 -67 9c-34.667 0 -64 -5.33301 -88 -16
s-45 -26.667 -63 -48v-342h-82v470z" />
    <glyph glyph-name="napostrophe" unicode="&#x149;" horiz-adv-x="633" 
d="M29 369c22.667 42 34 81 34 117h-53v56c16 6 32.667 9 50 9c22.667 0 39.334 -6 50.001 -18s16 -30 16 -54c0 -20 -4.33301 -40.833 -13 -62.5s-20.334 -41.167 -35.001 -58.5zM181 470h70.999l6 -72h8c21.333 25.333 45 45 71 59s56.333 21 91 21
c46.667 0 80.834 -10.167 102.501 -30.5s32.5 -54.833 32.5 -103.5v-344h-82v397c-20.667 6 -43 9 -67 9c-34.667 0 -64 -5.33301 -88 -16s-45 -26.667 -63 -48v-342h-82v470z" />
    <glyph glyph-name="Eng" unicode="&#x14a;" horiz-adv-x="625" 
d="M339 -154c51.333 14 89 27.999 113 41.999c4 20.667 6 46.667 6 78v34l-299 487l-8 -2l10 -157v-328h-86v616h96l295 -487l8 2l-10 157v328h86v-642c0 -55.333 -12.833 -98.666 -38.5 -129.999s-70.5 -58.333 -134.5 -81z" />
    <glyph glyph-name="eng" unicode="&#x14b;" horiz-adv-x="526" 
d="M255 -157c48.667 12.667 85.332 27.668 109.999 45.001c6 19.333 9 52 9 98v411c-20.667 6 -43 9 -67 9c-34.667 0 -64 -5.33301 -88 -16s-45 -26.667 -63 -48v-342h-82v470h71l6 -72h8c21.333 25.333 45 45 71 59s56.333 21 91 21
c46.667 0 80.834 -10.167 102.501 -30.5s32.5 -54.833 32.5 -103.5v-374c0 -50.667 -12.667 -91.834 -38 -123.501s-67 -59.167 -125 -82.5z" />
    <glyph glyph-name="Omacron" unicode="&#x14c;" horiz-adv-x="621" 
d="M157 766h306v-70h-306v70zM116 69c-42.667 51.333 -64 126.999 -64 226.999c0 112.667 20.5 195.834 61.5 249.501s109.167 80.5 204.5 80.5c85.333 0 148.5 -25.5 189.5 -76.5s61.5 -127.167 61.5 -228.5c0 -112.667 -20.5 -195.667 -61.5 -249s-109.167 -80 -204.5 -80
c-82 0 -144.333 25.667 -187 77zM384 74.999c22 3.33301 39.333 7.66504 52 12.998c32 70.667 48 142 48 214c0 86.667 -13.5 149.334 -40.5 188.001s-73.5 58 -139.5 58c-23.333 0 -46.666 -1.66699 -69.999 -5s-41.333 -7.66602 -54 -12.999
c-28.667 -62 -43 -133.667 -43 -215c0 -86 13.667 -148.333 41 -187s73.666 -58 138.999 -58c22.667 0 45 1.66699 67 5z" />
    <glyph glyph-name="omacron" unicode="&#x14d;" horiz-adv-x="517" 
d="M105 622h306v-70h-306v70zM95.5 54c-30.333 41.333 -45.5 100.333 -45.5 177c0 166 73.333 249 220 249c131.333 0 197 -83 197 -249c0 -79.333 -17.333 -139 -52 -179s-90.667 -60 -168 -60c-70.667 0 -121.167 20.667 -151.5 62zM364 79
c14.667 30.667 22 75.999 22 135.999c0 47.333 -3.5 84.5 -10.5 111.5s-20.333 47.167 -40 60.5s-49.167 20 -88.5 20c-38 0 -69.333 -5.33301 -94 -16c-14.667 -31.333 -22 -80 -22 -146c0 -46.667 3.33301 -82.667 10 -108s20 -44.166 40 -56.499s49.667 -18.5 89 -18.5
c36.667 0 68 5.66699 94 17z" />
    <glyph glyph-name="Obreve" unicode="&#x14e;" horiz-adv-x="621" 
d="M214.5 720.5c-22.333 19.667 -35.502 47.5 -39.502 83.5l77 12c1.33301 -21.333 6 -36.833 14 -46.5s22.667 -14.5 44 -14.5s36 4.83301 44 14.5s12.667 25.167 14 46.5l77 -12c-4 -36 -17.167 -63.833 -39.5 -83.5s-54.166 -29.5 -95.499 -29.5
s-73.166 9.83301 -95.499 29.5zM115.998 69c-42.667 51.333 -64 126.999 -64 226.999c0 112.667 20.5 195.834 61.5 249.501s109.167 80.5 204.5 80.5c85.333 0 148.5 -25.5 189.5 -76.5s61.5 -127.167 61.5 -228.5c0 -112.667 -20.5 -195.667 -61.5 -249
s-109.167 -80 -204.5 -80c-82 0 -144.333 25.667 -187 77zM383.998 74.999c22 3.33301 39.333 7.66504 52 12.998c32 70.667 48 142 48 214c0 86.667 -13.5 149.334 -40.5 188.001s-73.5 58 -139.5 58c-23.333 0 -46.666 -1.66699 -69.999 -5s-41.333 -7.66602 -54 -12.999
c-28.667 -62 -43 -133.667 -43 -215c0 -86 13.667 -148.333 41 -187s73.666 -58 138.999 -58c22.667 0 45 1.66699 67 5z" />
    <glyph glyph-name="obreve" unicode="&#x14f;" horiz-adv-x="517" 
d="M162.5 576.5c-22.333 19.667 -35.502 47.5 -39.502 83.5l77 12c1.33301 -21.333 6 -36.833 14 -46.5s22.667 -14.5 44 -14.5s36 4.83301 44 14.5s12.667 25.167 14 46.5l77 -12c-4 -36 -17.167 -63.833 -39.5 -83.5s-54.166 -29.5 -95.499 -29.5
s-73.166 9.83301 -95.499 29.5zM95.498 54c-30.333 41.333 -45.5 100.333 -45.5 177c0 166 73.333 249 220 249c131.333 0 197 -83 197 -249c0 -79.333 -17.333 -139 -52 -179s-90.667 -60 -168 -60c-70.667 0 -121.167 20.667 -151.5 62zM363.998 79
c14.667 30.667 22 75.999 22 135.999c0 47.333 -3.5 84.5 -10.5 111.5s-20.333 47.167 -40 60.5s-49.167 20 -88.5 20c-38 0 -69.333 -5.33301 -94 -16c-14.667 -31.333 -22 -80 -22 -146c0 -46.667 3.33301 -82.667 10 -108s20 -44.166 40 -56.499s49.667 -18.5 89 -18.5
c36.667 0 68 5.66699 94 17z" />
    <glyph glyph-name="Ohungarumlaut" unicode="&#x150;" horiz-adv-x="621" 
d="M190 696c22.667 42 34 81 34 117h-53v56c16 6 32 9 48 9c22.667 0 39.334 -6 50.001 -18s16 -30 16 -54c0 -20 -4.33301 -40.833 -13 -62.5s-20.334 -41.167 -35.001 -58.5zM355 696c22.667 42 34.001 81.001 34.001 117.001h-53v56c16 6 32.667 9 50 9
c22.667 0 39 -5.83301 49 -17.5s15 -29.834 15 -54.501c0 -20 -4.33301 -40.833 -13 -62.5s-20.334 -41.167 -35.001 -58.5zM116.001 69.001c-42.667 51.333 -64 126.999 -64 226.999c0 112.667 20.5 195.834 61.5 249.501s109.167 80.5 204.5 80.5
c85.333 0 148.5 -25.5 189.5 -76.5s61.5 -127.167 61.5 -228.5c0 -112.667 -20.5 -195.667 -61.5 -249s-109.167 -80 -204.5 -80c-82 0 -144.333 25.667 -187 77zM384.001 75c22 3.33301 39.333 7.66504 52 12.998c32 70.667 48 142 48 214
c0 86.667 -13.5 149.334 -40.5 188.001s-73.5 58 -139.5 58c-23.333 0 -46.666 -1.66699 -69.999 -5s-41.333 -7.66602 -54 -12.999c-28.667 -62 -43 -133.667 -43 -215c0 -86 13.667 -148.333 41 -187s73.666 -58 138.999 -58c22.667 0 45 1.66699 67 5z" />
    <glyph glyph-name="ohungarumlaut" unicode="&#x151;" horiz-adv-x="517" 
d="M138 553c22.667 42 34 81 34 117h-53v56c16 6 32 9 48 9c22.667 0 39.334 -6 50.001 -18s16 -30 16 -54c0 -20 -4.33301 -40.833 -13 -62.5s-20.334 -41.167 -35.001 -58.5zM303 553c22.667 42 34.001 81.001 34.001 117.001h-53v56c16 6 32.667 9 50 9
c22.667 0 39 -5.83301 49 -17.5s15 -29.834 15 -54.501c0 -20 -4.33301 -40.833 -13 -62.5s-20.334 -41.167 -35.001 -58.5zM95.501 54.001c-30.333 41.333 -45.5 100.333 -45.5 177c0 166 73.333 249 220 249c131.333 0 197 -83 197 -249c0 -79.333 -17.333 -139 -52 -179
s-90.667 -60 -168 -60c-70.667 0 -121.167 20.667 -151.5 62zM364.001 79.001c14.667 30.667 22 75.999 22 135.999c0 47.333 -3.5 84.5 -10.5 111.5s-20.333 47.167 -40 60.5s-49.167 20 -88.5 20c-38 0 -69.333 -5.33301 -94 -16c-14.667 -31.333 -22 -80 -22 -146
c0 -46.667 3.33301 -82.667 10 -108s20 -44.166 40 -56.499s49.667 -18.5 89 -18.5c36.667 0 68 5.66699 94 17z" />
    <glyph glyph-name="OE" unicode="&#x152;" horiz-adv-x="900" 
d="M473 30l-6 -0.000976562c-44 -26 -98.667 -39 -164 -39c-82 0 -144.333 25.833 -187 77.5s-64 127.5 -64 227.5c0 112.667 20.5 195.834 61.5 249.501s109.167 80.5 204.5 80.5c40.667 0 80 -3.33301 118 -10h393v-77h-309v-194h280v-75h-280v-184
c40.667 -12.667 85.667 -19 135 -19c60.667 0 116 6 166 18l19 -74c-47.333 -14 -111.333 -21 -192 -21c-76 0 -134.333 13.333 -175 40zM384 73.999c22 3.33301 39.333 7.66602 52 12.999v452c-24 4 -44.5 6.5 -61.5 7.5s-40.5 1.5 -70.5 1.5
c-23.333 0 -46.666 -1.66699 -69.999 -5s-41.333 -7.66602 -54 -12.999c-28.667 -62 -43 -133.667 -43 -215c0 -86 13.667 -148.5 41 -187.5s73.666 -58.5 138.999 -58.5c22.667 0 45 1.66699 67 5z" />
    <glyph glyph-name="oe" unicode="&#x153;" horiz-adv-x="825" 
d="M95.5 53.5c-30.333 41.667 -45.501 100.834 -45.501 177.501c0 166 73.333 249 220 249c74 0 127 -26.333 159 -79h5c38 51.333 93.667 77 167 77c58.667 0 102.5 -16.833 131.5 -50.5s43.5 -79.834 43.5 -138.501c0 -13.333 -0.333008 -23.333 -1 -30l-60 -59l-249 4
c2 -48 13.833 -83.5 35.5 -106.5s55.167 -34.5 100.5 -34.5c30 0 55.833 3.83301 77.5 11.5s43.834 19.167 66.501 34.5l26 -63c-26.667 -16.667 -53 -29.5 -79 -38.5s-58 -13.5 -96 -13.5c-76 0 -131 22.333 -165 67h-10c-34.667 -46.667 -93 -70 -175 -70
c-70.667 0 -121.167 20.833 -151.5 62.5zM694.999 266c4 18 5.99902 34.332 5.99902 48.999c0 29.333 -8.66699 52.333 -26 69s-43.666 25 -78.999 25c-47.333 0 -80.833 -11.667 -100.5 -35s-29.5 -60.666 -29.5 -111.999zM363.998 77.999
c14.667 30.667 22 76.334 22 137.001c0 47.333 -3.5 84.5 -10.5 111.5s-20.333 47.167 -40 60.5s-49.167 20 -88.5 20c-38 0 -69.333 -5.33301 -94 -16c-14.667 -31.333 -22 -80 -22 -146c0 -46.667 3.33301 -82.834 10 -108.501s20 -44.667 40 -57s49.667 -18.5 89 -18.5
c36.667 0 68 5.66699 94 17z" />
    <glyph glyph-name="Racute" unicode="&#x154;" horiz-adv-x="586" 
d="M217 696l83 145l106 -11l-125 -144zM447 2c-11.333 6.66699 -20.3311 17.666 -26.998 32.999l-58 135c-8.66699 20 -16.5 35 -23.5 45s-16.833 17.833 -29.5 23.5s-30.334 8.5 -53.001 8.5h-96v-247h-85v600c60 17.333 117.667 26 173 26
c77.333 0 135.166 -14.667 173.499 -44s57.5 -75.666 57.5 -138.999c0 -78.667 -33 -134 -99 -166v-9c14 -6.66699 25.5 -15 34.5 -25s17.167 -22.667 24.5 -38l68 -147l50 -9v-48c-18.667 -6 -40.667 -9 -66 -9c-18 0 -32.667 3.33301 -44 10zM329.002 322.999
c22 12.667 38.167 27.833 48.5 45.5s15.5 41.5 15.5 71.5c0 40.667 -11.5 69 -34.5 85s-60.167 24 -111.5 24c-36.667 0 -65.667 -2.66699 -87 -8v-218h169z" />
    <glyph glyph-name="racute" unicode="&#x155;" horiz-adv-x="374" 
d="M150 552l83 145l106 -11l-125 -144zM74 468l69 0.000976562l6 -92h10c14 30 35.333 53.833 64 71.5s57 26.5 85 26.5c5.33301 0 12 -2.83301 20 -8.5s13.333 -10.834 16 -15.501l-9 -67h-46c-33.333 0 -62 -7.33301 -86 -22s-39.667 -36.667 -47 -66v-295h-82v468z" />
    <glyph glyph-name="Rcommaaccent" unicode="&#x156;" horiz-adv-x="586" 
d="M447 2c-11.333 6.66699 -20.332 17.666 -26.999 32.999l-58 135c-8.66699 18.667 -16.167 33 -22.5 43s-15.333 18 -27 24s-27.167 9.33301 -46.5 10h-106v-247h-85v600c60 17.333 117.667 26 173 26c77.333 0 135.166 -14.667 173.499 -44s57.5 -75.666 57.5 -138.999
c0 -78.667 -33 -134 -99 -166v-9c14 -6.66699 25.5 -15 34.5 -25s17.167 -22.667 24.5 -38l68 -147l50 -9v-48c-18.667 -6 -40.667 -9 -66 -9c-18 0 -32.667 3.33301 -44 10zM329.001 322.999c22 12.667 38.167 27.833 48.5 45.5s15.5 41.5 15.5 71.5
c0 40.667 -11.5 69 -34.5 85s-60.167 24 -111.5 24c-36.667 0 -65.667 -2.66699 -87 -8v-218h169zM247.001 -252.002c22.667 42 34 81 34 117h-53v56c16 6 32.667 9 50 9c22.667 0 39.334 -6 50.001 -18s16 -30 16 -54c0 -20 -4.33301 -40.833 -13 -62.5
s-20.334 -41.167 -35.001 -58.5z" />
    <glyph glyph-name="rcommaaccent" unicode="&#x157;" horiz-adv-x="374" 
d="M74 468l69 0.000976562l6 -92h10c14 30 35.333 53.833 64 71.5s57 26.5 85 26.5c5.33301 0 12 -2.83301 20 -8.5s13.333 -10.834 16 -15.501l-9 -67h-46c-33.333 0 -62 -7.33301 -86 -22s-39.667 -36.667 -47 -66v-295h-82v468zM81 -251.999c22.667 42 34 81 34 117h-53
v56c16 6 32.667 9 50 9c22.667 0 39.334 -6 50.001 -18s16 -30 16 -54c0 -20 -4.33301 -40.833 -13 -62.5s-20.334 -41.167 -35.001 -58.5z" />
    <glyph glyph-name="Rcaron" unicode="&#x158;" horiz-adv-x="586" 
d="M132 829l51 11l84 -75h5l81 75l53 -11l-99 -133h-75zM447 2c-11.333 6.66699 -20.3311 17.666 -26.998 32.999l-58 135c-8.66699 20 -16.5 35 -23.5 45s-16.833 17.833 -29.5 23.5s-30.334 8.5 -53.001 8.5h-96v-247h-85v600c60 17.333 117.667 26 173 26
c77.333 0 135.166 -14.667 173.499 -44s57.5 -75.666 57.5 -138.999c0 -78.667 -33 -134 -99 -166v-9c14 -6.66699 25.5 -15 34.5 -25s17.167 -22.667 24.5 -38l68 -147l50 -9v-48c-18.667 -6 -40.667 -9 -66 -9c-18 0 -32.667 3.33301 -44 10zM329.002 322.999
c22 12.667 38.167 27.833 48.5 45.5s15.5 41.5 15.5 71.5c0 40.667 -11.5 69 -34.5 85s-60.167 24 -111.5 24c-36.667 0 -65.667 -2.66699 -87 -8v-218h169z" />
    <glyph glyph-name="rcaron" unicode="&#x159;" horiz-adv-x="374" 
d="M78 685l51 11l84 -75h5l81 75l53 -11l-99 -133h-75zM74 468l69 0.000976562l6 -92h10c14 30 35.333 53.833 64 71.5s57 26.5 85 26.5c5.33301 0 12 -2.83301 20 -8.5s13.333 -10.834 16 -15.501l-9 -67h-46c-33.333 0 -62 -7.33301 -86 -22s-39.667 -36.667 -47 -66v-295
h-82v468z" />
    <glyph glyph-name="Sacute" unicode="&#x15a;" horiz-adv-x="518" 
d="M213 696l83 145l106 -11l-125 -144zM50 41l29.0029 73.999c54 -28 114.667 -42 182 -42c40.667 0 76.667 3.66699 108 11c8 21.333 12 46.333 12 75c0 30 -9 52.833 -27 68.5s-50.333 29.167 -97 40.5c-62 14.667 -109.833 34.667 -143.5 60s-50.5 64 -50.5 116
s16.167 95.333 48.5 130s85.166 52 158.499 52c40.667 0 74.167 -3.5 100.5 -10.5s51.166 -17.5 74.499 -31.5v-36c0 -28.667 -5.66699 -58.667 -17 -90h-61l-13 85c-32.667 4.66699 -62.334 7 -89.001 7c-42.667 0 -72.834 -7.83301 -90.501 -23.5
s-26.5 -40.834 -26.5 -75.501c0 -19.333 3.83301 -35.166 11.5 -47.499s20.834 -22.666 39.501 -30.999s45.334 -16.5 80.001 -24.5c65.333 -14.667 112.833 -34.667 142.5 -60s44.5 -62.333 44.5 -111c0 -54 -16.5 -98.333 -49.5 -133s-87.5 -52 -163.5 -52
c-74.667 0 -142.334 16.333 -203.001 49z" />
    <glyph glyph-name="sacute" unicode="&#x15b;" horiz-adv-x="430" 
d="M157 551l83 145l106 -11l-125 -144zM44 31l24 64.999c43.333 -24.667 92 -37 146 -37c30.667 0 58.334 2.66699 83.001 8c6 16 9 33.667 9 53c0 17.333 -2 30.333 -6 39s-12.667 16.167 -26 22.5s-34.333 12.5 -63 18.5c-54.667 11.333 -95.834 27 -123.501 47
s-41.5 50.333 -41.5 91c0 24.667 6.33301 47.667 19 69s32.167 38.5 58.5 51.5s58.833 19.5 97.5 19.5c56.667 0 104 -10.667 142 -32v-31c0 -24 -4.33301 -47 -13 -69h-59l-8 65c-21.333 2.66699 -43.333 4 -66 4c-34 0 -58 -4.66699 -72 -14s-21 -26 -21 -50
c0 -21.333 7.16699 -38.166 21.5 -50.499s41.833 -22.833 82.5 -31.5c38 -8 67.833 -16.833 89.5 -26.5s38.167 -23 49.5 -40s17 -39.833 17 -68.5c0 -40 -14.5 -73.667 -43.5 -101s-73.167 -41 -132.5 -41c-64 0 -118.667 13 -164 39z" />
    <glyph glyph-name="Scircumflex" unicode="&#x15c;" horiz-adv-x="518" 
d="M131 695l100 133h75l99 -133l-53 -11l-81 75h-5l-84 -75zM50 41l29.0029 73.999c54 -28 114.667 -42 182 -42c40.667 0 76.667 3.66699 108 11c8 21.333 12 46.333 12 75c0 30 -9 52.833 -27 68.5s-50.333 29.167 -97 40.5c-62 14.667 -109.833 34.667 -143.5 60
s-50.5 64 -50.5 116s16.167 95.333 48.5 130s85.166 52 158.499 52c40.667 0 74.167 -3.5 100.5 -10.5s51.166 -17.5 74.499 -31.5v-36c0 -28.667 -5.66699 -58.667 -17 -90h-61l-13 85c-32.667 4.66699 -62.334 7 -89.001 7c-42.667 0 -72.834 -7.83301 -90.501 -23.5
s-26.5 -40.834 -26.5 -75.501c0 -19.333 3.83301 -35.166 11.5 -47.499s20.834 -22.666 39.501 -30.999s45.334 -16.5 80.001 -24.5c65.333 -14.667 112.833 -34.667 142.5 -60s44.5 -62.333 44.5 -111c0 -54 -16.5 -98.333 -49.5 -133s-87.5 -52 -163.5 -52
c-74.667 0 -142.334 16.333 -203.001 49z" />
    <glyph glyph-name="scircumflex" unicode="&#x15d;" horiz-adv-x="430" 
d="M79 551l100 133h75l99 -133l-53 -11l-81 75h-5l-84 -75zM44 31l24 64.999c43.333 -24.667 92 -37 146 -37c30.667 0 58.334 2.66699 83.001 8c6 16 9 33.667 9 53c0 17.333 -2 30.333 -6 39s-12.667 16.167 -26 22.5s-34.333 12.5 -63 18.5
c-54.667 11.333 -95.834 27 -123.501 47s-41.5 50.333 -41.5 91c0 24.667 6.33301 47.667 19 69s32.167 38.5 58.5 51.5s58.833 19.5 97.5 19.5c56.667 0 104 -10.667 142 -32v-31c0 -24 -4.33301 -47 -13 -69h-59l-8 65c-21.333 2.66699 -43.333 4 -66 4
c-34 0 -58 -4.66699 -72 -14s-21 -26 -21 -50c0 -21.333 7.16699 -38.166 21.5 -50.499s41.833 -22.833 82.5 -31.5c38 -8 67.833 -16.833 89.5 -26.5s38.167 -23 49.5 -40s17 -39.833 17 -68.5c0 -40 -14.5 -73.667 -43.5 -101s-73.167 -41 -132.5 -41
c-64 0 -118.667 13 -164 39z" />
    <glyph glyph-name="Scedilla" unicode="&#x15e;" horiz-adv-x="518" 
d="M178 -199l17.001 48.999c8.66699 -3.33301 19.334 -6 32.001 -8s23.667 -3 33 -3c18 0 33.667 1.33301 47 4c2.66699 8 4 16.667 4 26c0 20 -15 30 -45 30c-16 0 -29.333 -2.66699 -40 -8l-43 43l48 59c-66.667 2 -127 18 -181 48l29 74c54 -28 114.667 -42 182 -42
c40.667 0 76.667 3.66699 108 11c8 21.333 12 46.333 12 75c0 30 -9 52.833 -27 68.5s-50.333 29.167 -97 40.5c-62 14.667 -109.833 34.667 -143.5 60s-50.5 64 -50.5 116s16.167 95.333 48.5 130s85.166 52 158.499 52c40.667 0 74.167 -3.5 100.5 -10.5
s51.166 -17.5 74.499 -31.5v-36c0 -28.667 -5.66699 -58.667 -17 -90h-61l-13 85c-32.667 4.66699 -62.334 7 -89.001 7c-42.667 0 -72.834 -7.83301 -90.501 -23.5s-26.5 -40.834 -26.5 -75.501c0 -19.333 3.83301 -35.166 11.5 -47.499s20.834 -22.666 39.501 -30.999
s45.334 -16.5 80.001 -24.5c65.333 -14.667 112.833 -34.667 142.5 -60s44.5 -62.333 44.5 -111c0 -48 -13 -88.667 -39 -122s-68.667 -53.333 -128 -60l-38 -54c10 4.66699 23 7 39 7c52.667 0 79 -25.333 79 -76c0 -29.333 -9 -51.333 -27 -66s-46.333 -22 -85 -22
c-35.333 0 -65 5.66699 -89 17z" />
    <glyph glyph-name="scedilla" unicode="&#x15f;" horiz-adv-x="430" 
d="M131 -199l17 49.001c8.66699 -3.33301 19.334 -6 32.001 -8s23.667 -3 33 -3c18 0 33.667 1.33301 47 4c2.66699 8 4 16.667 4 26c0 20 -15 30 -45 30c-16 0 -29.333 -2.66699 -40 -8l-43 43l48 59c-55.333 3.33301 -102 16 -140 38l24 65c43.333 -24.667 92 -37 146 -37
c30.667 0 58.334 2.66699 83.001 8c6 16 9 33.667 9 53c0 17.333 -2 30.333 -6 39s-12.667 16.167 -26 22.5s-34.333 12.5 -63 18.5c-54.667 11.333 -95.834 27 -123.501 47s-41.5 50.333 -41.5 91c0 24.667 6.33301 47.667 19 69s32.167 38.5 58.5 51.5
s58.833 19.5 97.5 19.5c56.667 0 104 -10.667 142 -32v-31c0 -24 -4.33301 -47 -13 -69h-59l-8 65c-21.333 2.66699 -43.333 4 -66 4c-34 0 -58 -4.66699 -72 -14s-21 -26 -21 -50c0 -21.333 7.16699 -38.166 21.5 -50.499s41.833 -22.833 82.5 -31.5
c38 -8 67.833 -16.833 89.5 -26.5s38.167 -23 49.5 -40s17 -39.833 17 -68.5c0 -34.667 -10.833 -64.834 -32.5 -90.501s-54.834 -41.834 -99.501 -48.501l-38 -54c10 4.66699 23 7 39 7c52.667 0 79 -25.333 79 -76c0 -29.333 -9 -51.333 -27 -66s-46.333 -22 -85 -22
c-35.333 0 -65 5.66699 -89 17z" />
    <glyph glyph-name="Scaron" unicode="&#x160;" horiz-adv-x="518" 
d="M131 829l51 11l84 -75h5l81 75l53 -11l-99 -133h-75zM50 41l29.0029 73.999c54 -28 114.667 -42 182 -42c40.667 0 76.667 3.66699 108 11c8 21.333 12 46.333 12 75c0 30 -9 52.833 -27 68.5s-50.333 29.167 -97 40.5c-62 14.667 -109.833 34.667 -143.5 60
s-50.5 64 -50.5 116s16.167 95.333 48.5 130s85.166 52 158.499 52c40.667 0 74.167 -3.5 100.5 -10.5s51.166 -17.5 74.499 -31.5v-36c0 -28.667 -5.66699 -58.667 -17 -90h-61l-13 85c-32.667 4.66699 -62.334 7 -89.001 7c-42.667 0 -72.834 -7.83301 -90.501 -23.5
s-26.5 -40.834 -26.5 -75.501c0 -19.333 3.83301 -35.166 11.5 -47.499s20.834 -22.666 39.501 -30.999s45.334 -16.5 80.001 -24.5c65.333 -14.667 112.833 -34.667 142.5 -60s44.5 -62.333 44.5 -111c0 -54 -16.5 -98.333 -49.5 -133s-87.5 -52 -163.5 -52
c-74.667 0 -142.334 16.333 -203.001 49z" />
    <glyph glyph-name="scaron" unicode="&#x161;" horiz-adv-x="430" 
d="M72 685l51 11l84 -75h5l81 75l53 -11l-99 -133h-75zM44 31l24 64.999c43.333 -24.667 92 -37 146 -37c30.667 0 58.334 2.66699 83.001 8c6 16 9 33.667 9 53c0 17.333 -2 30.333 -6 39s-12.667 16.167 -26 22.5s-34.333 12.5 -63 18.5
c-54.667 11.333 -95.834 27 -123.501 47s-41.5 50.333 -41.5 91c0 24.667 6.33301 47.667 19 69s32.167 38.5 58.5 51.5s58.833 19.5 97.5 19.5c56.667 0 104 -10.667 142 -32v-31c0 -24 -4.33301 -47 -13 -69h-59l-8 65c-21.333 2.66699 -43.333 4 -66 4
c-34 0 -58 -4.66699 -72 -14s-21 -26 -21 -50c0 -21.333 7.16699 -38.166 21.5 -50.499s41.833 -22.833 82.5 -31.5c38 -8 67.833 -16.833 89.5 -26.5s38.167 -23 49.5 -40s17 -39.833 17 -68.5c0 -40 -14.5 -73.667 -43.5 -101s-73.167 -41 -132.5 -41
c-64 0 -118.667 13 -164 39z" />
    <glyph glyph-name="uni0162" unicode="&#x162;" horiz-adv-x="553" 
d="M174 -199l16.999 49c8.66699 -3.33301 19.334 -6 32.001 -8s23.667 -3 33 -3c18 0 33.667 1.33301 47 4c2.66699 8 4 16.667 4 26c0 20 -15 30 -45 30c-16 0 -29.333 -2.66699 -40 -8l-43 43l55 66v538h-198v78h481v-78h-198v-538h-20l-42 -59c10 4.66699 23 7 39 7
c52.667 0 79 -25.333 79 -76c0 -29.333 -9 -51.333 -27 -66s-46.333 -22 -85 -22c-35.333 0 -65 5.66699 -89 17z" />
    <glyph glyph-name="uni0163" unicode="&#x163;" horiz-adv-x="381" 
d="M115 -199l17 49.002c8.66699 -3.33301 19.334 -6 32.001 -8s23.667 -3 33 -3c18 0 33.667 1.33301 47 4c2.66699 8 4 16.667 4 26c0 20 -15 30 -45 30c-16 0 -29.333 -2.66699 -40 -8l-43 43l58 70c-4.66699 3.33301 -14.667 9.83301 -30 19.5s-26.5 20.667 -33.5 33
s-10.5 27.166 -10.5 44.499v303h-84l10 66h74v126h78v-126h158l-10 -66h-148v-288c0 -14 3 -28 9 -42c16 -6 32.333 -9 49 -9c10.667 0 24.5 2 41.5 6s32.833 9 47.5 15l22 -67c-13.333 -6.66699 -29.333 -12.834 -48 -18.501s-35.334 -8.5 -50.001 -8.5
c-8.66699 0 -15 0.333008 -19 1l-36 -52c10 4.66699 23 7 39 7c52.667 0 79 -25.333 79 -76c0 -29.333 -9 -51.333 -27 -66s-46.333 -22 -85 -22c-35.333 0 -65 5.66699 -89 17z" />
    <glyph glyph-name="Tcaron" unicode="&#x164;" horiz-adv-x="553" 
d="M139 829l51 11l84 -75h5l81 75l53 -11l-99 -133h-75zM234 538h-198v78h481v-78h-198v-538h-85v538z" />
    <glyph glyph-name="tcaron" unicode="&#x165;" horiz-adv-x="381" 
d="M30 829l51 11l84 -75h5l81 75l53 -11l-99 -133h-75zM183 1c-22 11.333 -40.666 25.334 -55.999 42.001s-23 36 -23 58v303h-84l10 66h74v126h78v-126h158l-10 -66h-148v-288c0 -14 3 -28 9 -42c16 -6 32.333 -9 49 -9c10.667 0 24.5 2 41.5 6s32.833 9 47.5 15l22 -67
c-13.333 -6.66699 -29.333 -12.834 -48 -18.501s-35.334 -8.5 -50.001 -8.5c-24.667 0 -48 3 -70 9z" />
    <glyph glyph-name="Tbar" unicode="&#x166;" horiz-adv-x="553" 
d="M234 275h-116v66h116v197h-198v78h481v-78h-198v-197h116v-66h-116v-275h-85v275z" />
    <glyph glyph-name="tbar" unicode="&#x167;" horiz-adv-x="381" 
d="M183 0c-22 11.333 -40.666 25.334 -55.999 42.001s-23 36 -23 58v141h-76v66h76v97h-84l10 66h74v126h78v-126h158l-10 -66h-148v-97h113v-66h-113v-126c0 -14 3 -28 9 -42c16 -6 32.333 -9 49 -9c10.667 0 24.5 2 41.5 6s32.833 9 47.5 15l22 -67
c-13.333 -6.66699 -29.333 -12.834 -48 -18.501s-35.334 -8.5 -50.001 -8.5c-24.667 0 -48 3 -70 9z" />
    <glyph glyph-name="Utilde" unicode="&#x168;" horiz-adv-x="609" 
d="M166 705c2 32.667 9.66602 56.834 22.999 72.501s33.666 23.5 60.999 23.5c10 0 20 -2 30 -6s21.333 -9.66699 34 -17c20.667 -12 35.667 -18 45 -18c23.333 0 36.666 15 39.999 45l55 -18c-2 -32.667 -9.66699 -56.834 -23 -72.501s-33.666 -23.5 -60.999 -23.5
c-11.333 0 -21.666 2 -30.999 6s-20 9.66699 -32 17c-10 6 -18.333 10.5 -25 13.5s-13.667 4.5 -21 4.5c-23.333 0 -36.666 -15 -39.999 -45zM129.499 37.5c-37.667 30.333 -56.499 75.833 -56.499 136.5v442h85v-427c0 -45.333 11 -76.5 33 -93.5s59 -25.5 111 -25.5
c32 0 61.167 2 87.5 6s46.833 9.33301 61.5 16v524h85v-488c0 -49.333 -21.333 -84.333 -64 -105s-101.667 -31 -177 -31c-72.667 0 -127.834 15.167 -165.501 45.5z" />
    <glyph glyph-name="utilde" unicode="&#x169;" horiz-adv-x="520" 
d="M116 561c2 32.667 9.66602 56.834 22.999 72.501s33.666 23.5 60.999 23.5c10 0 20 -2 30 -6s21.333 -9.66699 34 -17c20.667 -12 35.667 -18 45 -18c23.333 0 36.666 15 39.999 45l55 -18c-2 -32.667 -9.66699 -56.834 -23 -72.501s-33.666 -23.5 -60.999 -23.5
c-11.333 0 -21.666 2 -30.999 6s-20 9.66699 -32 17c-10 6 -18.333 10.5 -25 13.5s-13.667 4.5 -21 4.5c-23.333 0 -36.666 -15 -39.999 -45zM99.999 22.5c-21.333 20.333 -32 54.833 -32 103.5v344h82v-397c20.667 -6 42.667 -9 66 -9c62 0 111.333 21.333 148 64v342h82
v-470h-71l-6 72h-8c-22.667 -25.333 -46.667 -45 -72 -59s-54.333 -21 -87 -21c-46.667 0 -80.667 10.167 -102 30.5z" />
    <glyph glyph-name="Umacron" unicode="&#x16a;" horiz-adv-x="609" 
d="M151 766h306v-70h-306v70zM129.5 37.5c-37.667 30.333 -56.499 75.833 -56.499 136.5v442h85v-427c0 -45.333 11 -76.5 33 -93.5s59 -25.5 111 -25.5c32 0 61.167 2 87.5 6s46.833 9.33301 61.5 16v524h85v-488c0 -49.333 -21.333 -84.333 -64 -105
s-101.667 -31 -177 -31c-72.667 0 -127.834 15.167 -165.501 45.5z" />
    <glyph glyph-name="umacron" unicode="&#x16b;" horiz-adv-x="520" 
d="M107 622h306v-70h-306v70zM100 22.5c-21.333 20.333 -32 54.833 -32 103.5v344h82v-397c20.667 -6 42.667 -9 66 -9c62 0 111.333 21.333 148 64v342h82v-470h-71l-6 72h-8c-22.667 -25.333 -46.667 -45 -72 -59s-54.333 -21 -87 -21c-46.667 0 -80.667 10.167 -102 30.5
z" />
    <glyph glyph-name="Ubreve" unicode="&#x16c;" horiz-adv-x="609" 
d="M208.5 720.5c-22.333 19.667 -35.502 47.5 -39.502 83.5l77 12c1.33301 -21.333 6 -36.833 14 -46.5s22.667 -14.5 44 -14.5s36 4.83301 44 14.5s12.667 25.167 14 46.5l77 -12c-4 -36 -17.167 -63.833 -39.5 -83.5s-54.166 -29.5 -95.499 -29.5
s-73.166 9.83301 -95.499 29.5zM129.498 37.5c-37.667 30.333 -56.499 75.833 -56.499 136.5v442h85v-427c0 -45.333 11 -76.5 33 -93.5s59 -25.5 111 -25.5c32 0 61.167 2 87.5 6s46.833 9.33301 61.5 16v524h85v-488c0 -49.333 -21.333 -84.333 -64 -105
s-101.667 -31 -177 -31c-72.667 0 -127.834 15.167 -165.501 45.5z" />
    <glyph glyph-name="ubreve" unicode="&#x16d;" horiz-adv-x="520" 
d="M164.5 576.5c-22.333 19.667 -35.502 47.5 -39.502 83.5l77 12c1.33301 -21.333 6 -36.833 14 -46.5s22.667 -14.5 44 -14.5s36 4.83301 44 14.5s12.667 25.167 14 46.5l77 -12c-4 -36 -17.167 -63.833 -39.5 -83.5s-54.166 -29.5 -95.499 -29.5
s-73.166 9.83301 -95.499 29.5zM99.998 22.5c-21.333 20.333 -32 54.833 -32 103.5v344h82v-397c20.667 -6 42.667 -9 66 -9c62 0 111.333 21.333 148 64v342h82v-470h-71l-6 72h-8c-22.667 -25.333 -46.667 -45 -72 -59s-54.333 -21 -87 -21
c-46.667 0 -80.667 10.167 -102 30.5z" />
    <glyph glyph-name="Uring" unicode="&#x16e;" horiz-adv-x="609" 
d="M218 710c-19.333 16 -29 38.668 -29 68.001c0 27.333 10.667 50.166 32 68.499s51 27.5 89 27.5c33.333 0 59.833 -8.66699 79.5 -26s29.5 -41 29.5 -71c0 -26 -11 -47.667 -33 -65s-51.333 -26 -88 -26c-34 0 -60.667 8 -80 24zM357 740.001c3.33301 12 5 24 5 36
c0 13.333 -4.83301 24.833 -14.5 34.5s-22.5 14.5 -38.5 14.5c-26 0 -45.333 -1.66699 -58 -5c-3.33301 -11.333 -5 -25 -5 -41c0 -13.333 4.83301 -24 14.5 -32s22.5 -12 38.5 -12c28 0 47.333 1.66699 58 5zM129.5 37.501c-37.667 30.333 -56.499 75.833 -56.499 136.5
v442h85v-427c0 -45.333 11 -76.5 33 -93.5s59 -25.5 111 -25.5c32 0 61.167 2 87.5 6s46.833 9.33301 61.5 16v524h85v-488c0 -49.333 -21.333 -84.333 -64 -105s-101.667 -31 -177 -31c-72.667 0 -127.834 15.167 -165.501 45.5z" />
    <glyph glyph-name="uring" unicode="&#x16f;" horiz-adv-x="520" 
d="M174 566c-19.333 16 -29 38.668 -29 68.001c0 27.333 10.667 50.166 32 68.499s51 27.5 89 27.5c33.333 0 59.833 -8.66699 79.5 -26s29.5 -41 29.5 -71c0 -26 -11 -47.667 -33 -65s-51.333 -26 -88 -26c-34 0 -60.667 8 -80 24zM313 596.001c3.33301 12 5 24 5 36
c0 13.333 -4.83301 24.833 -14.5 34.5s-22.5 14.5 -38.5 14.5c-26 0 -45.333 -1.66699 -58 -5c-3.33301 -11.333 -5 -25 -5 -41c0 -13.333 4.83301 -24 14.5 -32s22.5 -12 38.5 -12c28 0 47.333 1.66699 58 5zM100 22.501c-21.333 20.333 -32 54.833 -32 103.5v344h82v-397
c20.667 -6 42.667 -9 66 -9c62 0 111.333 21.333 148 64v342h82v-470h-71l-6 72h-8c-22.667 -25.333 -46.667 -45 -72 -59s-54.333 -21 -87 -21c-46.667 0 -80.667 10.167 -102 30.5z" />
    <glyph glyph-name="Uhungarumlaut" unicode="&#x170;" horiz-adv-x="609" 
d="M184 696c22.667 42 34 81 34 117h-53v56c16 6 32 9 48 9c22.667 0 39.334 -6 50.001 -18s16 -30 16 -54c0 -20 -4.33301 -40.833 -13 -62.5s-20.334 -41.167 -35.001 -58.5zM349 696c22.667 42 34.001 81.001 34.001 117.001h-53v56c16 6 32.667 9 50 9
c22.667 0 39 -5.83301 49 -17.5s15 -29.834 15 -54.501c0 -20 -4.33301 -40.833 -13 -62.5s-20.334 -41.167 -35.001 -58.5zM129.501 37.501c-37.667 30.333 -56.499 75.833 -56.499 136.5v442h85v-427c0 -45.333 11 -76.5 33 -93.5s59 -25.5 111 -25.5
c32 0 61.167 2 87.5 6s46.833 9.33301 61.5 16v524h85v-488c0 -49.333 -21.333 -84.333 -64 -105s-101.667 -31 -177 -31c-72.667 0 -127.834 15.167 -165.501 45.5z" />
    <glyph glyph-name="uhungarumlaut" unicode="&#x171;" horiz-adv-x="520" 
d="M140 552c22.667 42 34 81 34 117h-53v56c16 6 32 9 48 9c22.667 0 39.334 -6 50.001 -18s16 -30 16 -54c0 -20 -4.33301 -40.833 -13 -62.5s-20.334 -41.167 -35.001 -58.5zM305 552c22.667 42 34.001 81.001 34.001 117.001h-53v56c16 6 32.667 9 50 9
c22.667 0 39 -5.83301 49 -17.5s15 -29.834 15 -54.501c0 -20 -4.33301 -40.833 -13 -62.5s-20.334 -41.167 -35.001 -58.5zM100.001 22.501c-21.333 20.333 -32 54.833 -32 103.5v344h82v-397c20.667 -6 42.667 -9 66 -9c62 0 111.333 21.333 148 64v342h82v-470h-71l-6 72
h-8c-22.667 -25.333 -46.667 -45 -72 -59s-54.333 -21 -87 -21c-46.667 0 -80.667 10.167 -102 30.5z" />
    <glyph glyph-name="Uogonek" unicode="&#x172;" horiz-adv-x="609" 
d="M259 -146.5c-18.667 13.667 -28.001 33.499 -28.001 59.499c0 18 4.16699 33.167 12.5 45.5s20.5 23.5 36.5 33.5c-68 2 -119.5 18.167 -154.5 48.5s-52.5 74.833 -52.5 133.5v442h85v-427c0 -45.333 11 -76.5 33 -93.5s59 -25.5 111 -25.5c32 0 61.167 2 87.5 6
s46.833 9.33301 61.5 16v524h85v-488c0 -42 -15.5 -73.5 -46.5 -94.5s-74.833 -33.833 -131.5 -38.5c-20 -12.667 -34 -24.667 -42 -36s-12 -24.666 -12 -39.999c0 -8.66699 1 -16 3 -22c8.66699 -2.66699 21.334 -4 38.001 -4c16 0 29.667 1.66699 41 5l14 -54
c-18 -7.33301 -39.667 -11 -65 -11c-32 0 -57.333 6.83301 -76 20.5z" />
    <glyph glyph-name="uogonek" unicode="&#x173;" horiz-adv-x="520" 
d="M452 -156c-18 -7.33301 -39.668 -10.999 -65.001 -10.999c-32 0 -57.333 6.83301 -76 20.5s-28 33.5 -28 59.5c0 24 7.83301 43.667 23.5 59s38.167 29 67.5 41l-5 59h-8c-22.667 -25.333 -46.667 -45 -72 -59s-54.333 -21 -87 -21c-46.667 0 -80.667 10.167 -102 30.5
s-32 54.833 -32 103.5v344h82v-397c20.667 -6 42.667 -9 66 -9c62 0 111.333 21.333 148 64v342h82v-470h-26c-24 -14 -40.667 -26.833 -50 -38.5s-14 -25.834 -14 -42.501c0 -8.66699 1 -16 3 -22c8.66699 -2.66699 21.334 -4 38.001 -4c16 0 29.667 1.66699 41 5z" />
    <glyph glyph-name="Wcircumflex" unicode="&#x174;" horiz-adv-x="833" 
d="M279 695l100 133h75l99 -133l-53 -11l-81 75h-5l-84 -75zM36 609l91.9971 9.00098c16.667 -94.667 33.834 -180.834 51.501 -258.501l60.5 -253.5h8l68 204l65 198c-7.33301 29.333 -14.333 60.666 -21 93.999l85 9c16.667 -78 33.667 -148 51 -210l64 -221l22 -74h11
l60.5 253.5c17.667 77.667 34.834 163.834 51.501 258.501l92 -9c-22.667 -102 -46.5 -200.667 -71.5 -296s-53.833 -199.666 -86.5 -312.999h-104l-20 60c-40 119.333 -71.333 218.666 -94 297.999h-14l-18 -55l-15 -46c-42 -126 -71.333 -211.667 -88 -257h-93
c-65.333 226.667 -117.666 429.667 -156.999 609z" />
    <glyph glyph-name="wcircumflex" unicode="&#x175;" horiz-adv-x="713" 
d="M219 551l100 133h75l99 -133l-53 -11l-81 75h-5l-84 -75zM37 467l80.001 7l56 -237c14 -56.667 29 -108.667 45 -156h6c43.333 107.333 77.333 205 102 293c-4.66699 19.333 -11 48.333 -19 87l74 7c32.667 -155.333 68.334 -286.333 107.001 -393h6
c33.333 90 72.666 223.667 117.999 401l77 -9c-26.667 -96.667 -51.5 -181.5 -74.5 -254.5s-47.833 -143.833 -74.5 -212.5h-96c-30 74 -58.667 159.667 -86 257h-4c-12.667 -38 -27.334 -79.833 -44.001 -125.5l-34 -92.5l-15 -39h-87c-54 148 -99.667 303.667 -137 467z
" />
    <glyph glyph-name="Ycircumflex" unicode="&#x176;" horiz-adv-x="615" 
d="M170 695l100 133h75l99 -133l-53 -11l-81 75h-5l-84 -75zM265 211h-21.002c-46 62 -85.167 122.667 -117.5 182s-65.166 128.333 -98.499 207l85 21c26 -64.667 54.667 -126.834 86 -186.501s62.333 -111.834 93 -156.501h31c30.667 44.667 61.667 96.834 93 156.501
s60 121.834 86 186.501l85 -21c-33.333 -78.667 -66.166 -147.667 -98.499 -207s-71.5 -120 -117.5 -182h-21v-211h-85v211z" />
    <glyph glyph-name="ycircumflex" unicode="&#x177;" horiz-adv-x="496" 
d="M114 551l100 133h75l99 -133l-53 -11l-81 75h-5l-84 -75zM53 -178l-0.00292969 31c0 21.333 3.33301 42.333 10 63h59v-44c9.33301 -2 21 -3 35 -3c6.66699 0 18.667 1.33301 36 4c16.667 39.333 35.334 88.666 56.001 147.999h-64c-36.667 88 -67 166 -91 234
s-45.333 139 -64 213l81 7c34.667 -140 75.334 -268 122.001 -384h39c36.667 113.333 71.667 241.333 105 384l83 -7c-27.333 -112.667 -56.833 -219.167 -88.5 -319.5s-63.167 -187.166 -94.5 -260.499c-10.667 -25.333 -29.5 -45.833 -56.5 -61.5s-53.5 -23.5 -79.5 -23.5
c-33.333 0 -62.666 6.33301 -87.999 19z" />
    <glyph glyph-name="Ydieresis" unicode="&#x178;" horiz-adv-x="615" 
d="M194.5 702.5c-8.33301 7.66699 -12.5 18.167 -12.5 31.5c0 14 4.16699 24.833 12.5 32.5s19.5 11.5 33.5 11.5c14.667 0 26 -3.83301 34 -11.5s12 -18.5 12 -32.5c0 -13.333 -4 -23.833 -12 -31.5s-19.333 -11.5 -34 -11.5c-14 0 -25.167 3.83301 -33.5 11.5z
M351.5 702.5c-8.33301 7.66699 -12.5 18.167 -12.5 31.5c0 14 4.16699 24.833 12.5 32.5s19.833 11.5 34.5 11.5s26 -3.83301 34 -11.5s12 -18.5 12 -32.5c0 -13.333 -4 -23.833 -12 -31.5s-19.333 -11.5 -34 -11.5s-26.167 3.83301 -34.5 11.5zM265 211h-21.002
c-46 62 -85.167 122.667 -117.5 182s-65.166 128.333 -98.499 207l85 21c26 -64.667 54.667 -126.834 86 -186.501s62.333 -111.834 93 -156.501h31c30.667 44.667 61.667 96.834 93 156.501s60 121.834 86 186.501l85 -21c-33.333 -78.667 -66.166 -147.667 -98.499 -207
s-71.5 -120 -117.5 -182h-21v-211h-85v211z" />
    <glyph glyph-name="Zacute" unicode="&#x179;" horiz-adv-x="561" 
d="M225 695l83 145l106 -11l-125 -144zM48 82l346 445v13h-245v-64h-74c-11.333 31.333 -17 61.666 -17 90.999v49h441v-82l-347 -443v-16h270v65h74c11.333 -31.333 17 -61.666 17 -90.999v-49h-465v82z" />
    <glyph glyph-name="zacute" unicode="&#x17a;" horiz-adv-x="449" 
d="M177 552l83 145l106 -11l-125 -144zM46 72l255 324v10h-166l-8 -61h-59c-8.66699 23.333 -13 46.333 -13 69v56h338v-72l-256 -322v-12h188l8 61h59c8.66699 -23.333 13 -46.333 13 -69v-56h-359v72z" />
    <glyph glyph-name="Zdotaccent" unicode="&#x17b;" horiz-adv-x="561" 
d="M242 706c-10.667 10 -15.9961 23.667 -15.9961 41c0 18.667 5.16699 33 15.5 43s25.166 15 44.499 15s34.166 -5 44.499 -15s15.5 -24.333 15.5 -43c0 -17.333 -5.33301 -31 -16 -41s-25.334 -15 -44.001 -15s-33.334 5 -44.001 15zM48.0039 82l346 445v13h-245v-64h-74
c-11.333 31.333 -17 61.666 -17 90.999v49h441v-82l-347 -443v-16h270v65h74c11.333 -31.333 17 -61.666 17 -90.999v-49h-465v82z" />
    <glyph glyph-name="zdotaccent" unicode="&#x17c;" horiz-adv-x="449" 
d="M181 562c-10.667 10 -15.9961 23.667 -15.9961 41c0 18.667 5.16699 33 15.5 43s25.166 15 44.499 15s34.166 -5 44.499 -15s15.5 -24.333 15.5 -43c0 -17.333 -5.33301 -31 -16 -41s-25.334 -15 -44.001 -15s-33.334 5 -44.001 15zM46.0039 72l255 324v10h-166l-8 -61
h-59c-8.66699 23.333 -13 46.333 -13 69v56h338v-72l-256 -322v-12h188l8 61h59c8.66699 -23.333 13 -46.333 13 -69v-56h-359v72z" />
    <glyph glyph-name="Zcaron" unicode="&#x17d;" horiz-adv-x="561" 
d="M143 829l51 11l84 -75h5l81 75l53 -11l-99 -133h-75zM48 82l346 445v13h-245v-64h-74c-11.333 31.333 -17 61.666 -17 90.999v49h441v-82l-347 -443v-16h270v65h74c11.333 -31.333 17 -61.666 17 -90.999v-49h-465v82z" />
    <glyph glyph-name="zcaron" unicode="&#x17e;" horiz-adv-x="453" 
d="M98 685l51 11l84 -75h5l81 75l53 -11l-99 -133h-75zM50 72l255 324v10h-166l-8 -61h-59c-8.66699 23.333 -13 46.333 -13 69v56h338v-72l-256 -322v-12h188l8 61h59c8.66699 -23.333 13 -46.333 13 -69v-56h-359v72z" />
    <glyph glyph-name="uni018F" unicode="&#x18f;" horiz-adv-x="627" 
d="M110 56.5c-39.333 44.333 -58.999 105.167 -58.999 182.5c0 16.667 0.333008 29.334 1 38.001l78 72l346 -5c0 71.333 -16.5 123.166 -49.5 155.499s-82.167 48.5 -147.5 48.5c-44.667 0 -80 -4.5 -106 -13.5s-54.333 -23.5 -85 -43.5l-33 66
c35.333 22 70.166 39 104.499 51s76.5 18 126.5 18c92 0 161 -27.667 207 -83s69 -131.666 69 -228.999c0 -104.667 -23 -184.834 -69 -240.501s-114 -83.5 -204 -83.5c-80 0 -139.667 22.167 -179 66.5zM431.501 119.501c30.333 34.333 45.5 85.5 45.5 153.5l-338 -5
c-2.66699 -18.667 -4 -37 -4 -55c0 -44.667 13.167 -80 39.5 -106s64.833 -39 115.5 -39c64 0 111.167 17.167 141.5 51.5z" />
    <glyph glyph-name="florin" unicode="&#x192;" horiz-adv-x="461" 
d="M-20 -136l16.0029 68.999c10.667 -2 24 -3 40 -3c24 0 45.667 2.66699 65 8c10 15.333 17 36 21 62l56 398h-64l19 66h54l10 73c3.33301 24 14.666 46.167 33.999 66.5s40 36.5 62 48.5c20 3.33301 42 5 66 5c34 0 66.333 -8.33301 97 -25l-28 -66
c-14.667 6.66699 -27.167 11.334 -37.5 14.001s-22.5 4 -36.5 4c-24.667 0 -45.334 -4 -62.001 -12c-8 -13.333 -13.667 -31.333 -17 -54l-8 -54h116l-19 -66h-106l-54 -384c-8 -55.333 -24 -96.5 -48 -123.5s-60 -40.5 -108 -40.5c-24.667 0 -47.334 4.66699 -68.001 14z
" />
    <glyph glyph-name="Ohorn" unicode="&#x1a0;" horiz-adv-x="656" 
d="M116 68.5c-42.667 51.667 -64.001 127.5 -64.001 227.5c0 112.667 20.5 195.834 61.5 249.501s109.167 80.5 204.5 80.5c44.667 0 82 -6 112 -18s55 -31 75 -57h10c13.333 25.333 23.333 50.666 30 75.999s10.334 55 11.001 89h80
c0 -56.667 -7.5 -102.334 -22.5 -137.001s-40.167 -64 -75.5 -88c10.667 -23.333 18.5 -48.166 23.5 -74.499s7.5 -58.166 7.5 -95.499c0 -112.667 -20.5 -195.834 -61.5 -249.501s-109.167 -80.5 -204.5 -80.5c-82 0 -144.333 25.833 -187 77.5zM383.999 74
c22 3.33301 39.333 7.66406 52 12.9971c32 70.667 48 142.334 48 215.001c0 86.667 -13.5 149.334 -40.5 188.001s-73.5 58 -139.5 58c-23.333 0 -46.666 -1.66699 -69.999 -5s-41.333 -7.66602 -54 -12.999c-28.667 -62 -43 -133.667 -43 -215
c0 -86 13.667 -148.5 41 -187.5s73.666 -58.5 138.999 -58.5c22.667 0 45 1.66699 67 5z" />
    <glyph glyph-name="ohorn" unicode="&#x1a1;" horiz-adv-x="571" 
d="M95.5 53.5c-30.333 41.667 -45.499 100.832 -45.499 177.499c0 166 73.333 249 220 249c79.333 0 134.666 -30.333 165.999 -91h9c13.333 20 22.5 41.667 27.5 65s7.83301 53.333 8.5 90h80c0 -52.667 -7.66699 -96 -23 -130s-42 -62.667 -80 -86c6 -26.667 9 -59 9 -97
c0 -79.333 -17.333 -139.166 -52 -179.499s-90.667 -60.5 -168 -60.5c-70.667 0 -121.167 20.833 -151.5 62.5zM364.001 77.998c14.667 30.667 22 76.334 22 137.001c0 47.333 -3.5 84.5 -10.5 111.5s-20.333 47.167 -40 60.5s-49.167 20 -88.5 20
c-38 0 -69.333 -5.33301 -94 -16c-14.667 -31.333 -22 -80 -22 -146c0 -46.667 3.33301 -82.834 10 -108.501s20 -44.667 40 -57s49.667 -18.5 89 -18.5c36.667 0 68 5.66699 94 17z" />
    <glyph glyph-name="Uhorn" unicode="&#x1af;" horiz-adv-x="727" 
d="M129.5 37.5c-37.667 30.333 -56.499 75.832 -56.499 136.499v442h85v-427c0 -45.333 11 -76.5 33 -93.5s59 -25.5 111 -25.5c32 0 61.167 2 87.5 6s46.833 9.33301 61.5 16v524h83v-99h8c74 30.667 111 90.334 111 179.001h84c0 -68.667 -18 -124.5 -54 -167.5
s-85 -72.167 -147 -87.5v-313c0 -49.333 -21.333 -84.333 -64 -105s-101.667 -31 -177 -31c-72.667 0 -127.834 15.167 -165.501 45.5z" />
    <glyph glyph-name="uhorn" unicode="&#x1b0;" horiz-adv-x="621" 
d="M100 22.5c-21.333 20.333 -32 54.833 -32 103.5v344h82v-397c20.667 -6 42.667 -9 66 -9c62 0 111.333 21.333 148 64v342h82v-81h9c28 15.333 47.667 34.5 59 57.5s17 55.5 17 97.5h80c0 -54 -13.5 -99.333 -40.5 -136s-68.5 -66 -124.5 -88v-320h-71l-6 72h-8
c-22.667 -25.333 -46.667 -45 -72 -59s-54.333 -21 -87 -21c-46.667 0 -80.667 10.167 -102 30.5z" />
    <glyph glyph-name="uni01CD" unicode="&#x1cd;" horiz-adv-x="607" 
d="M166 829l51 11l84 -75h5l81 75l53 -11l-99 -133h-75zM35 7c27.333 102.667 58.501 208.667 93.501 318s68.833 206.333 101.5 291h147c32.667 -84.667 66.5 -181.667 101.5 -291s66.167 -215.333 93.5 -318l-91 -7c-18.667 74 -36.334 140.667 -53.001 200h-250
c-20 -69.333 -37.333 -136 -52 -200zM406.001 275c-34.667 117.333 -62 204 -82 260h-41c-24 -68 -51.667 -154.667 -83 -260h206z" />
    <glyph glyph-name="uni01CE" unicode="&#x1ce;" horiz-adv-x="474" 
d="M110 685l51 11l84 -75h5l81 75l53 -11l-99 -133h-75zM75.5 24.5c-23.667 21.667 -35.5 51.168 -35.5 88.501c0 50.667 19.333 88.334 58 113.001s92 37 160 37c22 0 44 -1 66 -3v62c0 36 -7.33301 60.5 -22 73.5s-40.667 19.5 -78 19.5
c-22.667 0 -44.667 -1.33301 -66 -4l-10 -75h-61c-8.66699 23.333 -13 45.666 -13 66.999v25c20 12.667 47.167 24.167 81.5 34.5s65.833 15.5 94.5 15.5c50 0 88.5 -12.833 115.5 -38.5s40.5 -61.834 40.5 -108.501v-331h-73l-4 66h-8
c-16.667 -23.333 -37.5 -41.5 -62.5 -54.5s-51.5 -19.5 -79.5 -19.5c-45.333 0 -79.833 10.833 -103.5 32.5zM267 75.001c24 12.667 43.667 30.668 59 54.001v74c-23.333 5.33301 -54 8 -92 8c-42 0 -72.667 -2.66699 -92 -8c-6 -14.667 -10.167 -27.834 -12.5 -39.501
s-3.5 -25.5 -3.5 -41.5c0 -24 5.5 -41 16.5 -51s26.833 -15 47.5 -15c27.333 0 53 6.33301 77 19z" />
    <glyph glyph-name="uni01CF" unicode="&#x1cf;" horiz-adv-x="242" 
d="M-16 829l51 11l84 -75h5l81 75l53 -11l-99 -133h-75zM78 616h85v-616h-85v616z" />
    <glyph glyph-name="uni01D0" unicode="&#x1d0;" horiz-adv-x="232" 
d="M-21 685l51 11l84 -75h5l81 75l53 -11l-99 -133h-75zM76 469h80v-469h-80v469z" />
    <glyph glyph-name="uni01D1" unicode="&#x1d1;" horiz-adv-x="621" 
d="M173 829l51 11l84 -75h5l81 75l53 -11l-99 -133h-75zM116 69c-42.667 51.333 -64 126.999 -64 226.999c0 112.667 20.5 195.834 61.5 249.501s109.167 80.5 204.5 80.5c85.333 0 148.5 -25.5 189.5 -76.5s61.5 -127.167 61.5 -228.5
c0 -112.667 -20.5 -195.667 -61.5 -249s-109.167 -80 -204.5 -80c-82 0 -144.333 25.667 -187 77zM384 74.999c22 3.33301 39.333 7.66504 52 12.998c32 70.667 48 142 48 214c0 86.667 -13.5 149.334 -40.5 188.001s-73.5 58 -139.5 58
c-23.333 0 -46.666 -1.66699 -69.999 -5s-41.333 -7.66602 -54 -12.999c-28.667 -62 -43 -133.667 -43 -215c0 -86 13.667 -148.333 41 -187s73.666 -58 138.999 -58c22.667 0 45 1.66699 67 5z" />
    <glyph glyph-name="uni01D2" unicode="&#x1d2;" horiz-adv-x="517" 
d="M121 685l51 11l84 -75h5l81 75l53 -11l-99 -133h-75zM95.5 54c-30.333 41.333 -45.5 100.333 -45.5 177c0 166 73.333 249 220 249c131.333 0 197 -83 197 -249c0 -79.333 -17.333 -139 -52 -179s-90.667 -60 -168 -60c-70.667 0 -121.167 20.667 -151.5 62zM364 79
c14.667 30.667 22 75.999 22 135.999c0 47.333 -3.5 84.5 -10.5 111.5s-20.333 47.167 -40 60.5s-49.167 20 -88.5 20c-38 0 -69.333 -5.33301 -94 -16c-14.667 -31.333 -22 -80 -22 -146c0 -46.667 3.33301 -82.667 10 -108s20 -44.166 40 -56.499s49.667 -18.5 89 -18.5
c36.667 0 68 5.66699 94 17z" />
    <glyph glyph-name="uni01D3" unicode="&#x1d3;" horiz-adv-x="609" 
d="M167 829l51 11l84 -75h5l81 75l53 -11l-99 -133h-75zM129.5 37.5c-37.667 30.333 -56.499 75.833 -56.499 136.5v442h85v-427c0 -45.333 11 -76.5 33 -93.5s59 -25.5 111 -25.5c32 0 61.167 2 87.5 6s46.833 9.33301 61.5 16v524h85v-488
c0 -49.333 -21.333 -84.333 -64 -105s-101.667 -31 -177 -31c-72.667 0 -127.834 15.167 -165.501 45.5z" />
    <glyph glyph-name="uni01D4" unicode="&#x1d4;" horiz-adv-x="520" 
d="M123 685l51 11l84 -75h5l81 75l53 -11l-99 -133h-75zM100 22.5c-21.333 20.333 -32 54.833 -32 103.5v344h82v-397c20.667 -6 42.667 -9 66 -9c62 0 111.333 21.333 148 64v342h82v-470h-71l-6 72h-8c-22.667 -25.333 -46.667 -45 -72 -59s-54.333 -21 -87 -21
c-46.667 0 -80.667 10.167 -102 30.5z" />
    <glyph glyph-name="uni01D5" unicode="&#x1d5;" horiz-adv-x="609" 
d="M151 909h306v-70h-306v70zM191.5 702.5c-8.33301 7.66699 -12.5 18.167 -12.5 31.5c0 14 4.16699 24.833 12.5 32.5s19.5 11.5 33.5 11.5c14.667 0 26 -3.83301 34 -11.5s12 -18.5 12 -32.5c0 -13.333 -4 -23.833 -12 -31.5s-19.333 -11.5 -34 -11.5
c-14 0 -25.167 3.83301 -33.5 11.5zM348.5 702.5c-8.33301 7.66699 -12.5 18.167 -12.5 31.5c0 14 4.16699 24.833 12.5 32.5s19.833 11.5 34.5 11.5s26 -3.83301 34 -11.5s12 -18.5 12 -32.5c0 -13.333 -4 -23.833 -12 -31.5s-19.333 -11.5 -34 -11.5
s-26.167 3.83301 -34.5 11.5zM129.5 37.5c-37.667 30.333 -56.499 75.833 -56.499 136.5v442h85v-427c0 -45.333 11 -76.5 33 -93.5s59 -25.5 111 -25.5c32 0 61.167 2 87.5 6s46.833 9.33301 61.5 16v524h85v-488c0 -49.333 -21.333 -84.333 -64 -105
s-101.667 -31 -177 -31c-72.667 0 -127.834 15.167 -165.501 45.5z" />
    <glyph glyph-name="uni01D6" unicode="&#x1d6;" horiz-adv-x="520" 
d="M107 765h306v-70h-306v70zM147.5 558.5c-8.33301 7.66699 -12.5 18.167 -12.5 31.5c0 14 4.16699 24.833 12.5 32.5s19.5 11.5 33.5 11.5c14.667 0 26 -3.83301 34 -11.5s12 -18.5 12 -32.5c0 -13.333 -4 -23.833 -12 -31.5s-19.333 -11.5 -34 -11.5
c-14 0 -25.167 3.83301 -33.5 11.5zM304.5 558.5c-8.33301 7.66699 -12.5 18.167 -12.5 31.5c0 14 4.16699 24.833 12.5 32.5s19.833 11.5 34.5 11.5s26 -3.83301 34 -11.5s12 -18.5 12 -32.5c0 -13.333 -4 -23.833 -12 -31.5s-19.333 -11.5 -34 -11.5
s-26.167 3.83301 -34.5 11.5zM100 22.5c-21.333 20.333 -32 54.833 -32 103.5v344h82v-397c20.667 -6 42.667 -9 66 -9c62 0 111.333 21.333 148 64v342h82v-470h-71l-6 72h-8c-22.667 -25.333 -46.667 -45 -72 -59s-54.333 -21 -87 -21c-46.667 0 -80.667 10.167 -102 30.5
z" />
    <glyph glyph-name="uni01D7" unicode="&#x1d7;" horiz-adv-x="609" 
d="M262 864l83 145l106 -11l-125 -144zM191.5 702.5c-8.33301 7.66699 -12.5 18.167 -12.5 31.5c0 14 4.16699 24.833 12.5 32.5s19.5 11.5 33.5 11.5c14.667 0 26 -3.83301 34 -11.5s12 -18.5 12 -32.5c0 -13.333 -4 -23.833 -12 -31.5s-19.333 -11.5 -34 -11.5
c-14 0 -25.167 3.83301 -33.5 11.5zM348.5 702.5c-8.33301 7.66699 -12.5 18.167 -12.5 31.5c0 14 4.16699 24.833 12.5 32.5s19.833 11.5 34.5 11.5s26 -3.83301 34 -11.5s12 -18.5 12 -32.5c0 -13.333 -4 -23.833 -12 -31.5s-19.333 -11.5 -34 -11.5
s-26.167 3.83301 -34.5 11.5zM129.5 37.5c-37.667 30.333 -56.499 75.833 -56.499 136.5v442h85v-427c0 -45.333 11 -76.5 33 -93.5s59 -25.5 111 -25.5c32 0 61.167 2 87.5 6s46.833 9.33301 61.5 16v524h85v-488c0 -49.333 -21.333 -84.333 -64 -105
s-101.667 -31 -177 -31c-72.667 0 -127.834 15.167 -165.501 45.5z" />
    <glyph glyph-name="uni01D8" unicode="&#x1d8;" horiz-adv-x="520" 
d="M226 720l83 145l106 -11l-125 -144zM147.5 558.5c-8.33301 7.66699 -12.5 18.167 -12.5 31.5c0 14 4.16699 24.833 12.5 32.5s19.5 11.5 33.5 11.5c14.667 0 26 -3.83301 34 -11.5s12 -18.5 12 -32.5c0 -13.333 -4 -23.833 -12 -31.5s-19.333 -11.5 -34 -11.5
c-14 0 -25.167 3.83301 -33.5 11.5zM304.5 558.5c-8.33301 7.66699 -12.5 18.167 -12.5 31.5c0 14 4.16699 24.833 12.5 32.5s19.833 11.5 34.5 11.5s26 -3.83301 34 -11.5s12 -18.5 12 -32.5c0 -13.333 -4 -23.833 -12 -31.5s-19.333 -11.5 -34 -11.5
s-26.167 3.83301 -34.5 11.5zM100 22.5c-21.333 20.333 -32 54.833 -32 103.5v344h82v-397c20.667 -6 42.667 -9 66 -9c62 0 111.333 21.333 148 64v342h82v-470h-71l-6 72h-8c-22.667 -25.333 -46.667 -45 -72 -59s-54.333 -21 -87 -21c-46.667 0 -80.667 10.167 -102 30.5
z" />
    <glyph glyph-name="uni01D9" unicode="&#x1d9;" horiz-adv-x="609" 
d="M161 973l51 11l84 -75h5l81 75l53 -11l-99 -133h-75zM191.5 702.5c-8.33301 7.66699 -12.5 18.167 -12.5 31.5c0 14 4.16699 24.833 12.5 32.5s19.5 11.5 33.5 11.5c14.667 0 26 -3.83301 34 -11.5s12 -18.5 12 -32.5c0 -13.333 -4 -23.833 -12 -31.5
s-19.333 -11.5 -34 -11.5c-14 0 -25.167 3.83301 -33.5 11.5zM348.5 702.5c-8.33301 7.66699 -12.5 18.167 -12.5 31.5c0 14 4.16699 24.833 12.5 32.5s19.833 11.5 34.5 11.5s26 -3.83301 34 -11.5s12 -18.5 12 -32.5c0 -13.333 -4 -23.833 -12 -31.5
s-19.333 -11.5 -34 -11.5s-26.167 3.83301 -34.5 11.5zM129.5 37.5c-37.667 30.333 -56.499 75.833 -56.499 136.5v442h85v-427c0 -45.333 11 -76.5 33 -93.5s59 -25.5 111 -25.5c32 0 61.167 2 87.5 6s46.833 9.33301 61.5 16v524h85v-488
c0 -49.333 -21.333 -84.333 -64 -105s-101.667 -31 -177 -31c-72.667 0 -127.834 15.167 -165.501 45.5z" />
    <glyph glyph-name="uni01DA" unicode="&#x1da;" horiz-adv-x="520" 
d="M123 829l51 11l84 -75h5l81 75l53 -11l-99 -133h-75zM147.5 558.5c-8.33301 7.66699 -12.5 18.167 -12.5 31.5c0 14 4.16699 24.833 12.5 32.5s19.5 11.5 33.5 11.5c14.667 0 26 -3.83301 34 -11.5s12 -18.5 12 -32.5c0 -13.333 -4 -23.833 -12 -31.5
s-19.333 -11.5 -34 -11.5c-14 0 -25.167 3.83301 -33.5 11.5zM304.5 558.5c-8.33301 7.66699 -12.5 18.167 -12.5 31.5c0 14 4.16699 24.833 12.5 32.5s19.833 11.5 34.5 11.5s26 -3.83301 34 -11.5s12 -18.5 12 -32.5c0 -13.333 -4 -23.833 -12 -31.5
s-19.333 -11.5 -34 -11.5s-26.167 3.83301 -34.5 11.5zM100 22.5c-21.333 20.333 -32 54.833 -32 103.5v344h82v-397c20.667 -6 42.667 -9 66 -9c62 0 111.333 21.333 148 64v342h82v-470h-71l-6 72h-8c-22.667 -25.333 -46.667 -45 -72 -59s-54.333 -21 -87 -21
c-46.667 0 -80.667 10.167 -102 30.5z" />
    <glyph glyph-name="uni01DB" unicode="&#x1db;" horiz-adv-x="609" 
d="M158 998l106 11l83 -145l-64 -10zM191.5 702.5c-8.33301 7.66699 -12.5 18.167 -12.5 31.5c0 14 4.16699 24.833 12.5 32.5s19.5 11.5 33.5 11.5c14.667 0 26 -3.83301 34 -11.5s12 -18.5 12 -32.5c0 -13.333 -4 -23.833 -12 -31.5s-19.333 -11.5 -34 -11.5
c-14 0 -25.167 3.83301 -33.5 11.5zM348.5 702.5c-8.33301 7.66699 -12.5 18.167 -12.5 31.5c0 14 4.16699 24.833 12.5 32.5s19.833 11.5 34.5 11.5s26 -3.83301 34 -11.5s12 -18.5 12 -32.5c0 -13.333 -4 -23.833 -12 -31.5s-19.333 -11.5 -34 -11.5
s-26.167 3.83301 -34.5 11.5zM129.5 37.5c-37.667 30.333 -56.499 75.833 -56.499 136.5v442h85v-427c0 -45.333 11 -76.5 33 -93.5s59 -25.5 111 -25.5c32 0 61.167 2 87.5 6s46.833 9.33301 61.5 16v524h85v-488c0 -49.333 -21.333 -84.333 -64 -105
s-101.667 -31 -177 -31c-72.667 0 -127.834 15.167 -165.501 45.5z" />
    <glyph glyph-name="uni01DC" unicode="&#x1dc;" horiz-adv-x="520" 
d="M109 853l106 11l83 -145l-64 -10zM146.5 558.5c-8.33301 7.66699 -12.5 18.167 -12.5 31.5c0 14 4.16699 24.833 12.5 32.5s19.5 11.5 33.5 11.5c14.667 0 26 -3.83301 34 -11.5s12 -18.5 12 -32.5c0 -13.333 -4 -23.833 -12 -31.5s-19.333 -11.5 -34 -11.5
c-14 0 -25.167 3.83301 -33.5 11.5zM303.5 558.5c-8.33301 7.66699 -12.5 18.167 -12.5 31.5c0 14 4.16699 24.833 12.5 32.5s19.833 11.5 34.5 11.5s26 -3.83301 34 -11.5s12 -18.5 12 -32.5c0 -13.333 -4 -23.833 -12 -31.5s-19.333 -11.5 -34 -11.5
s-26.167 3.83301 -34.5 11.5zM100 22.5c-21.333 20.333 -32 54.833 -32 103.5v344h82v-397c20.667 -6 42.667 -9 66 -9c62 0 111.333 21.333 148 64v342h82v-470h-71l-6 72h-8c-22.667 -25.333 -46.667 -45 -72 -59s-54.333 -21 -87 -21c-46.667 0 -80.667 10.167 -102 30.5
z" />
    <glyph glyph-name="Gcaron" unicode="&#x1e6;" horiz-adv-x="598" 
d="M165 829l51 11l84 -75h5l81 75l53 -11l-99 -133h-75zM124 68c-46.667 50.667 -69.999 124.332 -69.999 220.999c0 106.667 23 189.5 69 248.5s115.333 88.5 208 88.5c40.667 0 79.5 -4 116.5 -12s64.167 -17.667 81.5 -29v-56c0 -25.333 -4.33301 -48.333 -13 -69h-59
l-10 79c-11.333 2.66699 -28.166 4.83398 -50.499 6.50098s-44.5 2.5 -66.5 2.5c-50 0 -93.667 -4 -131 -12c-18 -32 -32.5 -69.333 -43.5 -112s-16.5 -85.667 -16.5 -129c0 -78 16.167 -135 48.5 -171s82.166 -54 149.499 -54c47.333 0 87 4 119 12v175h-144v75h187l41 -34
v-164c0 -27.333 -9.33301 -51.833 -28 -73.5s-44.5 -38.5 -77.5 -50.5s-69.833 -18 -110.5 -18c-86.667 0 -153.334 25.333 -200.001 76z" />
    <glyph glyph-name="gcaron" unicode="&#x1e7;" horiz-adv-x="514" 
d="M130 685l51 11l84 -75h5l81 75l53 -11l-99 -133h-75zM155 -185.5c-30.667 7.66699 -55.668 17.5 -75.001 29.5l23 63c19.333 -10 41.5 -18 66.5 -24s49.167 -9 72.5 -9c26.667 0 49.5 1.83301 68.5 5.5s37.167 9.5 54.5 17.5v115l3 66h-8
c-19.333 -22 -41.166 -39.833 -65.499 -53.5s-50.166 -20.5 -77.499 -20.5c-60 0 -102.833 20.833 -128.5 62.5s-38.5 93.5 -38.5 155.5c0 82 13 145.167 39 189.5s72.667 66.5 140 66.5c61.333 0 105.333 -27 132 -81h7l6 73h70v-518c0 -48.667 -17.5 -85.667 -52.5 -111
s-82.167 -38 -141.5 -38c-32.667 0 -64.334 3.83301 -95.001 11.5zM304.999 90.5c21.333 11.667 40.333 28.499 57 50.499v201c-34.667 45.333 -75.667 68 -123 68c-41.333 0 -69.166 -14.333 -83.499 -43s-21.5 -73.667 -21.5 -135c0 -55.333 8.33301 -95.666 25 -120.999
s43 -38 79 -38c23.333 0 45.666 5.83301 66.999 17.5z" />
    <glyph glyph-name="Aringacute" unicode="&#x1fa;" horiz-adv-x="607" 
d="M244 930l83 145l106 -11l-125 -144zM214 701c-19.333 16 -29 38.668 -29 68.001c0 27.333 10.667 50.166 32 68.499s51 27.5 89 27.5c33.333 0 59.833 -8.66699 79.5 -26s29.5 -41 29.5 -71c0 -26 -11 -47.667 -33 -65s-51.333 -26 -88 -26c-34 0 -60.667 8 -80 24z
M353 731.001c3.33301 12 5 24 5 36c0 13.333 -4.83301 24.833 -14.5 34.5s-22.5 14.5 -38.5 14.5c-26 0 -45.333 -1.66699 -58 -5c-3.33301 -11.333 -5 -25 -5 -41c0 -13.333 4.83301 -24 14.5 -32s22.5 -12 38.5 -12c28 0 47.333 1.66699 58 5zM35 7.00098
c27.333 102.667 58.501 208.667 93.501 318s68.833 206.333 101.5 291h147c32.667 -84.667 66.5 -181.667 101.5 -291s66.167 -215.333 93.5 -318l-91 -7c-18.667 74 -36.334 140.667 -53.001 200h-250c-20 -69.333 -37.333 -136 -52 -200zM406.001 275.001
c-34.667 117.333 -62 204 -82 260h-41c-24 -68 -51.667 -154.667 -83 -260h206z" />
    <glyph glyph-name="aringacute" unicode="&#x1fb;" horiz-adv-x="474" 
d="M192 777l83 145l106 -11l-125 -144zM151 556c-19.333 16 -29 38.668 -29 68.001c0 27.333 10.667 50.166 32 68.499s51 27.5 89 27.5c33.333 0 59.833 -8.66699 79.5 -26s29.5 -41 29.5 -71c0 -26 -11 -47.667 -33 -65s-51.333 -26 -88 -26c-34 0 -60.667 8 -80 24z
M290 586.001c3.33301 12 5 24 5 36c0 13.333 -4.83301 24.833 -14.5 34.5s-22.5 14.5 -38.5 14.5c-26 0 -45.333 -1.66699 -58 -5c-3.33301 -11.333 -5 -25 -5 -41c0 -13.333 4.83301 -24 14.5 -32s22.5 -12 38.5 -12c28 0 47.333 1.66699 58 5zM75.5 24.501
c-23.667 21.667 -35.5 51.168 -35.5 88.501c0 50.667 19.333 88.334 58 113.001s92 37 160 37c22 0 44 -1 66 -3v62c0 36 -7.33301 60.5 -22 73.5s-40.667 19.5 -78 19.5c-22.667 0 -44.667 -1.33301 -66 -4l-10 -75h-61c-8.66699 23.333 -13 45.666 -13 66.999v25
c20 12.667 47.167 24.167 81.5 34.5s65.833 15.5 94.5 15.5c50 0 88.5 -12.833 115.5 -38.5s40.5 -61.834 40.5 -108.501v-331h-73l-4 66h-8c-16.667 -23.333 -37.5 -41.5 -62.5 -54.5s-51.5 -19.5 -79.5 -19.5c-45.333 0 -79.833 10.833 -103.5 32.5zM267 75.002
c24 12.667 43.667 30.668 59 54.001v74c-23.333 5.33301 -54 8 -92 8c-42 0 -72.667 -2.66699 -92 -8c-6 -14.667 -10.167 -27.834 -12.5 -39.501s-3.5 -25.5 -3.5 -41.5c0 -24 5.5 -41 16.5 -51s26.833 -15 47.5 -15c27.333 0 53 6.33301 77 19z" />
    <glyph glyph-name="AEacute" unicode="&#x1fc;" horiz-adv-x="922" 
d="M486 695l83 145l106 -11l-125 -144zM514 12.5c-37.333 15 -56 41.167 -56 78.5v109h-257l-101 -200l-80 26c88.667 183.333 193 380 313 590h518v-77h-309v-194h280v-75h-280v-193c40 -6.66699 83.667 -10 131 -10c63.333 0 120 6 170 18l19 -74
c-47.333 -14 -111.333 -21 -192 -21c-66.667 0 -118.667 7.5 -156 22.5zM458 275v260h-76c-36 -61.333 -83.333 -148 -142 -260h218z" />
    <glyph glyph-name="aeacute" unicode="&#x1fd;" horiz-adv-x="768" 
d="M343 551l83 145l106 -11l-125 -144zM79.5 25c-26.333 22 -39.5039 51.333 -39.5039 88c0 50.667 19.333 88.334 58 113.001s92 37 160 37c30.667 0 57 -1 79 -3v62c0 35.333 -9.16699 59.666 -27.5 72.999s-46.833 20 -85.5 20c-22.667 0 -44.667 -1.33301 -66 -4
l-10 -75h-61c-8.66699 23.333 -13 45.666 -13 66.999v25c20 12.667 47.167 24.167 81.5 34.5s65.833 15.5 94.5 15.5c32.667 0 61.334 -5.66699 86.001 -17s43.334 -27.666 56.001 -48.999c34 44 84.667 66 152 66c58.667 0 102.5 -16.833 131.5 -50.5
s43.5 -79.834 43.5 -138.501c0 -13.333 -0.333008 -23.333 -1 -30l-60 -59l-241 4c1.33301 -47.333 12 -82.666 32 -105.999s52 -35 96 -35c30 0 55.833 3.83301 77.5 11.5s43.834 19.167 66.501 34.5l26 -63c-26.667 -16.667 -53 -29.5 -79 -38.5s-58 -13.5 -96 -13.5
c-80 0 -135 26 -165 78c-26 -26.667 -52.667 -46.667 -80 -60s-63.333 -20 -108 -20c-45.333 0 -81.166 11 -107.499 33zM637.996 266c4 18 6 34.333 6 49c0 29.333 -8.66699 52.333 -26 69s-43.666 25 -78.999 25c-32 0 -56.833 -5.16699 -74.5 -15.5
s-29.834 -26 -36.501 -47s-10.667 -49.167 -12 -84.5zM338.996 112v91.002c-10.667 2.66699 -26.167 4.66699 -46.5 6s-39.833 2 -58.5 2c-42 0 -72.667 -2.66699 -92 -8c-6 -14.667 -10.167 -27.834 -12.5 -39.501s-3.5 -25.5 -3.5 -41.5c0 -24.667 6 -41.834 18 -51.501
s30 -14.5 54 -14.5c55.333 0 102.333 18.667 141 56z" />
    <glyph glyph-name="Oslashacute" unicode="&#x1fe;" horiz-adv-x="621" 
d="M269 696l83 145l106 -11l-125 -144zM99 -57l45 97c-61.333 49.333 -92 134.666 -92 255.999c0 112.667 20.5 195.834 61.5 249.501s109.167 80.5 204.5 80.5c34 0 64 -4 90 -12l32 69l70 -17l-38 -83c64.667 -47.333 97 -134.666 97 -261.999
c0 -112.667 -20.5 -195.834 -61.5 -249.501s-109.167 -80.5 -204.5 -80.5c-36.667 0 -69 5 -97 15l-37 -81zM373 538c-22 6.66699 -45.001 9.99902 -69.001 9.99902c-23.333 0 -46.666 -1.66699 -69.999 -5s-41.333 -7.66602 -54 -12.999c-28.667 -62 -43 -133.667 -43 -215
c0 -90.667 14.667 -155 44 -193zM383.999 73.999c22 3.33301 39.333 7.66699 52 13c32 70.667 48 142.334 48 215.001c0 48.667 -4 89.167 -12 121.5s-20.667 58.166 -38 77.499l-194 -420c22 -8 47.667 -12 77 -12c22.667 0 45 1.66699 67 5z" />
    <glyph glyph-name="oslashacute" unicode="&#x1ff;" horiz-adv-x="517" 
d="M269 542l-64 10l83 145l106 -11zM467 231c0 -79.333 -17.333 -139 -52 -179s-90.667 -60 -168 -60c-20.667 0 -40 2 -58 6l-48 -106l-70 18l53 116c-49.333 36.667 -74 105 -74 205c0 166 73.333 249 220 249c23.333 0 43.333 -2.33301 60 -7l36 79l70 -17l-42 -93
c48.667 -38.667 73 -109 73 -211zM137 155c4 -22.667 11.333 -40.667 22 -54l138 301c-15.333 3.33301 -32 5 -50 5c-38 0 -69.333 -5.33301 -94 -16c-14.667 -31.333 -22 -80 -22 -146c0 -37.333 2 -67.333 6 -90zM386 215c0 38 -2 68.832 -6 92.499
s-11.333 42.834 -22 57.501l-137 -299c12.667 -2.66699 29 -4 49 -4c36.667 0 68 5.66699 94 17c14.667 30.667 22 76 22 136z" />
    <glyph glyph-name="Scommaaccent" unicode="&#x218;" horiz-adv-x="518" 
d="M50 41l29.0029 73.999c54 -28 114.667 -42 182 -42c40.667 0 76.667 3.66699 108 11c8 21.333 12 46.333 12 75c0 30 -9 52.833 -27 68.5s-50.333 29.167 -97 40.5c-62 14.667 -109.833 34.667 -143.5 60s-50.5 64 -50.5 116s16.167 95.333 48.5 130
s85.166 52 158.499 52c40.667 0 74.167 -3.5 100.5 -10.5s51.166 -17.5 74.499 -31.5v-36c0 -28.667 -5.66699 -58.667 -17 -90h-61l-13 85c-32.667 4.66699 -62.334 7 -89.001 7c-42.667 0 -72.834 -7.83301 -90.501 -23.5s-26.5 -40.834 -26.5 -75.501
c0 -19.333 3.83301 -35.166 11.5 -47.499s20.834 -22.666 39.501 -30.999s45.334 -16.5 80.001 -24.5c65.333 -14.667 112.833 -34.667 142.5 -60s44.5 -62.333 44.5 -111c0 -54 -16.5 -98.333 -49.5 -133s-87.5 -52 -163.5 -52c-74.667 0 -142.334 16.333 -203.001 49z
M235.003 -252.001c22.667 42 34 81 34 117h-53v56c16 6 32.667 9 50 9c22.667 0 39.334 -6 50.001 -18s16 -30 16 -54c0 -20 -4.33301 -40.833 -13 -62.5s-20.334 -41.167 -35.001 -58.5z" />
    <glyph glyph-name="scommaaccent" unicode="&#x219;" horiz-adv-x="430" 
d="M44 31l24 64.999c43.333 -24.667 92 -37 146 -37c30.667 0 58.334 2.66699 83.001 8c6 16 9 33.667 9 53c0 17.333 -2 30.333 -6 39s-12.667 16.167 -26 22.5s-34.333 12.5 -63 18.5c-54.667 11.333 -95.834 27 -123.501 47s-41.5 50.333 -41.5 91
c0 24.667 6.33301 47.667 19 69s32.167 38.5 58.5 51.5s58.833 19.5 97.5 19.5c56.667 0 104 -10.667 142 -32v-31c0 -24 -4.33301 -47 -13 -69h-59l-8 65c-21.333 2.66699 -43.333 4 -66 4c-34 0 -58 -4.66699 -72 -14s-21 -26 -21 -50
c0 -21.333 7.16699 -38.166 21.5 -50.499s41.833 -22.833 82.5 -31.5c38 -8 67.833 -16.833 89.5 -26.5s38.167 -23 49.5 -40s17 -39.833 17 -68.5c0 -40 -14.5 -73.667 -43.5 -101s-73.167 -41 -132.5 -41c-64 0 -118.667 13 -164 39zM187 -252.001c22.667 42 34 81 34 117
h-53v56c16 6 32.667 9 50 9c22.667 0 39.334 -6 50.001 -18s16 -30 16 -54c0 -20 -4.33301 -40.833 -13 -62.5s-20.334 -41.167 -35.001 -58.5z" />
    <glyph glyph-name="uni021A" unicode="&#x21a;" horiz-adv-x="553" 
d="M234 538h-198v78h481v-78h-198v-538h-85v538zM236 -247c22.667 42 34 81 34 117h-53v56c16 6 32.667 9 50 9c22.667 0 39.334 -6 50.001 -18s16 -30 16 -54c0 -20 -4.33301 -40.833 -13 -62.5s-20.334 -41.167 -35.001 -58.5z" />
    <glyph glyph-name="uni021B" unicode="&#x21b;" horiz-adv-x="381" 
d="M183 1c-22 11.333 -40.666 25.334 -55.999 42.001s-23 36 -23 58v303h-84l10 66h74v126h78v-126h158l-10 -66h-148v-288c0 -14 3 -28 9 -42c16 -6 32.333 -9 49 -9c10.667 0 24.5 2 41.5 6s32.833 9 47.5 15l22 -67c-13.333 -6.66699 -29.333 -12.834 -48 -18.501
s-35.334 -8.5 -50.001 -8.5c-24.667 0 -48 3 -70 9zM179.001 -251.999c22.667 42 34 81 34 117h-53v56c16 6 32.667 9 50 9c22.667 0 39.334 -6 50.001 -18s16 -30 16 -54c0 -20 -4.33301 -40.833 -13 -62.5s-20.334 -41.167 -35.001 -58.5z" />
    <glyph glyph-name="uni0237" unicode="&#x237;" horiz-adv-x="274" 
d="M-34 -182l19 70c16 -5.33301 29.667 -8.83301 41 -10.5s24.333 -2.5 39 -2.5c18 0 34.333 2.33301 49 7c4.66699 13.333 7 32.333 7 57v531h80v-535c0 -42 -12.333 -74.667 -37 -98s-58 -35 -100 -35c-35.333 0 -68 5.33301 -98 16z" />
    <glyph glyph-name="uni0251" unicode="&#x251;" horiz-adv-x="514" 
d="M89 58.5c-26 45.667 -39.002 100.167 -39.002 163.5c0 82 13 145.167 39 189.5s72.667 66.5 140 66.5c61.333 0 105.333 -27 132 -81h7l6 77h70v-474l-70 -1l-6 65h-8c-19.333 -22 -41.166 -39.833 -65.499 -53.5s-50.166 -20.5 -77.499 -20.5
c-59.333 0 -102 22.833 -128 68.5zM304.998 76.5c21.333 11.667 40.333 28.5 57 50.5v215c-34.667 45.333 -75.667 68 -123 68c-41.333 0 -69.166 -14.333 -83.499 -43s-21.5 -73.667 -21.5 -135c0 -115.333 34.667 -173 104 -173c23.333 0 45.666 5.83301 66.999 17.5z" />
    <glyph glyph-name="uni0259" unicode="&#x259;" horiz-adv-x="488" 
d="M92.5 44.5c-29 33.667 -43.499 79.833 -43.499 138.5c0 13.333 0.333008 23.333 1 30l60 59l249 -4c-2 94 -47.333 141 -136 141c-30 0 -55.833 -3.83301 -77.5 -11.5s-43.834 -19.167 -66.501 -34.5l-26 63c26.667 16.667 53 29.5 79 38.5s58 13.5 96 13.5
c74 0 127.5 -20.5 160.5 -61.5s49.5 -99.5 49.5 -175.5c0 -77.333 -18.5 -137.833 -55.5 -181.5s-89.833 -65.5 -158.5 -65.5c-58.667 0 -102.5 16.833 -131.5 50.5zM329.501 97.499c19 23 29.168 60.5 30.501 112.5l-230 -4c-4 -18 -6 -34.333 -6 -49
c0 -29.333 8.66699 -52.333 26 -69s43.666 -25 78.999 -25c48 0 81.5 11.5 100.5 34.5z" />
    <glyph glyph-name="uni0261" unicode="&#x261;" horiz-adv-x="514" 
d="M381 383h6.99902l6 77h70v-522c0 -48.667 -17.5 -85.667 -52.5 -111s-82.167 -38 -141.5 -38c-32.667 0 -64.334 3.83301 -95.001 11.5s-55.667 17.5 -75 29.5l23 63c19.333 -10 41.5 -18 66.5 -24s49.167 -9 72.5 -9c26.667 0 49.5 1.83301 68.5 5.5
s37.167 9.5 54.5 17.5v115l3 66h-8c-19.333 -22 -41.166 -39.833 -65.499 -53.5s-50.166 -20.5 -77.499 -20.5c-60 0 -102.833 20.833 -128.5 62.5s-38.5 93.5 -38.5 155.5c0 82 13 145.167 39 189.5s72.667 66.5 140 66.5c61.333 0 105.333 -27 132 -81zM175.499 353
c-14.333 -28.667 -21.5 -73.668 -21.5 -135.001c0 -55.333 8.33301 -95.666 25 -120.999s43 -38 79 -38c23.333 0 45.666 5.83301 66.999 17.5s40.333 28.5 57 50.5v201c-34.667 45.333 -75.667 68 -123 68c-41.333 0 -69.166 -14.333 -83.499 -43z" />
    <glyph glyph-name="uni02BB" unicode="&#x2bb;" horiz-adv-x="264" 
d="M91 447c-10.667 12 -16 30 -16 54c0 20 4.33301 40.833 13 62.5s20.334 41.167 35.001 58.5l47 -11c-22.667 -42 -34 -81 -34 -117h53v-56c-16 -6 -32 -9 -48 -9c-22.667 0 -39.334 6 -50.001 18z" />
    <glyph glyph-name="uni02BC" unicode="&#x2bc;" horiz-adv-x="264" 
d="M94 440c22.667 42 34 81 34 117h-53v56c16 6 32 9 48 9c22.667 0 39.334 -6 50.001 -18s16 -30 16 -54c0 -20 -4.33301 -40.833 -13 -62.5s-20.334 -41.167 -35.001 -58.5z" />
    <glyph glyph-name="uni02BE" unicode="&#x2be;" horiz-adv-x="176" 
d="M40 511c16.667 0 27.999 0.667969 33.999 2.00098c2 6 3 13.667 3 23c0 10.667 -3.16699 19.167 -9.5 25.5s-15.5 9.5 -27.5 9.5v51c64 0 96 -27 96 -81c0 -24.667 -8.16699 -44.334 -24.5 -59.001s-40.166 -22 -71.499 -22v51z" />
    <glyph glyph-name="uni02BF" unicode="&#x2bf;" horiz-adv-x="196" 
d="M74.5 482c-16.333 14.667 -24.501 34.333 -24.501 59c0 54 32 81 96 81v-51c-12 0 -21.167 -3.16699 -27.5 -9.5s-9.5 -14.833 -9.5 -25.5c0 -9.33301 1 -17 3 -23c6 -1.33301 17.333 -2 34 -2v-51c-31.333 0 -55.166 7.33301 -71.499 22z" />
    <glyph glyph-name="circumflex" unicode="&#x2c6;" horiz-adv-x="334" 
d="M30 483l100 133h75l99 -133l-53 -11l-81 75h-5l-84 -75z" />
    <glyph glyph-name="caron" unicode="&#x2c7;" horiz-adv-x="334" 
d="M30 605l51 11l84 -75h5l81 75l53 -11l-99 -133h-75z" />
    <glyph glyph-name="uni02C8" unicode="&#x2c8;" horiz-adv-x="175" 
d="M50 679h75v-207h-75v207z" />
    <glyph glyph-name="uni02C9" unicode="&#x2c9;" horiz-adv-x="307" 
d="M50 543h207v-71h-207v71z" />
    <glyph glyph-name="uni02CA" unicode="&#x2ca;" horiz-adv-x="263" 
d="M56 481l62 125l106 -11l-104 -124z" />
    <glyph glyph-name="uni02CB" unicode="&#x2cb;" horiz-adv-x="263" 
d="M46 595l106 11l62 -125l-64 -10z" />
    <glyph glyph-name="uni02CC" unicode="&#x2cc;" horiz-adv-x="215" 
d="M70 0h75v-207h-75v207z" />
    <glyph glyph-name="breve" unicode="&#x2d8;" horiz-adv-x="370" 
d="M89.5 520.5c-22.333 19.667 -35.502 47.5 -39.502 83.5l77 12c1.33301 -21.333 6 -36.833 14 -46.5s22.667 -14.5 44 -14.5s36 4.83301 44 14.5s12.667 25.167 14 46.5l77 -12c-4 -36 -17.167 -63.833 -39.5 -83.5s-54.166 -29.5 -95.499 -29.5
s-73.166 9.83301 -95.499 29.5z" />
    <glyph glyph-name="dotaccent" unicode="&#x2d9;" horiz-adv-x="318" 
d="M115 507c-10.667 10 -15.9961 23.667 -15.9961 41c0 18.667 5.16699 33 15.5 43s25.166 15 44.499 15s34.166 -5 44.499 -15s15.5 -24.333 15.5 -43c0 -17.333 -5.33301 -31 -16 -41s-25.334 -15 -44.001 -15s-33.334 5 -44.001 15z" />
    <glyph glyph-name="ring" unicode="&#x2da;" horiz-adv-x="330" 
d="M79 467c-19.333 16 -29 38.668 -29 68.001c0 27.333 10.667 50.166 32 68.499s51 27.5 89 27.5c33.333 0 59.833 -8.66699 79.5 -26s29.5 -41 29.5 -71c0 -26 -11 -47.667 -33 -65s-51.333 -26 -88 -26c-34 0 -60.667 8 -80 24zM218 497.001c3.33301 12 5 24 5 36
c0 13.333 -4.83301 24.833 -14.5 34.5s-22.5 14.5 -38.5 14.5c-26 0 -45.333 -1.66699 -58 -5c-3.33301 -11.333 -5 -25 -5 -41c0 -13.333 4.83301 -24 14.5 -32s22.5 -12 38.5 -12c28 0 47.333 1.66699 58 5z" />
    <glyph glyph-name="ogonek" unicode="&#x2db;" horiz-adv-x="299" 
d="M93 -146.5c-18.667 13.667 -28.001 33.498 -28.001 59.498c0 24.667 7.83301 44.334 23.5 59.001s38.167 28.334 67.5 41.001l46 -13c-24 -14 -40.667 -27 -50 -39s-14 -26 -14 -42c0 -8.66699 1 -16 3 -22c8.66699 -2.66699 21.334 -4 38.001 -4
c16 0 29.667 1.66699 41 5l14 -54c-18 -7.33301 -39.667 -11 -65 -11c-32 0 -57.333 6.83301 -76 20.5z" />
    <glyph glyph-name="tilde" unicode="&#x2dc;" horiz-adv-x="418" 
d="M65 523c2 32.667 9.66602 56.834 22.999 72.501s33.666 23.5 60.999 23.5c10 0 20 -2 30 -6s21.333 -9.66699 34 -17c20.667 -12 35.667 -18 45 -18c23.333 0 36.666 15 39.999 45l55 -18c-2 -32.667 -9.66699 -56.834 -23 -72.501s-33.666 -23.5 -60.999 -23.5
c-11.333 0 -21.666 2 -30.999 6s-20 9.66699 -32 17c-10 6 -18.333 10.5 -25 13.5s-13.667 4.5 -21 4.5c-23.333 0 -36.666 -15 -39.999 -45z" />
    <glyph glyph-name="hungarumlaut" unicode="&#x2dd;" horiz-adv-x="429" 
d="M94 434c22.667 42 34 81 34 117h-53v56c16 6 32 9 48 9c22.667 0 39.334 -6 50.001 -18s16 -30 16 -54c0 -20 -4.33301 -40.833 -13 -62.5s-20.334 -41.167 -35.001 -58.5zM259 434c22.667 42 34.001 81.001 34.001 117.001h-53v56c16 6 32.667 9 50 9
c22.667 0 39 -5.83301 49 -17.5s15 -29.834 15 -54.501c0 -20 -4.33301 -40.833 -13 -62.5s-20.334 -41.167 -35.001 -58.5z" />
    <glyph glyph-name="gravecomb" unicode="&#x300;" 
d="M-278 489l83 145l106 -11l-125 -144z" />
    <glyph glyph-name="acutecomb" unicode="&#x301;" 
d="M-278 489l83 145l106 -11l-125 -144z" />
    <glyph glyph-name="uni0302" unicode="&#x302;" 
d="M-362 483l100 133h75l99 -133l-53 -11l-81 75h-5l-84 -75z" />
    <glyph glyph-name="tildecomb" unicode="&#x303;" 
d="M-378 523c2 32.667 9.66602 56.834 22.999 72.501s33.666 23.5 60.999 23.5c10 0 20 -2 30 -6s21.333 -9.66699 34 -17c20.667 -12 35.667 -18 45 -18c23.333 0 36.666 15 39.999 45l55 -18c-2 -32.667 -9.66699 -56.834 -23 -72.501s-33.666 -23.5 -60.999 -23.5
c-11.333 0 -21.666 2 -30.999 6s-20 9.66699 -32 17c-10 6 -18.333 10.5 -25 13.5s-13.667 4.5 -21 4.5c-23.333 0 -36.666 -15 -39.999 -45z" />
    <glyph glyph-name="uni0304" unicode="&#x304;" 
d="M-297 543h207v-71h-207v71z" />
    <glyph glyph-name="uni0306" unicode="&#x306;" 
d="M-315.5 520.5c-22.333 19.667 -35.502 47.5 -39.502 83.5l77 12c1.33301 -21.333 6 -36.833 14 -46.5s22.667 -14.5 44 -14.5s36 4.83301 44 14.5s12.667 25.167 14 46.5l77 -12c-4 -36 -17.167 -63.833 -39.5 -83.5s-54.166 -29.5 -95.499 -29.5
s-73.166 9.83301 -95.499 29.5z" />
    </font>
</defs>
</svg>
